<svg width="834" height="447" viewBox="0 0 834 447" fill="none" xmlns="http://www.w3.org/2000/svg">
    <path d="M358.134 417.618C344.157 400.099 336.224 373.9 334.334 339.021C332.455 304.341 337.515 277.536 349.515 258.603C361.514 239.671 379.808 229.536 404.396 228.198C428.996 226.862 448.284 234.953 462.261 252.473C476.239 269.992 484.167 296.091 486.047 330.768C487.926 365.452 482.869 392.309 470.874 411.336C458.879 430.364 440.585 440.548 415.993 441.886C391.395 443.227 372.109 435.138 358.134 417.618Z" fill="white"/>
    <path d="M410.906 413.829C388.229 413.829 370.014 405.403 356.742 388.738C342.595 371.004 334.456 344.204 332.552 309.118C330.661 274.219 335.862 246.805 348.008 227.641C360.286 208.275 379.215 197.767 404.324 196.395C429.433 195.023 449.391 203.423 463.689 221.341C477.836 239.08 485.971 265.768 487.862 300.667C489.752 335.566 484.558 363.023 472.416 382.288C460.149 401.751 441.209 412.313 416.1 413.674C414.342 413.78 412.611 413.831 410.906 413.829ZM409.471 199.853C407.843 199.853 406.189 199.899 404.51 199.99C380.643 201.286 362.647 211.238 351.028 229.566C339.288 248.087 334.273 274.787 336.124 308.938C337.986 343.273 345.863 369.373 359.533 386.515C372.113 402.282 389.391 410.255 410.942 410.255C412.571 410.255 414.223 410.21 415.899 410.119C439.771 408.822 457.763 398.823 469.374 380.403C481.111 361.78 486.126 335.027 484.275 300.89C482.424 266.752 474.55 240.753 460.877 223.611C448.297 207.826 431.018 199.853 409.471 199.853Z" fill="#53B1FD"/>
    <path d="M442.605 361.963C448.035 349.321 450.025 329.599 448.573 302.797C447.11 275.803 442.999 256.408 436.241 244.614C429.483 232.819 419.413 227.29 406.031 228.025C392.64 228.743 383.23 235.38 377.802 247.936C372.373 260.492 370.38 280.166 371.822 306.959C373.276 333.759 377.387 353.153 384.154 365.142C390.922 377.13 400.996 382.757 414.378 382.022C427.763 381.308 437.171 374.622 442.605 361.963Z" fill="#D1E9FF"/>
    <path d="M412.119 383.9C399.205 383.9 389.287 377.899 382.594 366.039C375.718 353.875 371.492 334.039 370.039 307.081C368.587 280.123 370.638 259.993 376.162 247.246C381.866 234.083 391.884 227.022 405.935 226.257C419.985 225.492 430.706 231.375 437.798 243.745C444.663 255.726 448.892 275.569 450.352 302.714C451.816 329.65 449.757 349.842 444.254 362.692C438.555 375.959 428.536 383.074 414.482 383.835C413.672 383.871 412.893 383.9 412.119 383.9ZM408.37 229.795C407.634 229.795 406.886 229.815 406.128 229.856C393.362 230.549 384.635 236.712 379.448 248.69C374.146 260.923 372.181 280.507 373.612 306.901C375.043 333.296 379.114 352.607 385.715 364.287C392.171 375.729 401.497 380.951 414.281 380.262C427.066 379.572 435.768 373.359 440.954 361.284C446.252 348.951 448.215 329.32 446.783 302.922C445.349 276.345 441.27 257.037 434.684 245.548C428.619 234.953 419.992 229.795 408.37 229.795Z" fill="#53B1FD"/>
    <path d="M692.5 336H118.5V339H692.5V336Z" fill="#53B1FD"/>
    <path d="M665.748 387.557H635.721C635.622 387.557 635.542 387.637 635.542 387.736V389.011C635.542 389.11 635.622 389.191 635.721 389.191H665.748C665.847 389.191 665.928 389.11 665.928 389.011V387.736C665.928 387.637 665.847 387.557 665.748 387.557Z" fill="#C4CEFE"/>
    <path d="M175.249 109.29C180.948 109.29 185.902 105.149 186.673 99.4926C186.812 98.4652 186.881 97.4298 186.881 96.3931C186.881 90.3483 184.483 84.5511 180.214 80.2769C175.945 76.0026 170.155 73.6013 164.118 73.6013C163.605 73.6013 163.092 73.6228 162.587 73.6588C162.041 67.4523 159.126 61.6953 154.45 57.5855C149.773 53.4756 143.693 51.3293 137.476 51.593C131.259 51.8567 125.383 54.5101 121.07 59.0012C116.757 63.4923 114.339 69.4755 114.32 75.7059C114.32 76.2985 114.349 76.884 114.392 77.4694C110.841 75.4871 106.848 74.4333 102.783 74.4053C98.7173 74.3774 94.7106 75.3762 91.1329 77.3094C87.5552 79.2427 84.5221 82.0479 82.314 85.4657C80.1059 88.8836 78.7942 92.8037 78.5 96.8636C78.5 96.9606 78.5 97.0575 78.4821 97.1509C78.4001 98.7184 78.6384 100.286 79.1823 101.758C79.7263 103.23 80.5645 104.576 81.6456 105.713C82.7268 106.849 84.0282 107.753 85.4702 108.369C86.9122 108.985 88.4646 109.299 90.0322 109.294L175.249 109.29Z" fill="#D1E9FF"/>
    <path d="M758.25 165.181C776.253 165.181 777.261 138.058 759.269 137.168C758.777 137.146 758.286 137.132 757.787 137.132C754.666 137.128 751.562 137.613 748.59 138.568C747.383 131.254 743.592 124.618 737.908 119.868C732.224 115.118 725.025 112.57 717.623 112.689C710.22 112.807 703.106 115.584 697.576 120.513C692.047 125.442 688.47 132.196 687.496 139.545C681.448 136.657 674.578 135.989 668.087 137.656C652.347 141.714 655.651 165.16 671.904 165.16L758.25 165.181Z" fill="#D1E9FF"/>
    <path d="M601.204 52.4617C619.2 52.4617 620.215 25.3457 602.223 24.473C601.731 24.4478 601.236 24.437 600.741 24.437C597.62 24.4333 594.517 24.918 591.544 25.8737C590.337 18.5626 586.548 11.9289 580.866 7.18069C575.184 2.43245 567.988 -0.11442 560.588 0.00394777C553.188 0.122315 546.076 2.89804 540.549 7.82558C535.021 12.7531 531.445 19.5047 530.472 26.8506C524.425 23.9626 517.556 23.294 511.066 24.9614C495.33 29.0198 498.634 52.4581 514.883 52.4581L601.204 52.4617Z" fill="#D1E9FF"/>
    <path d="M363.483 172.755L449.693 147.41C450.467 147.182 451.12 146.655 451.507 145.945C451.894 145.235 451.983 144.4 451.755 143.624L416.57 23.6675C416.342 22.8916 415.816 22.2382 415.107 21.8509C414.398 21.4637 413.564 21.3742 412.789 21.6024L353.769 38.9458C353.011 39.1655 352.368 39.6716 351.975 40.3573L332.455 74.4767C332.251 74.8331 332.121 75.2271 332.073 75.6351C332.025 76.0431 332.059 76.4566 332.175 76.8507L359.695 170.683C359.807 171.068 359.994 171.428 360.245 171.741C360.496 172.054 360.807 172.314 361.159 172.507C361.511 172.699 361.897 172.821 362.296 172.863C362.695 172.906 363.098 172.869 363.483 172.755Z" fill="white"/>
    <path d="M362.618 174.317C361.647 174.318 360.703 174.004 359.926 173.421C359.15 172.838 358.584 172.018 358.313 171.085L330.812 77.2634C330.643 76.6829 330.593 76.0745 330.664 75.4742C330.735 74.8739 330.925 74.294 331.224 73.7688L350.745 39.6494C351.319 38.6434 352.26 37.8993 353.37 37.5735L412.395 20.2193C412.959 20.053 413.551 19.9998 414.136 20.0628C414.721 20.1257 415.288 20.3035 415.804 20.5861C416.321 20.8686 416.777 21.2503 417.145 21.7093C417.514 22.1684 417.789 22.6958 417.954 23.2613L453.139 143.218C453.305 143.784 453.359 144.376 453.296 144.962C453.233 145.548 453.055 146.116 452.773 146.634C452.491 147.151 452.11 147.608 451.651 147.977C451.193 148.347 450.666 148.623 450.101 148.789L363.888 174.127C363.475 174.25 363.048 174.314 362.618 174.317ZM413.65 22.9021C413.496 22.9019 413.342 22.9249 413.194 22.9704L354.17 40.3246C353.77 40.4406 353.432 40.7087 353.227 41.0716L333.706 75.1911C333.6 75.3803 333.532 75.5889 333.506 75.8048C333.481 76.0206 333.499 76.2393 333.559 76.4481L361.079 170.28C361.2 170.691 361.478 171.037 361.853 171.243C362.229 171.448 362.67 171.496 363.08 171.376L449.287 146.027C449.695 145.904 450.038 145.624 450.239 145.248C450.441 144.872 450.486 144.431 450.363 144.023L415.182 24.0658C415.083 23.7313 414.88 23.4377 414.601 23.2286C414.323 23.0195 413.984 22.9063 413.636 22.9057L413.65 22.9021Z" fill="#53B1FD"/>
    <path d="M353.352 40.8057L360.548 65.3465C360.792 66.1747 360.698 67.066 360.286 67.8248C359.875 68.5835 359.179 69.1479 358.353 69.3942L332.734 77.0477" fill="white"/>
    <path d="M332.735 78.4844C332.389 78.4862 332.054 78.3627 331.791 78.1367C331.529 77.9107 331.357 77.5974 331.307 77.2546C331.258 76.9117 331.333 76.5624 331.52 76.271C331.707 75.9796 331.993 75.7657 332.326 75.6687L357.944 68.0187C358.406 67.879 358.795 67.5622 359.025 67.1372C359.256 66.7121 359.309 66.2132 359.174 65.7489L351.975 41.2116C351.922 41.0305 351.905 40.8407 351.925 40.653C351.945 40.4652 352.002 40.2833 352.092 40.1175C352.182 39.9518 352.304 39.8055 352.451 39.6869C352.598 39.5684 352.766 39.4799 352.947 39.4266C353.128 39.3733 353.318 39.3562 353.505 39.3763C353.693 39.3964 353.874 39.4532 354.04 39.5436C354.206 39.634 354.352 39.7561 354.47 39.903C354.588 40.05 354.677 40.2188 354.73 40.3999L361.926 64.9444C362.273 66.1374 362.136 67.4196 361.543 68.5115C360.95 69.6035 359.951 70.4165 358.762 70.7734L333.143 78.427C333.011 78.4653 332.873 78.4847 332.735 78.4844Z" fill="#53B1FD"/>
    <path d="M370.201 131.192L365.317 132.629C364.937 132.74 364.719 133.14 364.831 133.52L370.861 154.075C370.973 154.456 371.372 154.674 371.752 154.562L376.636 153.126C377.016 153.014 377.233 152.615 377.122 152.234L371.091 131.679C370.98 131.298 370.581 131.08 370.201 131.192Z" fill="#B2DDFF"/>
    <path d="M397.075 130.095L392.191 131.531C391.811 131.643 391.593 132.042 391.705 132.423L395.897 146.709C396.008 147.09 396.407 147.308 396.787 147.196L401.671 145.76C402.051 145.648 402.268 145.249 402.157 144.868L397.965 130.581C397.854 130.201 397.455 129.983 397.075 130.095Z" fill="#B2DDFF"/>
    <path d="M407.753 120.144L402.869 121.581C402.489 121.693 402.272 122.092 402.383 122.472L408.414 143.027C408.525 143.408 408.924 143.626 409.304 143.514L414.188 142.078C414.568 141.966 414.786 141.567 414.674 141.186L408.644 120.631C408.532 120.251 408.133 120.033 407.753 120.144Z" fill="#B2DDFF"/>
    <path d="M380.882 121.241L375.998 122.677C375.618 122.789 375.401 123.188 375.512 123.569L383.381 150.389C383.492 150.769 383.891 150.987 384.271 150.875L389.155 149.439C389.535 149.327 389.752 148.928 389.641 148.547L381.772 121.728C381.661 121.347 381.262 121.129 380.882 121.241Z" fill="#B2DDFF"/>
    <path d="M351.975 90.8973C351.718 90.8945 351.471 90.7997 351.278 90.6301C351.085 90.4605 350.958 90.2273 350.922 89.9726C350.886 89.7179 350.941 89.4585 351.079 89.2415C351.217 89.0244 351.428 88.864 351.674 88.7891L409.568 71.7653C409.842 71.6848 410.137 71.7166 410.388 71.8536C410.638 71.9907 410.824 72.2218 410.905 72.4962C410.985 72.7705 410.953 73.0656 410.816 73.3165C410.679 73.5673 410.449 73.7535 410.175 73.834L352.28 90.8542C352.181 90.8826 352.079 90.8971 351.975 90.8973Z" fill="#B2DDFF"/>
    <path d="M354.745 100.299C354.486 100.299 354.235 100.206 354.04 100.036C353.844 99.8659 353.716 99.631 353.679 99.3743C353.643 99.1175 353.7 98.8561 353.84 98.6381C353.98 98.4201 354.195 98.2602 354.443 98.1875L412.338 81.1637C412.611 81.0832 412.906 81.115 413.157 81.2521C413.407 81.3891 413.593 81.6203 413.674 81.8946C413.754 82.1689 413.722 82.464 413.585 82.7149C413.449 82.9658 413.218 83.152 412.944 83.2324L355.049 100.253C354.951 100.284 354.848 100.299 354.745 100.299Z" fill="#B2DDFF"/>
    <path d="M357.503 109.699C357.244 109.7 356.993 109.607 356.796 109.437C356.6 109.267 356.472 109.032 356.434 108.775C356.397 108.518 356.454 108.257 356.594 108.038C356.735 107.82 356.949 107.66 357.198 107.587L415.092 90.5631C415.366 90.4826 415.661 90.5144 415.912 90.6515C416.162 90.7886 416.348 91.0197 416.429 91.294C416.509 91.5683 416.477 91.8634 416.34 92.1143C416.203 92.3652 415.973 92.5514 415.699 92.6319L357.804 109.656C357.706 109.684 357.605 109.699 357.503 109.699Z" fill="#B2DDFF"/>
    <path d="M481.079 140.367L483.231 135.795C483.327 135.589 483.38 135.365 483.385 135.137C483.39 134.91 483.347 134.684 483.26 134.473C483.173 134.263 483.043 134.074 482.879 133.916C482.715 133.759 482.519 133.638 482.306 133.561L453.452 123.188L452.186 125.473L478.78 141.085C478.975 141.199 479.193 141.271 479.418 141.297C479.643 141.322 479.871 141.301 480.087 141.233C480.304 141.165 480.503 141.054 480.674 140.904C480.845 140.755 480.983 140.572 481.079 140.367Z" fill="#53B1FD"/>
    <path d="M431.8 139.703C444.711 139.703 455.177 129.223 455.177 116.297C455.177 103.37 444.711 92.8906 431.8 92.8906C418.89 92.8906 408.424 103.37 408.424 116.297C408.424 129.223 418.89 139.703 431.8 139.703Z" fill="#B2DDFF"/>
    <path d="M431.801 134.822C442.019 134.822 450.302 126.528 450.302 116.297C450.302 106.065 442.019 97.7715 431.801 97.7715C421.582 97.7715 413.299 106.065 413.299 116.297C413.299 126.528 421.582 134.822 431.801 134.822Z" fill="white"/>
    <path d="M431.8 141.15C425.631 141.162 419.678 138.878 415.097 134.742C410.515 130.606 407.632 124.913 407.008 118.768C406.383 112.623 408.062 106.465 411.717 101.489C415.372 96.514 420.744 93.0763 426.789 91.8437C432.834 90.6112 439.12 91.6717 444.428 94.8195C449.736 97.9673 453.685 102.978 455.511 108.878C457.336 114.778 456.906 121.146 454.305 126.747C451.704 132.348 447.117 136.781 441.435 139.185C438.387 140.479 435.111 141.147 431.8 141.15ZM431.772 94.3273C428.853 94.3284 425.965 94.9158 423.278 96.0549C418.266 98.1723 414.219 102.079 411.923 107.016C409.627 111.953 409.245 117.569 410.852 122.772C412.458 127.975 415.939 132.395 420.618 135.173C425.296 137.951 430.839 138.889 436.17 137.805C441.5 136.721 446.238 133.692 449.464 129.306C452.689 124.921 454.171 119.492 453.623 114.073C453.075 108.655 450.536 103.633 446.497 99.9844C442.459 96.3354 437.211 94.3193 431.772 94.3273Z" fill="#53B1FD"/>
    <path d="M431.768 120.179C431.388 120.179 431.023 120.027 430.754 119.758C430.485 119.489 430.333 119.123 430.333 118.742L430.477 107.31C430.482 106.929 430.637 106.566 430.91 106.3C431.182 106.034 431.549 105.887 431.93 105.892C432.31 105.896 432.673 106.052 432.939 106.325C433.205 106.598 433.351 106.965 433.347 107.346L433.203 118.778C433.194 119.153 433.038 119.509 432.77 119.771C432.502 120.032 432.143 120.179 431.768 120.179Z" fill="#53B1FD"/>
    <path d="M431.686 126.719C431.592 126.718 431.498 126.709 431.406 126.69C431.314 126.672 431.224 126.644 431.137 126.608C431.05 126.572 430.967 126.528 430.889 126.475C430.81 126.423 430.737 126.363 430.671 126.295C430.403 126.027 430.252 125.662 430.251 125.282C430.252 125.187 430.261 125.092 430.28 124.999C430.299 124.908 430.326 124.819 430.362 124.733C430.396 124.645 430.441 124.562 430.495 124.485C430.545 124.406 430.604 124.333 430.671 124.266C430.738 124.199 430.811 124.139 430.889 124.086C430.968 124.035 431.051 123.991 431.137 123.954C431.224 123.919 431.314 123.891 431.406 123.871C431.638 123.827 431.876 123.84 432.102 123.909C432.327 123.978 432.533 124.1 432.701 124.266C432.902 124.467 433.039 124.723 433.094 125.002C433.15 125.281 433.121 125.57 433.012 125.832C432.904 126.095 432.72 126.319 432.484 126.477C432.247 126.635 431.97 126.719 431.686 126.719Z" fill="#33D895"/>
    <path d="M431.689 126.719C431.405 126.719 431.128 126.635 430.892 126.477C430.656 126.319 430.472 126.095 430.364 125.832C430.255 125.57 430.227 125.281 430.282 125.002C430.337 124.723 430.474 124.467 430.675 124.266C430.875 124.066 431.131 123.929 431.409 123.873C431.688 123.818 431.976 123.846 432.238 123.955C432.5 124.064 432.725 124.248 432.882 124.484C433.04 124.72 433.124 124.998 433.124 125.282C433.124 125.663 432.973 126.029 432.704 126.298C432.435 126.568 432.07 126.719 431.689 126.719Z" fill="#53B1FD"/>
    <path d="M680.097 313.174L657.1 317.803L666.344 363.854L617.102 373.759L607.862 327.709L517.641 345.86L510.467 310.135L565.603 169.129L624.875 157.19L648.571 275.276L671.578 270.682L680.097 313.174ZM586.476 221.137L560.413 293.025L599.332 285.196L586.476 221.137Z" fill="#53B1FD"/>
    <path d="M300.62 337.018L277.484 333.175L269.772 379.506L220.232 371.245L227.944 324.915L137.171 309.766L143.155 273.825L244.756 161.63L304.383 171.578L284.604 290.386L307.741 294.247L300.62 337.018ZM245.8 217.665L195.909 275.582L235.064 282.118L245.8 217.665Z" fill="#53B1FD"/>
    <path d="M833.5 339H0.5V447H833.5V339Z" fill="white"/>
    <path d="M158.015 389.798H127.988C127.889 389.798 127.809 389.878 127.809 389.977V391.252C127.809 391.352 127.889 391.432 127.988 391.432H158.015C158.114 391.432 158.195 391.352 158.195 391.252V389.977C158.195 389.878 158.114 389.798 158.015 389.798Z" fill="#D1E9FF"/>
    <path d="M240.466 389.798H210.439C210.34 389.798 210.26 389.878 210.26 389.977V391.252C210.26 391.352 210.34 391.432 210.439 391.432H240.466C240.565 391.432 240.645 391.352 240.645 391.252V389.977C240.645 389.878 240.565 389.798 240.466 389.798Z" fill="#D1E9FF"/>
    <path d="M315.506 370.407H285.479C285.38 370.407 285.3 370.488 285.3 370.587V371.862C285.3 371.961 285.38 372.041 285.479 372.041H315.506C315.605 372.041 315.685 371.961 315.685 371.862V370.587C315.685 370.488 315.605 370.407 315.506 370.407Z" fill="#D1E9FF"/>
    <path d="M358.184 391.849H328.157C328.058 391.849 327.978 391.929 327.978 392.028V393.303C327.978 393.402 328.058 393.483 328.157 393.483H358.184C358.283 393.483 358.364 393.402 358.364 393.303V392.028C358.364 391.929 358.283 391.849 358.184 391.849Z" fill="#D1E9FF"/>
    <path d="M463.485 391.849H433.458C433.359 391.849 433.278 391.929 433.278 392.028V393.303C433.278 393.402 433.359 393.483 433.458 393.483H463.485C463.584 393.483 463.664 393.402 463.664 393.303V392.028C463.664 391.929 463.584 391.849 463.485 391.849Z" fill="#D1E9FF"/>
    <path d="M581.289 390.639H551.262C551.163 390.639 551.083 390.719 551.083 390.818V392.093C551.083 392.192 551.163 392.273 551.262 392.273H581.289C581.388 392.273 581.468 392.192 581.468 392.093V390.818C581.468 390.719 581.388 390.639 581.289 390.639Z" fill="#D1E9FF"/>
    <path d="M207.049 367.265H177.023C176.924 367.265 176.843 367.345 176.843 367.444V368.719C176.843 368.818 176.924 368.899 177.023 368.899H207.049C207.148 368.899 207.229 368.818 207.229 368.719V367.444C207.229 367.345 207.148 367.265 207.049 367.265Z" fill="#D1E9FF"/>
    <path d="M416.706 366.471H386.679C386.58 366.471 386.5 366.551 386.5 366.65V367.925C386.5 368.024 386.58 368.105 386.679 368.105H416.706C416.805 368.105 416.885 368.024 416.885 367.925V366.65C416.885 366.551 416.805 366.471 416.706 366.471Z" fill="#D1E9FF"/>
    <path d="M630.319 366.342H600.293C600.194 366.342 600.113 366.422 600.113 366.521V367.796C600.113 367.896 600.194 367.976 600.293 367.976H630.319C630.418 367.976 630.499 367.896 630.499 367.796V366.521C630.499 366.422 630.418 366.342 630.319 366.342Z" fill="#D1E9FF"/>
    <path d="M525.177 358.738H495.151C495.051 358.738 494.971 358.819 494.971 358.918V360.193C494.971 360.292 495.051 360.372 495.151 360.372H525.177C525.276 360.372 525.357 360.292 525.357 360.193V358.918C525.357 358.819 525.276 358.738 525.177 358.738Z" fill="#D1E9FF"/>
</svg>
