<svg width="680" height="680" viewBox="0 0 680 680" fill="none" xmlns="http://www.w3.org/2000/svg">
    <path d="M364.609 52.1503C331.65 51.8379 131.714 48.7139 125.935 104.477C120.312 157.742 197.787 138.217 198.568 161.959C199.349 186.795 184.666 193.98 143.429 192.418C125.623 191.793 69.2345 198.041 68.2973 233.655C67.3601 269.112 130.309 264.582 127.185 293.948C125.31 327.375 77.5131 334.56 58.7691 343.463C38.3069 354.241 0.66267 371.735 9.25367 409.692C20.6563 453.584 92.9769 445.774 120.156 451.085C138.275 454.053 196.225 459.207 187.946 498.101C183.573 521.531 136.088 522.781 145.148 552.927C154.363 581.043 237.149 586.51 253.863 587.448C323.528 591.196 476.448 597.444 544.551 568.704C569.543 558.238 591.723 545.586 589.068 508.098C587.818 474.515 569.699 469.673 600.158 443.744C619.371 427.03 656.234 428.436 654.047 379.702C652.798 353.46 585.632 342.526 587.194 315.035C589.537 271.924 672.01 308.475 672.323 232.093C672.479 184.452 522.527 211.162 524.089 163.99C522.058 144.777 555.016 136.655 553.611 115.568C554.548 81.3597 515.654 56.2115 364.609 52.1503Z" fill="#2E90FA"/>
    <path d="M233.714 397.977C233.557 398.133 233.401 398.133 233.089 398.133C194.82 398.133 156.551 398.133 118.282 398.133C117.813 398.133 117.188 397.82 117.188 397.196C115.939 391.729 122.187 387.511 126.56 389.542C127.185 386.73 129.841 384.856 132.808 385.168C131.246 380.17 133.433 375.171 138.588 372.672C143.43 370.485 147.96 372.204 150.771 375.952C152.49 367.518 159.675 360.176 168.578 359.551C173.42 359.239 178.575 360.645 182.324 363.769C186.073 366.893 187.322 370.329 188.259 374.547C191.071 370.485 195.601 368.611 200.755 370.173C205.91 371.735 206.535 377.046 206.379 381.732C210.596 378.295 215.594 376.577 220.905 379.857C225.435 382.513 226.372 386.886 226.528 391.572C230.277 389.386 234.026 391.572 234.338 396.571C234.338 397.508 234.182 397.82 233.714 397.977Z" fill="#B2DDFF"/>
    <path d="M554.078 159.928C554.078 181.952 613.746 186.013 616.87 159.928C620.15 133.843 554.078 126.814 554.078 159.928Z" fill="#2E90FA"/>
    <path d="M71.8901 498.569C71.8901 520.593 145.773 524.811 148.428 498.569C151.865 466.236 71.8901 459.988 71.8901 498.569Z" fill="#2E90FA"/>
    <path d="M502.69 622.749C502.69 648.834 590.318 653.833 593.598 622.749C597.503 584.324 502.69 576.982 502.69 622.749Z" fill="#2E90FA"/>
    <path d="M65.6426 161.49C65.6426 175.86 106.411 178.672 107.817 161.49C109.691 140.403 65.6426 136.341 65.6426 161.49Z" fill="#2E90FA"/>
    <path d="M299.161 417.502C300.411 411.41 291.351 405.787 284.322 407.974C285.416 403.756 284.166 400.008 277.918 398.133C275.419 397.352 272.295 397.352 269.483 398.133C274.326 388.449 269.796 377.359 254.801 375.016C238.4 372.516 220.28 380.639 217 393.447C203.723 380.326 175.451 396.103 183.73 411.098C178.575 410.317 173.264 413.128 172.952 417.502C167.797 415.784 163.58 421.095 166.86 425.624C167.016 425.937 167.641 426.093 168.11 426.093C214.501 426.093 260.736 426.093 307.128 426.093C307.44 426.093 307.752 425.937 307.909 425.937C308.065 425.781 308.377 425.624 308.377 425.312C310.095 420.938 304.316 416.721 299.161 417.502Z" fill="white"/>
    <path d="M300.567 521.062C301.035 518.406 297.13 515.907 294.006 516.844C294.475 514.97 294.006 513.252 291.195 512.471C290.101 512.158 288.695 512.158 287.446 512.471C289.633 508.253 287.602 503.255 280.885 502.318C273.7 501.224 265.578 504.817 264.172 510.44C258.236 504.661 245.74 511.534 249.489 518.25C247.146 517.938 244.803 519.187 244.803 521.062C242.46 520.281 240.742 522.624 242.148 524.654C242.304 524.811 242.46 524.967 242.616 524.967C263.079 524.967 283.541 524.967 304.003 524.967C304.159 524.967 304.315 524.967 304.315 524.811C304.472 524.811 304.472 524.654 304.472 524.498C305.409 522.624 302.91 520.749 300.567 521.062Z" fill="white"/>
    <path d="M548.611 270.518C548.767 270.518 548.924 270.674 549.08 270.674C577.508 270.674 606.093 270.674 634.521 270.674C634.834 270.674 635.302 270.362 635.302 270.049C636.239 265.988 631.553 262.864 628.429 264.426C627.961 262.395 625.93 260.99 623.743 261.146C624.993 257.397 623.275 253.648 619.37 251.93C615.777 250.212 612.497 251.618 610.31 254.273C609.061 248.025 603.594 242.558 597.033 242.089C593.441 241.777 589.692 242.87 586.88 245.213C584.069 247.556 583.131 250.056 582.507 253.336C580.476 250.368 577.04 248.962 573.135 250.056C569.23 251.305 568.761 255.21 568.917 258.647C565.793 256.147 562.044 254.898 558.139 257.241C554.859 259.271 554.078 262.552 553.922 265.988C551.11 264.426 548.299 265.988 548.143 269.737C548.143 270.205 548.299 270.518 548.611 270.518Z" fill="white"/>
    <path d="M325.871 117.129C326.027 117.129 326.027 117.286 326.184 117.286C345.396 117.286 364.609 117.286 383.978 117.286C384.29 117.286 384.446 117.129 384.602 116.817C385.227 114.005 382.103 111.975 379.916 112.912C379.604 111.506 378.198 110.569 376.792 110.725C377.573 108.226 376.48 105.727 373.825 104.477C371.482 103.384 369.139 104.321 367.733 106.039C366.952 101.822 363.203 98.073 358.829 97.7606C356.33 97.6044 353.831 98.2292 351.957 99.7912C350.082 101.353 349.457 103.071 348.989 105.258C347.583 103.228 345.24 102.29 342.741 103.071C340.085 103.852 339.773 106.508 339.929 108.851C337.899 107.133 335.399 106.352 332.588 107.914C330.401 109.319 329.776 111.506 329.776 113.849C327.902 112.756 326.027 113.849 325.871 116.348C325.559 116.973 325.715 117.129 325.871 117.129Z" fill="white"/>
    <path d="M462.703 618.062C462.703 617.906 462.546 617.593 462.546 617.437C462.39 617.125 462.078 616.812 461.609 616.812C447.083 616.969 432.556 617.281 418.029 617.594C417.405 617.594 416.936 618.062 416.936 618.687C417.248 627.122 416.624 635.713 418.029 644.148C419.279 651.958 427.87 652.426 434.43 652.895C442.865 653.363 454.893 653.676 459.735 649.146C465.202 644.148 463.015 626.341 462.703 618.062Z" fill="#194185"/>
    <path d="M424.433 634.62C417.873 634.62 416.311 628.372 416.311 628.372C416.155 628.059 416.467 627.591 416.78 627.591C417.092 627.591 417.561 627.747 417.561 628.059C417.561 628.372 419.123 634.464 426.308 633.058C430.994 632.121 431.462 622.28 431.462 622.124C431.462 621.811 431.775 621.499 432.087 621.499C432.4 621.499 432.712 621.655 432.868 621.968C433.024 622.436 433.181 622.905 433.337 623.686C433.962 626.029 434.743 629.778 436.461 631.34C438.648 633.214 443.646 633.526 446.301 632.277C448.957 631.183 450.206 627.435 450.206 623.998C450.206 623.53 450.05 623.061 450.05 622.436C450.05 622.124 450.363 621.811 450.675 621.811C450.987 621.811 451.3 621.968 451.456 622.436C451.456 622.905 451.612 623.373 451.612 623.998C452.237 627.591 454.268 630.715 457.079 631.496C459.266 632.121 461.297 631.183 463.015 628.84C463.171 628.528 463.64 628.528 463.952 628.684C464.264 628.84 464.264 629.309 464.108 629.621C462.078 632.433 459.422 633.526 456.767 632.745C454.424 632.121 452.549 630.09 451.3 627.591C450.675 630.246 449.269 632.589 446.926 633.526C443.958 634.776 438.335 634.62 435.68 632.277C434.118 630.871 433.181 628.372 432.556 626.029C431.931 629.309 430.369 633.839 426.776 634.464C425.839 634.464 425.058 634.62 424.433 634.62Z" fill="#B2DDFF"/>
    <path d="M438.804 614.001C434.118 614.001 418.498 614.157 416.779 617.75C414.436 622.748 440.053 622.28 444.895 622.124C468.325 621.499 470.981 612.908 438.804 614.001Z" fill="#062761"/>
    <path d="M438.804 613.221C436.148 613.221 413.812 612.908 415.842 618.844C416.779 621.812 421.622 622.124 424.121 622.437C429.588 623.218 435.367 623.218 440.99 623.218C445.989 623.218 450.831 622.905 455.829 622.124C458.016 621.812 462.702 621.031 463.639 618.375C465.982 611.815 440.522 613.065 438.804 613.221C437.71 613.221 437.71 615.095 438.804 614.939C443.958 614.783 448.957 614.783 454.111 615.251C455.048 615.408 463.952 616.501 460.984 618.375C455.673 621.812 447.082 621.187 440.834 621.343C433.961 621.343 426.62 621.499 419.903 619.781C416.623 618.844 418.81 617.126 420.997 616.501C423.184 615.876 425.683 615.72 428.026 615.408C431.618 615.095 435.211 614.939 438.804 614.939C439.897 614.939 439.897 613.221 438.804 613.221Z" fill="#B2DDFF"/>
    <path d="M463.015 564.642C462.702 582.293 462.078 599.944 461.921 617.594C461.921 618.531 463.327 618.531 463.327 617.594C463.64 599.944 464.264 582.293 464.421 564.642C464.421 563.705 463.015 563.705 463.015 564.642Z" fill="#B2DDFF"/>
    <path d="M413.343 564.33C413.812 582.293 414.124 600.1 415.999 617.906C416.155 618.687 417.404 618.687 417.404 617.906C415.53 600.1 415.218 582.293 414.749 564.33C414.749 563.393 413.343 563.393 413.343 564.33Z" fill="#B2DDFF"/>
    <path d="M437.554 567.298C439.116 585.261 437.241 603.38 438.803 621.499C438.803 622.28 440.209 622.436 440.209 621.499C438.647 603.536 440.522 585.417 438.96 567.298C438.96 566.36 437.554 566.36 437.554 567.298Z" fill="#B2DDFF"/>
    <path d="M532.211 410.785C526.588 396.571 516.122 382.2 499.878 379.389C499.721 379.389 499.565 379.389 499.565 379.389C499.409 379.389 499.409 379.389 499.253 379.389C487.069 378.139 480.04 390.323 475.823 399.539C468.169 416.252 464.733 434.996 461.765 453.115C455.829 488.573 449.737 527.31 460.047 562.455C460.671 564.33 463.171 564.642 464.264 562.924C475.354 545.898 498.316 539.962 512.998 526.373C528.306 512.159 536.116 491.384 538.615 471.234C541.114 450.46 539.865 430.154 532.211 410.785Z" fill="#175CD3"/>
    <path d="M411.313 467.954C405.846 438.745 393.193 409.692 378.511 383.919C378.042 382.982 377.105 382.669 376.324 382.825C376.011 382.825 375.699 382.982 375.23 383.138C360.391 390.792 352.581 405.318 347.583 420.313C342.272 436.402 339.461 456.083 341.96 472.953C345.24 494.821 357.58 514.033 373.825 529.029C387.102 541.212 403.659 549.178 415.53 563.236C416.78 564.798 419.435 563.549 419.435 561.674C419.279 530.278 416.936 498.726 411.313 467.954Z" fill="#B2DDFF"/>
    <path d="M481.602 362.363C468.638 355.178 453.33 354.084 438.96 356.896C438.022 357.052 437.554 357.677 437.398 358.302C428.65 370.798 427.401 388.136 426.151 402.663C424.121 425.468 424.745 448.585 425.683 471.547C427.088 502.474 429.588 533.402 433.649 564.017C433.805 565.267 434.586 566.204 435.992 566.204C444.895 566.204 453.642 566.204 462.546 566.204C463.327 566.204 464.108 565.735 464.576 565.111C489.1 520.125 495.973 466.08 500.034 415.783C500.971 404.381 501.752 392.822 501.908 381.419C501.752 373.922 487.069 365.331 481.602 362.363Z" fill="#B2DDFF"/>
    <path d="M444.74 365.8C440.522 341.901 398.348 360.957 387.102 369.08C376.793 376.577 373.981 383.763 373.356 395.321C372.263 414.534 373.356 433.903 375.699 453.115C379.136 479.357 385.696 505.443 396.318 529.81C399.598 537.151 403.19 544.492 407.095 551.521C408.814 554.802 412.719 564.955 416.624 566.048C422.247 567.61 429.901 566.204 435.68 566.204C436.773 566.204 437.554 565.579 437.867 564.642C438.023 564.486 438.023 564.174 438.023 563.861C441.616 520.125 444.583 476.389 445.989 432.653C446.926 410.785 448.645 387.511 444.74 365.8Z" fill="#175CD3"/>
    <path d="M412.875 567.141C430.057 570.265 448.02 570.109 465.202 567.141C470.044 566.36 468.013 559.8 463.171 560.581C447.551 563.236 430.682 563.549 415.062 560.581C410.063 559.8 407.876 566.36 412.875 567.141Z" fill="#194185"/>
    <path d="M254.8 141.34C254.8 141.183 254.8 141.183 254.8 141.027C254.8 140.871 254.644 140.715 254.332 140.715C248.084 140.871 241.679 140.871 235.431 141.027C235.119 141.027 234.963 141.183 234.963 141.496C235.119 145.088 234.807 148.837 235.431 152.43C236.056 155.866 239.649 156.022 242.46 156.179C246.053 156.335 251.364 156.491 253.394 154.617C255.894 152.586 254.956 144.932 254.8 141.34Z" fill="#194185"/>
    <path d="M238.244 148.526C235.432 148.526 234.808 145.87 234.651 145.87C234.651 145.714 234.651 145.558 234.808 145.558C234.964 145.558 235.12 145.558 235.12 145.714C235.12 145.87 235.745 148.526 238.869 147.901C240.899 147.588 241.056 143.215 241.056 143.215C241.056 143.059 241.212 142.902 241.368 142.902C241.524 142.902 241.68 142.902 241.68 143.059C241.68 143.215 241.837 143.527 241.837 143.84C242.149 144.933 242.461 146.495 243.242 147.12C244.18 147.901 246.366 148.057 247.46 147.588C248.553 147.12 249.178 145.558 249.178 143.996C249.178 143.84 249.178 143.527 249.178 143.371C249.178 143.215 249.334 143.059 249.49 143.059C249.647 143.059 249.803 143.215 249.803 143.371C249.803 143.527 249.803 143.84 249.803 143.996C250.115 145.558 251.052 146.964 252.146 147.276C253.083 147.588 254.02 147.12 254.645 146.183C254.801 146.026 254.957 146.026 255.114 146.183C255.27 146.339 255.27 146.495 255.114 146.651C254.333 147.901 253.083 148.369 251.99 148.057C251.052 147.745 250.115 146.964 249.647 145.87C249.334 146.964 248.709 148.057 247.772 148.526C246.523 149.15 244.023 148.994 242.93 148.057C242.305 147.432 241.837 146.339 241.68 145.402C241.368 146.807 240.743 148.838 239.181 148.994C238.869 148.369 238.556 148.526 238.244 148.526Z" fill="#B2DDFF"/>
    <path d="M244.491 139.622C242.461 139.622 235.744 139.778 234.963 141.184C234.026 143.371 244.96 143.214 247.147 143.058C257.3 142.746 258.393 138.997 244.491 139.622Z" fill="#062761"/>
    <path d="M244.491 139.153C243.398 139.153 233.557 138.997 234.494 141.653C234.963 142.902 236.994 143.058 238.087 143.215C240.43 143.527 242.929 143.527 245.428 143.527C247.615 143.527 249.646 143.371 251.833 143.058C252.77 142.902 254.8 142.59 255.269 141.496C256.206 138.529 245.272 139.153 244.491 139.153C244.023 139.153 244.023 139.934 244.491 139.934C246.678 139.934 248.865 139.934 251.052 140.091C251.364 140.091 255.269 140.715 254.019 141.496C251.676 143.058 247.928 142.746 245.272 142.746C242.304 142.746 239.18 142.902 236.213 142.121C234.807 141.809 235.744 140.872 236.681 140.715C237.618 140.403 238.712 140.403 239.649 140.247C241.211 140.091 242.773 140.091 244.335 140.091C244.96 139.934 244.96 139.153 244.491 139.153Z" fill="#B2DDFF"/>
    <path d="M254.956 118.223C254.8 125.876 254.488 133.53 254.488 141.184C254.488 141.496 255.113 141.496 255.113 141.184C255.269 133.53 255.425 125.876 255.581 118.223C255.581 117.754 254.956 117.754 254.956 118.223Z" fill="#B2DDFF"/>
    <path d="M233.557 118.066C233.869 125.876 233.869 133.53 234.65 141.184C234.65 141.496 235.275 141.496 235.275 141.184C234.494 133.53 234.338 125.72 234.182 118.066C234.026 117.598 233.401 117.598 233.557 118.066Z" fill="#B2DDFF"/>
    <path d="M244.023 119.316C244.648 127.126 243.867 134.936 244.492 142.746C244.492 143.059 245.116 143.059 245.116 142.746C244.492 134.936 245.273 127.126 244.648 119.316C244.492 119.004 243.867 119.004 244.023 119.316Z" fill="#B2DDFF"/>
    <path d="M284.948 51.5254C282.448 45.2774 278.075 39.1856 270.89 37.936H270.733C270.733 37.936 270.733 37.936 270.577 37.936C265.266 37.4674 262.299 42.622 260.424 46.6832C257.144 53.8684 255.582 61.9908 254.332 69.8008C251.833 85.1084 249.178 101.978 253.551 117.129C253.864 117.91 254.957 118.067 255.426 117.286C260.268 109.944 270.109 107.289 276.513 101.509C283.073 95.4176 286.51 86.358 287.603 77.6108C288.853 68.7074 288.228 59.9602 284.948 51.5254Z" fill="#175CD3"/>
    <path d="M232.62 76.3613C230.277 63.7091 224.81 51.0568 218.406 39.9666C218.25 39.6542 217.781 39.498 217.469 39.498C217.312 39.498 217.156 39.4981 217 39.6543C210.596 42.9345 207.159 49.1824 204.973 55.7428C202.63 62.7719 201.38 71.2067 202.474 78.5481C203.879 88.0763 209.19 96.3549 216.219 102.759C221.999 108.07 229.184 111.506 234.338 117.598C234.963 118.223 236.057 117.754 236.057 116.973C236.057 103.228 234.963 89.6383 232.62 76.3613Z" fill="#B2DDFF"/>
    <path d="M262.923 30.5945C257.3 27.4705 250.739 27.0019 244.491 28.2515C244.179 28.2515 243.867 28.5639 243.867 28.8763C240.118 34.1871 239.493 41.8409 239.024 48.0889C238.087 57.9295 238.4 68.0825 238.868 77.9231C239.493 91.3563 240.586 104.633 242.305 117.91C242.305 118.379 242.773 118.848 243.242 118.848C247.147 118.848 250.896 118.848 254.801 118.848C255.113 118.848 255.425 118.691 255.738 118.379C266.359 98.8539 269.327 75.4239 271.045 53.7121C271.514 48.7137 271.826 43.7153 271.826 38.8731C271.67 35.5929 265.422 31.8441 262.923 30.5945Z" fill="#B2DDFF"/>
    <path d="M247.147 32.0003C245.273 21.6911 226.997 29.9697 222.155 33.4061C217.625 36.6863 216.532 39.8103 216.22 44.8087C215.751 53.0873 216.22 61.5221 217.313 69.8007C218.719 81.2033 221.687 92.4497 226.216 103.071C227.622 106.351 229.184 109.475 230.902 112.443C231.683 113.849 233.402 118.223 234.964 118.691C237.463 119.316 240.743 118.691 243.242 118.691C243.711 118.691 244.023 118.379 244.179 118.066C244.179 117.91 244.179 117.91 244.336 117.754C245.898 98.8539 247.147 79.9537 247.772 60.8973C247.928 51.5253 248.709 41.5285 247.147 32.0003Z" fill="#175CD3"/>
    <path d="M233.244 119.316C240.586 120.722 248.552 120.566 255.893 119.316C258.08 119.004 257.143 116.036 254.956 116.505C248.24 117.754 240.898 117.754 234.025 116.505C231.995 116.036 231.058 118.848 233.244 119.316Z" fill="#194185"/>
    <path d="M183.105 327.999C182.949 327.999 182.792 327.999 182.636 327.843C182.48 327.687 182.48 327.53 182.48 327.374V310.192C182.48 310.036 182.48 309.88 182.636 309.724C182.792 309.567 182.949 309.567 183.105 309.567H185.604C185.76 309.567 185.916 309.567 186.073 309.724C186.229 309.88 186.229 310.036 186.229 310.192V324.875H194.664C194.82 324.875 194.976 324.875 195.132 325.031C195.288 325.187 195.288 325.344 195.288 325.5V327.374C195.288 327.53 195.288 327.687 195.132 327.843C194.976 327.999 194.82 327.999 194.664 327.999H183.105Z" fill="white"/>
    <path d="M208.565 328.311C207.003 328.311 205.598 327.999 204.504 327.53C203.411 327.062 202.474 326.281 201.849 325.187C201.224 324.094 200.912 322.688 200.755 321.126C200.755 320.345 200.755 319.564 200.755 318.939C200.755 318.158 200.755 317.377 200.755 316.596C200.755 315.034 201.224 313.628 201.849 312.535C202.474 311.442 203.411 310.661 204.504 310.036C205.598 309.567 207.003 309.255 208.409 309.255C209.971 309.255 211.221 309.567 212.314 310.036C213.408 310.504 214.345 311.442 214.97 312.535C215.594 313.628 215.907 314.878 216.063 316.596C216.063 317.377 216.063 318.158 216.063 318.939C216.063 319.72 216.063 320.501 216.063 321.126C216.063 322.688 215.594 324.094 214.97 325.187C214.345 326.281 213.408 327.062 212.314 327.53C211.533 327.999 210.127 328.311 208.565 328.311ZM208.565 325.187C209.659 325.187 210.596 324.875 211.377 324.25C212.158 323.625 212.47 322.532 212.47 320.97C212.47 320.189 212.47 319.408 212.47 318.783C212.47 318.158 212.47 317.377 212.47 316.596C212.47 315.503 212.314 314.722 211.846 314.097C211.533 313.472 211.065 313.004 210.44 312.691C209.815 312.379 209.19 312.223 208.409 312.223C207.628 312.223 207.003 312.379 206.379 312.691C205.754 313.004 205.285 313.472 204.973 314.097C204.66 314.722 204.504 315.503 204.348 316.596C204.348 317.377 204.348 318.002 204.348 318.783C204.348 319.408 204.348 320.189 204.348 320.97C204.348 322.532 204.817 323.625 205.441 324.25C206.066 324.875 207.472 325.187 208.565 325.187Z" fill="white"/>
    <path d="M222.311 327.999C222.155 327.999 221.999 327.999 221.999 327.843C221.843 327.687 221.843 327.53 221.843 327.374C221.843 327.374 221.843 327.218 221.843 327.062L228.247 310.036C228.247 309.88 228.403 309.724 228.559 309.567C228.716 309.411 228.872 309.411 229.184 309.411H231.996C232.308 309.411 232.464 309.411 232.621 309.567C232.777 309.724 232.933 309.88 232.933 310.036L239.337 327.062C239.337 327.218 239.337 327.218 239.337 327.374C239.337 327.53 239.337 327.687 239.181 327.843C239.025 327.999 239.025 327.999 238.869 327.999H236.526C236.213 327.999 236.057 327.999 236.057 327.843C235.901 327.687 235.901 327.687 235.901 327.53L234.651 324.25H226.841L225.592 327.53C225.592 327.687 225.435 327.687 225.435 327.843C225.279 327.999 225.123 327.999 224.967 327.999H222.311ZM227.466 321.282H233.402L230.434 313.16L227.466 321.282Z" fill="white"/>
    <path d="M246.366 327.999C246.209 327.999 246.053 327.999 245.897 327.843C245.741 327.687 245.741 327.53 245.741 327.374V310.192C245.741 310.036 245.741 309.88 245.897 309.724C246.053 309.567 246.209 309.567 246.366 309.567H252.77C254.488 309.567 256.05 309.88 257.143 310.348C258.237 310.817 259.174 311.754 259.799 312.848C260.424 313.941 260.736 315.191 260.736 316.753C260.736 317.534 260.736 318.158 260.736 318.783C260.736 319.408 260.736 320.033 260.736 320.814C260.736 322.376 260.424 323.782 259.799 324.875C259.174 325.968 258.393 326.749 257.3 327.218C256.206 327.687 254.644 327.999 252.926 327.999H246.366ZM249.333 325.031H252.77C253.707 325.031 254.488 324.875 255.113 324.563C255.738 324.25 256.206 323.782 256.519 323.157C256.831 322.532 256.987 321.751 256.987 320.658C256.987 320.189 256.987 319.72 256.987 319.252C256.987 318.783 256.987 318.471 256.987 318.002C256.987 317.534 256.987 317.221 256.987 316.596C256.987 315.191 256.519 314.097 255.894 313.472C255.269 312.848 254.176 312.379 252.614 312.379H249.333V325.031Z" fill="white"/>
    <path d="M278.855 327.999C278.699 327.999 278.542 327.999 278.386 327.843C278.23 327.687 278.23 327.53 278.23 327.374V310.192C278.23 310.036 278.23 309.88 278.386 309.724C278.542 309.567 278.699 309.567 278.855 309.567H281.354C281.51 309.567 281.666 309.567 281.823 309.724C281.979 309.88 281.979 310.036 281.979 310.192V327.374C281.979 327.53 281.979 327.687 281.823 327.843C281.666 327.999 281.51 327.999 281.354 327.999H278.855Z" fill="white"/>
    <path d="M290.726 327.999C290.57 327.999 290.414 327.999 290.258 327.843C290.102 327.687 290.102 327.53 290.102 327.374V310.192C290.102 310.036 290.102 309.88 290.258 309.724C290.414 309.567 290.57 309.567 290.726 309.567H292.757C293.069 309.567 293.226 309.567 293.226 309.724C293.226 309.88 293.382 309.88 293.382 310.036L301.036 321.907V310.348C301.036 310.192 301.036 310.036 301.192 309.88C301.348 309.724 301.504 309.724 301.66 309.724H303.847C304.003 309.724 304.16 309.724 304.316 309.88C304.472 310.036 304.472 310.192 304.472 310.348V327.53C304.472 327.687 304.472 327.843 304.316 327.999C304.16 328.155 304.003 328.155 303.847 328.155H301.817C301.504 328.155 301.348 328.155 301.348 327.999C301.348 327.843 301.192 327.843 301.036 327.687L293.538 316.128V327.53C293.538 327.687 293.538 327.843 293.382 327.999C293.226 328.155 293.069 328.155 292.913 328.155H290.726V327.999Z" fill="white"/>
    <path d="M313.219 327.999C313.062 327.999 312.906 327.999 312.75 327.843C312.594 327.687 312.594 327.53 312.594 327.374V310.192C312.594 310.036 312.594 309.88 312.75 309.724C312.906 309.567 313.062 309.567 313.219 309.567H324.621C324.777 309.567 324.934 309.567 325.09 309.724C325.246 309.88 325.246 310.036 325.246 310.192V312.067C325.246 312.223 325.246 312.379 325.09 312.535C324.934 312.691 324.777 312.691 324.621 312.691H316.186V317.69H324.153C324.309 317.69 324.465 317.69 324.621 317.846C324.777 318.002 324.777 318.158 324.777 318.315V320.189C324.777 320.345 324.777 320.501 324.621 320.658C324.465 320.814 324.309 320.814 324.153 320.814H316.186V327.374C316.186 327.53 316.186 327.687 316.03 327.843C315.874 327.999 315.718 327.999 315.562 327.999H313.219Z" fill="white"/>
    <path d="M339.46 328.311C337.898 328.311 336.493 327.999 335.399 327.53C334.306 327.062 333.369 326.281 332.744 325.187C332.119 324.094 331.807 322.688 331.65 321.126C331.65 320.345 331.65 319.564 331.65 318.939C331.65 318.158 331.65 317.377 331.65 316.596C331.65 315.034 332.119 313.628 332.744 312.535C333.369 311.442 334.306 310.661 335.399 310.036C336.493 309.567 337.898 309.255 339.304 309.255C340.866 309.255 342.116 309.567 343.209 310.036C344.303 310.504 345.24 311.442 345.865 312.535C346.489 313.628 346.802 314.878 346.958 316.596C346.958 317.377 346.958 318.158 346.958 318.939C346.958 319.72 346.958 320.501 346.958 321.126C346.958 322.688 346.489 324.094 345.865 325.187C345.24 326.281 344.303 327.062 343.209 327.53C342.272 327.999 341.022 328.311 339.46 328.311ZM339.46 325.187C340.554 325.187 341.491 324.875 342.272 324.25C343.053 323.625 343.365 322.532 343.365 320.97C343.365 320.189 343.365 319.408 343.365 318.783C343.365 318.158 343.365 317.377 343.365 316.596C343.365 315.503 343.209 314.722 342.741 314.097C342.428 313.472 341.96 313.004 341.335 312.691C340.71 312.379 340.085 312.223 339.304 312.223C338.523 312.223 337.898 312.379 337.274 312.691C336.649 313.004 336.18 313.472 335.868 314.097C335.555 314.722 335.399 315.503 335.243 316.596C335.243 317.377 335.243 318.002 335.243 318.783C335.243 319.408 335.243 320.189 335.243 320.97C335.243 322.532 335.712 323.625 336.336 324.25C336.961 324.875 338.211 325.187 339.46 325.187Z" fill="white"/>
    <path d="M365.234 327.999C365.077 327.999 364.921 327.999 364.765 327.843C364.609 327.687 364.609 327.53 364.609 327.374V310.192C364.609 310.036 364.609 309.88 364.765 309.724C364.921 309.567 365.077 309.567 365.234 309.567H367.264C367.577 309.567 367.733 309.567 367.733 309.724C367.889 309.88 367.889 309.88 367.889 310.036L375.543 321.907V310.348C375.543 310.192 375.543 310.036 375.699 309.88C375.855 309.724 376.011 309.724 376.168 309.724H378.354C378.511 309.724 378.667 309.724 378.823 309.88C378.979 310.036 378.979 310.192 378.979 310.348V327.53C378.979 327.687 378.979 327.843 378.823 327.999C378.667 328.155 378.511 328.155 378.354 328.155H376.324C376.011 328.155 375.855 328.155 375.855 327.999C375.699 327.843 375.699 327.843 375.543 327.687L368.045 316.128V327.53C368.045 327.687 368.045 327.843 367.889 327.999C367.733 328.155 367.577 328.155 367.42 328.155H365.234V327.999Z" fill="white"/>
    <path d="M394.287 328.311C392.725 328.311 391.319 327.999 390.226 327.53C389.132 327.062 388.195 326.281 387.57 325.187C386.946 324.094 386.633 322.688 386.477 321.126C386.477 320.345 386.477 319.564 386.477 318.939C386.477 318.158 386.477 317.377 386.477 316.596C386.477 315.034 386.946 313.628 387.57 312.535C388.195 311.442 389.132 310.661 390.226 310.036C391.319 309.567 392.725 309.255 394.131 309.255C395.693 309.255 396.942 309.567 398.036 310.036C399.129 310.504 400.066 311.442 400.691 312.535C401.316 313.628 401.628 314.878 401.785 316.596C401.785 317.377 401.785 318.158 401.785 318.939C401.785 319.72 401.785 320.501 401.785 321.126C401.785 322.688 401.316 324.094 400.691 325.187C400.066 326.281 399.129 327.062 398.036 327.53C397.255 327.999 395.849 328.311 394.287 328.311ZM394.287 325.187C395.38 325.187 396.318 324.875 397.099 324.25C397.88 323.625 398.192 322.532 398.192 320.97C398.192 320.189 398.192 319.408 398.192 318.783C398.192 318.158 398.192 317.377 398.192 316.596C398.192 315.503 398.036 314.722 397.567 314.097C397.255 313.472 396.786 313.004 396.161 312.691C395.537 312.379 394.912 312.223 394.131 312.223C393.35 312.223 392.725 312.379 392.1 312.691C391.475 313.004 391.007 313.472 390.694 314.097C390.382 314.722 390.226 315.503 390.07 316.596C390.07 317.377 390.07 318.002 390.07 318.783C390.07 319.408 390.07 320.189 390.07 320.97C390.07 322.532 390.538 323.625 391.163 324.25C392.256 324.875 393.194 325.187 394.287 325.187Z" fill="white"/>
    <path d="M413.812 327.999C413.656 327.999 413.5 327.999 413.344 327.843C413.188 327.687 413.188 327.53 413.188 327.374V312.848H408.345C408.189 312.848 408.033 312.848 407.877 312.691C407.721 312.535 407.721 312.379 407.721 312.223V310.348C407.721 310.192 407.721 310.036 407.877 309.88C408.033 309.724 408.189 309.724 408.345 309.724H421.779C421.935 309.724 422.091 309.724 422.247 309.88C422.403 310.036 422.403 310.192 422.403 310.348V312.223C422.403 312.379 422.403 312.535 422.247 312.691C422.091 312.848 421.935 312.848 421.779 312.848H416.936V327.374C416.936 327.53 416.936 327.687 416.78 327.843C416.624 327.999 416.468 327.999 416.312 327.999H413.812Z" fill="white"/>
    <path d="M438.96 327.999C438.804 327.999 438.647 327.999 438.491 327.843C438.335 327.687 438.335 327.53 438.335 327.374V310.192C438.335 310.036 438.335 309.88 438.491 309.724C438.647 309.567 438.804 309.567 438.96 309.567H450.362C450.519 309.567 450.675 309.567 450.831 309.724C450.987 309.88 450.987 310.036 450.987 310.192V312.067C450.987 312.223 450.987 312.379 450.831 312.535C450.675 312.691 450.519 312.691 450.362 312.691H441.928V317.69H449.894C450.05 317.69 450.206 317.69 450.362 317.846C450.519 318.002 450.519 318.158 450.519 318.315V320.189C450.519 320.345 450.519 320.501 450.362 320.658C450.206 320.814 450.05 320.814 449.894 320.814H441.928V327.374C441.928 327.53 441.928 327.687 441.771 327.843C441.615 327.999 441.459 327.999 441.303 327.999H438.96Z" fill="white"/>
    <path d="M465.202 328.311C463.64 328.311 462.234 327.999 461.14 327.53C460.047 327.062 459.11 326.281 458.485 325.187C457.86 324.094 457.548 322.688 457.392 321.126C457.392 320.345 457.392 319.564 457.392 318.939C457.392 318.158 457.392 317.377 457.392 316.596C457.392 315.034 457.86 313.628 458.485 312.535C459.11 311.442 460.047 310.661 461.14 310.036C462.234 309.567 463.64 309.255 465.045 309.255C466.451 309.255 467.857 309.567 468.95 310.036C470.044 310.504 470.981 311.442 471.606 312.535C472.231 313.628 472.543 314.878 472.699 316.596C472.699 317.377 472.699 318.158 472.699 318.939C472.699 319.72 472.699 320.501 472.699 321.126C472.699 322.688 472.231 324.094 471.606 325.187C470.981 326.281 470.044 327.062 468.95 327.53C468.013 327.999 466.764 328.311 465.202 328.311ZM465.202 325.187C466.295 325.187 467.232 324.875 468.013 324.25C468.794 323.625 469.107 322.532 469.107 320.97C469.107 320.189 469.107 319.408 469.107 318.783C469.107 318.158 469.107 317.377 469.107 316.596C469.107 315.503 468.95 314.722 468.482 314.097C468.169 313.472 467.701 313.004 467.076 312.691C466.451 312.379 465.826 312.223 465.045 312.223C464.264 312.223 463.64 312.379 463.015 312.691C462.39 313.004 461.921 313.472 461.609 314.097C461.297 314.722 461.14 315.503 460.984 316.596C460.984 317.377 460.984 318.002 460.984 318.783C460.984 319.408 460.984 320.189 460.984 320.97C460.984 322.532 461.453 323.625 462.078 324.25C463.171 324.875 464.108 325.187 465.202 325.187Z" fill="white"/>
    <path d="M487.694 328.311C486.132 328.311 484.883 327.999 483.789 327.53C482.696 327.062 481.759 326.281 481.134 325.187C480.509 324.094 480.197 322.688 480.197 320.97V310.192C480.197 310.036 480.197 309.88 480.353 309.724C480.509 309.567 480.665 309.567 480.822 309.567H483.165C483.321 309.567 483.477 309.567 483.633 309.724C483.789 309.88 483.789 310.036 483.789 310.192V320.97C483.789 322.376 484.102 323.469 484.883 324.25C485.508 324.875 486.445 325.344 487.694 325.344C488.944 325.344 489.881 325.031 490.506 324.25C491.131 323.625 491.599 322.532 491.599 320.97V310.192C491.599 310.036 491.599 309.88 491.756 309.724C491.912 309.567 492.068 309.567 492.224 309.567H494.567C494.723 309.567 494.88 309.567 495.036 309.724C495.192 309.88 495.192 310.036 495.192 310.192V320.97C495.192 322.688 494.88 324.094 494.255 325.187C493.63 326.281 492.849 327.062 491.599 327.53C490.662 327.999 489.256 328.311 487.694 328.311Z" fill="white"/>
    <path d="M503.783 327.999C503.627 327.999 503.471 327.999 503.314 327.843C503.158 327.687 503.158 327.53 503.158 327.374V310.192C503.158 310.036 503.158 309.88 503.314 309.724C503.471 309.567 503.627 309.567 503.783 309.567H505.814C506.126 309.567 506.282 309.567 506.282 309.724C506.438 309.88 506.438 309.88 506.438 310.036L514.092 321.907V310.348C514.092 310.192 514.092 310.036 514.248 309.88C514.405 309.724 514.561 309.724 514.717 309.724H516.904C517.06 309.724 517.216 309.724 517.372 309.88C517.529 310.036 517.529 310.192 517.529 310.348V327.53C517.529 327.687 517.529 327.843 517.372 327.999C517.216 328.155 517.06 328.155 516.904 328.155H514.873C514.561 328.155 514.405 328.155 514.405 327.999C514.248 327.843 514.248 327.843 514.092 327.687L506.595 316.128V327.53C506.595 327.687 506.595 327.843 506.438 327.999C506.282 328.155 506.126 328.155 505.97 328.155H503.783V327.999Z" fill="white"/>
    <path d="M526.276 327.999C526.12 327.999 525.964 327.999 525.808 327.843C525.651 327.687 525.651 327.53 525.651 327.374V310.192C525.651 310.036 525.651 309.88 525.808 309.724C525.964 309.567 526.12 309.567 526.276 309.567H532.68C534.399 309.567 535.961 309.88 537.054 310.348C538.147 310.817 539.085 311.754 539.709 312.848C540.334 313.941 540.647 315.191 540.647 316.753C540.647 317.534 540.647 318.158 540.647 318.783C540.647 319.408 540.647 320.033 540.647 320.814C540.647 322.376 540.334 323.782 539.709 324.875C539.085 325.968 538.304 326.749 537.21 327.218C536.117 327.687 534.555 327.999 532.837 327.999H526.276ZM529.4 325.031H532.837C533.774 325.031 534.555 324.875 535.18 324.563C535.804 324.25 536.273 323.782 536.585 323.157C536.898 322.532 537.054 321.751 537.054 320.658C537.054 320.189 537.054 319.72 537.054 319.252C537.054 318.783 537.054 318.471 537.054 318.002C537.054 317.534 537.054 317.221 537.054 316.596C537.054 315.191 536.585 314.097 535.961 313.472C535.336 312.848 534.242 312.379 532.68 312.379H529.4V325.031Z" fill="white"/>
    <path d="M274.169 294.103C273.232 294.103 272.295 293.791 271.67 293.01C271.045 292.385 270.577 291.448 270.577 290.511V271.454H223.404C222.311 271.454 221.374 271.142 220.749 270.361C220.124 269.736 219.812 268.799 219.812 267.862V257.709C219.812 257.084 219.968 256.459 220.124 255.522C220.436 254.741 220.749 253.96 221.374 253.179L265.266 192.261C266.515 190.543 268.39 189.762 270.733 189.762H287.134C288.071 189.762 289.008 190.074 289.633 190.855C290.258 191.48 290.726 192.417 290.726 193.354V253.804H304.003C305.253 253.804 306.034 254.116 306.815 254.741C307.44 255.366 307.752 256.303 307.752 257.396V267.862C307.752 268.799 307.44 269.736 306.659 270.361C306.034 270.986 305.097 271.454 304.16 271.454H290.726V290.511C290.726 291.448 290.414 292.385 289.633 293.01C289.008 293.635 288.071 294.103 287.134 294.103H274.169ZM240.43 254.429H270.889V211.317L240.43 254.429Z" fill="white"/>
    <path d="M361.328 295.51C354.299 295.51 348.208 294.416 343.365 292.386C338.367 290.355 334.306 287.387 331.182 283.795C328.058 280.046 325.559 275.828 323.997 270.986C322.435 266.144 321.497 260.989 321.185 255.522C321.029 252.867 321.029 249.899 321.029 246.619C321.029 243.339 321.029 240.215 321.029 236.935C321.029 233.654 321.185 230.687 321.185 227.875C321.341 222.408 322.278 217.253 323.997 212.411C325.715 207.569 328.214 203.352 331.338 199.759C334.618 196.166 338.679 193.355 343.678 191.324C348.676 189.294 354.612 188.2 361.328 188.2C368.201 188.2 374.293 189.294 379.135 191.324C384.134 193.355 388.195 196.166 391.475 199.759C394.755 203.352 397.098 207.569 398.816 212.411C400.378 217.253 401.316 222.408 401.628 227.875C401.784 230.687 401.94 233.654 401.94 236.935C401.94 240.215 401.94 243.495 401.94 246.619C401.94 249.899 401.784 252.867 401.628 255.522C401.472 260.989 400.535 266.144 398.973 270.986C397.411 275.828 395.068 280.046 391.787 283.795C388.663 287.543 384.446 290.355 379.448 292.386C374.293 294.572 368.357 295.51 361.328 295.51ZM361.328 278.484C367.733 278.484 372.575 276.453 375.543 272.08C378.51 267.862 380.072 262.083 380.229 254.898C380.385 252.086 380.541 249.118 380.541 246.15C380.541 243.183 380.541 240.215 380.541 237.247C380.541 234.279 380.385 231.468 380.229 228.812C380.072 221.783 378.51 216.004 375.543 211.786C372.575 207.413 367.733 205.382 361.328 205.382C354.924 205.382 350.238 207.569 347.27 211.786C344.303 216.16 342.584 221.783 342.428 228.812C342.428 231.468 342.428 234.279 342.428 237.247C342.428 240.215 342.428 243.183 342.428 246.15C342.428 249.118 342.428 251.93 342.428 254.898C342.584 262.083 344.303 267.862 347.27 272.08C350.394 276.297 354.924 278.484 361.328 278.484Z" fill="white"/>
    <path d="M469.106 294.103C468.169 294.103 467.232 293.791 466.607 293.01C465.982 292.385 465.514 291.448 465.514 290.511V271.454H418.341C417.248 271.454 416.31 271.142 415.686 270.361C415.061 269.736 414.749 268.799 414.749 267.862V257.709C414.749 257.084 414.905 256.459 415.061 255.522C415.373 254.741 415.686 253.96 416.311 253.179L460.203 192.261C461.452 190.543 463.327 189.762 465.67 189.762H481.915C482.852 189.762 483.789 190.074 484.414 190.855C485.039 191.48 485.507 192.417 485.507 193.354V253.804H498.784C500.034 253.804 500.815 254.116 501.596 254.741C502.221 255.366 502.533 256.303 502.533 257.396V267.862C502.533 268.799 502.221 269.736 501.44 270.361C500.815 270.986 499.878 271.454 498.94 271.454H485.507V290.511C485.507 291.448 485.195 292.385 484.414 293.01C483.789 293.635 482.852 294.103 481.915 294.103H469.106ZM435.367 254.429H465.826V211.317L435.367 254.429Z" fill="white"/>
    <path d="M315.094 170.081C312.595 170.081 310.408 169.613 308.69 168.832C306.971 168.051 305.566 166.801 304.472 165.083C303.379 163.365 302.91 161.178 302.91 158.679C302.91 157.429 302.91 156.336 302.91 155.086C302.91 153.836 302.91 152.743 302.91 151.493C303.066 148.994 303.535 146.807 304.628 145.089C305.722 143.371 307.128 142.121 308.846 141.184C310.72 140.247 312.751 139.935 315.094 139.935C317.437 139.935 319.624 140.403 321.342 141.184C323.216 142.121 324.622 143.371 325.559 145.089C326.653 146.807 327.121 148.838 327.277 151.493C327.277 152.743 327.434 153.993 327.434 155.086C327.434 156.336 327.434 157.429 327.277 158.679C327.121 161.178 326.653 163.365 325.715 165.083C324.778 166.801 323.372 168.051 321.498 168.832C319.624 169.613 317.593 170.081 315.094 170.081ZM315.094 165.239C316.968 165.239 318.374 164.77 319.467 163.677C320.561 162.584 321.186 160.865 321.342 158.366C321.342 157.117 321.498 156.023 321.498 154.93C321.498 153.836 321.498 152.743 321.342 151.493C321.342 149.931 321.029 148.526 320.405 147.588C319.936 146.495 319.155 145.87 318.218 145.402C317.281 144.933 316.187 144.777 315.094 144.777C313.844 144.777 312.907 144.933 311.97 145.402C311.033 145.87 310.252 146.651 309.783 147.588C309.314 148.682 309.002 149.931 308.846 151.493C308.846 152.743 308.846 153.836 308.846 154.93C308.846 156.023 308.846 157.117 308.846 158.366C309.002 160.865 309.471 162.584 310.72 163.677C311.814 164.77 313.376 165.239 315.094 165.239Z" fill="white"/>
    <path d="M344.147 170.081C341.96 170.081 340.086 169.612 338.524 168.831C336.962 168.05 335.868 166.957 335.087 165.551C334.306 164.145 333.838 162.427 333.682 160.552C333.682 160.084 333.682 159.459 333.682 158.678C333.682 157.897 333.682 157.272 333.682 156.804C333.838 154.929 334.306 153.211 335.087 151.805C335.868 150.399 337.118 149.306 338.68 148.525C340.242 147.744 342.116 147.275 344.303 147.275C346.49 147.275 348.364 147.744 349.926 148.525C351.488 149.306 352.582 150.399 353.519 151.805C354.456 153.211 354.769 154.929 354.925 156.804C354.925 157.272 354.925 157.897 354.925 158.678C354.925 159.459 354.925 160.084 354.925 160.552C354.769 162.427 354.3 164.145 353.519 165.551C352.738 166.957 351.488 168.05 350.083 168.831C348.364 169.768 346.49 170.081 344.147 170.081ZM344.147 166.019C345.553 166.019 346.802 165.551 347.583 164.614C348.364 163.676 348.833 162.271 348.989 160.552C348.989 160.084 348.989 159.615 348.989 158.99C348.989 158.366 348.989 157.741 348.989 157.428C348.833 155.554 348.521 154.304 347.583 153.367C346.802 152.43 345.553 151.961 344.147 151.961C342.741 151.961 341.492 152.43 340.711 153.367C339.93 154.304 339.461 155.71 339.305 157.428C339.305 157.897 339.305 158.366 339.305 158.99C339.305 159.615 339.305 160.24 339.305 160.552C339.461 162.427 339.773 163.676 340.711 164.614C341.492 165.551 342.741 166.019 344.147 166.019Z" fill="white"/>
    <path d="M362.422 177.578C362.11 177.578 361.953 177.422 361.641 177.266C361.485 177.11 361.329 176.797 361.329 176.485V148.681C361.329 148.369 361.485 148.213 361.641 147.9C361.797 147.744 362.11 147.588 362.422 147.588H365.702C366.015 147.588 366.327 147.744 366.483 147.9C366.639 148.056 366.796 148.369 366.796 148.681V150.399C367.42 149.462 368.358 148.837 369.451 148.213C370.544 147.588 371.95 147.275 373.512 147.275C374.918 147.275 376.324 147.588 377.417 148.056C378.511 148.525 379.448 149.15 380.073 150.087C380.697 151.024 381.322 151.961 381.791 153.211C382.103 154.461 382.416 155.71 382.416 157.116C382.416 157.585 382.416 158.053 382.416 158.522C382.416 158.99 382.416 159.459 382.416 160.084C382.416 161.49 382.103 162.739 381.791 163.989C381.478 165.238 380.854 166.176 380.073 167.113C379.292 168.05 378.354 168.675 377.261 169.143C376.168 169.612 374.918 169.924 373.356 169.924C371.794 169.924 370.544 169.612 369.451 169.143C368.358 168.675 367.577 167.894 366.796 166.957V176.485C366.796 176.797 366.639 176.953 366.483 177.266C366.327 177.422 366.015 177.578 365.702 177.578H362.422ZM371.95 165.551C373.2 165.551 374.137 165.238 374.762 164.77C375.387 164.301 375.855 163.52 376.168 162.739C376.48 161.958 376.636 161.021 376.636 159.928C376.636 159.147 376.636 158.209 376.636 157.428C376.636 156.491 376.324 155.554 376.168 154.617C376.011 153.68 375.387 153.055 374.762 152.586C374.137 152.118 373.2 151.805 371.95 151.805C370.857 151.805 369.92 152.118 369.139 152.586C368.358 153.055 367.889 153.836 367.577 154.617C367.264 155.398 367.108 156.335 366.952 157.116C366.952 157.585 366.952 158.209 366.952 158.678C366.952 159.303 366.952 159.771 366.952 160.24C366.952 161.021 367.108 161.958 367.577 162.583C367.889 163.364 368.514 163.989 369.139 164.457C369.763 164.926 370.857 165.551 371.95 165.551Z" fill="white"/>
    <path d="M397.567 170.082C395.849 170.082 394.443 169.925 393.35 169.457C392.1 169.144 391.163 168.52 390.382 168.051C389.601 167.582 389.132 166.801 388.664 166.333C388.195 165.864 388.039 165.239 388.039 164.927C388.039 164.615 388.039 164.302 388.351 164.146C388.508 163.99 388.82 163.834 388.976 163.834H392.256C392.413 163.834 392.413 163.834 392.569 163.834C392.725 163.834 392.725 163.99 392.881 164.146C393.194 164.458 393.662 164.771 393.975 165.083C394.443 165.396 394.912 165.708 395.38 165.864C395.849 166.02 396.63 166.177 397.411 166.177C398.504 166.177 399.442 166.02 400.223 165.552C401.004 165.083 401.316 164.458 401.316 163.677C401.316 163.053 401.16 162.584 400.847 162.272C400.535 161.959 399.91 161.647 399.129 161.334C398.192 161.022 397.099 160.71 395.38 160.397C393.818 160.085 392.569 159.616 391.475 158.991C390.382 158.367 389.601 157.742 389.132 156.961C388.664 156.18 388.351 155.086 388.351 153.993C388.351 152.9 388.664 151.806 389.289 150.869C389.913 149.932 390.851 148.995 392.256 148.37C393.506 147.745 395.224 147.433 397.099 147.433C398.661 147.433 399.91 147.589 401.004 148.057C402.097 148.526 403.034 148.838 403.815 149.463C404.596 150.088 405.065 150.557 405.533 151.181C405.846 151.806 406.158 152.275 406.158 152.743C406.158 153.056 406.158 153.368 405.846 153.524C405.69 153.681 405.377 153.837 405.221 153.837H402.097C401.941 153.837 401.785 153.837 401.785 153.681C401.628 153.681 401.628 153.524 401.472 153.524C401.16 153.212 400.847 152.9 400.535 152.587C400.223 152.275 399.754 151.962 399.285 151.806C398.817 151.65 398.036 151.494 397.255 151.494C396.161 151.494 395.38 151.65 394.756 152.119C394.131 152.587 393.975 153.212 393.975 153.837C393.975 154.305 394.131 154.774 394.443 155.086C394.756 155.399 395.224 155.711 396.005 156.024C396.786 156.336 398.036 156.648 399.754 156.961C401.628 157.273 403.19 157.742 404.284 158.523C405.377 159.148 406.158 159.929 406.627 160.71C407.095 161.491 407.252 162.428 407.252 163.521C407.252 164.771 406.939 165.864 406.158 166.958C405.377 167.895 404.284 168.676 402.878 169.301C401.472 169.769 399.598 170.082 397.567 170.082Z" fill="white"/>
    <path d="M414.437 169.613C414.125 169.613 413.969 169.456 413.656 169.3C413.344 169.144 413.344 168.832 413.344 168.519V164.614C413.344 164.302 413.5 163.989 413.656 163.833C413.812 163.677 414.125 163.521 414.437 163.521H418.342C418.655 163.521 418.967 163.677 419.123 163.833C419.279 163.989 419.436 164.302 419.436 164.614V168.519C419.436 168.832 419.279 168.988 419.123 169.3C418.967 169.613 418.655 169.613 418.342 169.613H414.437ZM414.75 161.49C414.437 161.49 414.281 161.334 413.969 161.178C413.812 161.022 413.656 160.709 413.656 160.397V141.184C413.656 140.872 413.812 140.716 413.969 140.403C414.125 140.091 414.437 140.091 414.75 140.091H418.186C418.498 140.091 418.811 140.247 418.967 140.403C419.123 140.559 419.279 140.872 419.279 141.184V160.397C419.279 160.709 419.123 161.022 418.967 161.178C418.811 161.334 418.498 161.49 418.186 161.49H414.75Z" fill="white"/>
</svg>
