<svg width="14" height="18" viewBox="0 0 14 18" fill="none" xmlns="http://www.w3.org/2000/svg">
<path d="M1.37883 0.666656H8.85238L13.482 5.29629V16.4074C13.482 16.9509 13.0307 17.3333 12.5561 17.3333H1.37883C0.904208 17.3333 0.519043 16.8931 0.519043 16.3495V1.65044C0.519043 1.10692 0.904252 0.666656 1.37883 0.666656Z" fill="#FFEC00"/>
<path d="M13.482 5.29629L9.77812 5.29629C9.30746 5.29629 8.85219 4.91343 8.85219 4.37036L8.85238 0.666656L13.482 5.29629Z" fill="#B4A600"/>
<path fill-rule="evenodd" clip-rule="evenodd" d="M6.8185 7.33339C7.81877 7.33339 8.63082 8.23832 8.63963 9.35798V9.45612H8.17903V9.35798H8.18017C8.17283 8.53695 7.57721 7.87364 6.84351 7.87364C6.10538 7.87364 5.50671 8.54506 5.50671 9.37309C5.50671 10.2011 6.10538 10.8725 6.84351 10.8725H11.167V11.4192H6.8185C5.81279 11.4192 4.99718 10.5044 4.99718 9.3763C4.99718 8.24823 5.81279 7.33339 6.8185 7.33339ZM3.33195 7.33339H4.53325V11.5001H4.02948V7.87364H3.33195V7.33339ZM2.83368 8.19651V8.74297H3.33195V11.5001H3.8191V8.19651H2.83368ZM6.83042 8.19651C6.2524 8.19651 5.78367 8.72232 5.78367 9.37066C5.78367 10.019 6.2524 10.5448 6.83042 10.5448V10.5497H11.167V9.973H6.83042C6.71827 9.97295 6.60883 9.93431 6.51686 9.86231C6.4249 9.7903 6.35484 9.68839 6.31613 9.57032C6.27742 9.45226 6.27193 9.32371 6.3004 9.20203C6.32887 9.08036 6.38992 8.9714 6.47533 8.88986C6.56073 8.80833 6.66638 8.75814 6.77801 8.74606C6.88965 8.73398 7.0019 8.7606 7.09962 8.82233C7.19734 8.88405 7.27584 8.97791 7.32451 9.09125C7.37319 9.20458 7.3897 9.33193 7.37182 9.45612H7.87438C7.87622 9.42789 7.87714 9.39941 7.87717 9.37066C7.87717 8.72232 7.40851 8.19651 6.83042 8.19651Z" fill="#E20613"/>
<path fill-rule="evenodd" clip-rule="evenodd" d="M9.126 7.7503H9.15829C9.19713 7.7503 9.21492 7.76482 9.22142 7.7993C9.22952 7.84107 9.23609 7.86831 9.24409 7.87921H9.29768C9.29119 7.86831 9.28473 7.85016 9.27662 7.80297C9.26855 7.76301 9.25561 7.7394 9.23132 7.72849V7.72487C9.26045 7.71397 9.28473 7.69039 9.28473 7.65225C9.28473 7.6232 9.2734 7.59958 9.25722 7.58687C9.23939 7.57234 9.21687 7.56325 9.17142 7.56325C9.13886 7.56311 9.10636 7.56615 9.07428 7.57234V7.87921H9.12608L9.126 7.7503ZM9.126 7.6104C9.13881 7.60771 9.15183 7.60649 9.16485 7.60678C9.21342 7.60678 9.23125 7.62855 9.23125 7.6576C9.23125 7.69393 9.19724 7.70664 9.16001 7.70664H9.126V7.6104ZM9.17296 7.42524H9.17457C9.32351 7.42524 9.43843 7.55415 9.43843 7.71759C9.43843 7.88464 9.32351 8.01355 9.17296 8.01355C9.02402 8.01355 8.90583 7.88464 8.90583 7.71759C8.90583 7.55415 9.02402 7.42524 9.17296 7.42524ZM9.17296 7.47606C9.29277 7.47606 9.38018 7.58501 9.38018 7.7194C9.38018 7.85378 9.29277 7.9627 9.17476 7.96089C9.05334 7.96089 8.9643 7.8539 8.9643 7.71759C8.9643 7.58501 9.05334 7.47606 9.17153 7.47606H9.17296Z" fill="#E20613"/>
</svg>
