<svg width="14" height="16" viewBox="0 0 14 16" fill="none" xmlns="http://www.w3.org/2000/svg">
<path fill-rule="evenodd" clip-rule="evenodd" d="M11.9024 1.54911C11.9024 1.13539 11.5786 0.800003 11.1792 0.800003C10.7798 0.800003 10.456 1.13539 10.456 1.54911V2.54844L3.625 2.54848V1.54919C3.625 1.13547 3.30121 0.800085 2.90179 0.800085C2.50237 0.800085 2.17857 1.13547 2.17857 1.54919V2.54848C1.11345 2.54848 0.25 3.44284 0.25 4.54609V13.2024C0.25 14.3056 1.11345 15.2 2.17857 15.2H11.8214C12.8865 15.2 13.75 14.3056 13.75 13.2024V4.54609C13.75 3.47094 12.93 2.59417 11.9024 2.55021L11.9024 2.54844V1.54911ZM2.41964 6.5437C2.41964 6.12998 2.74344 5.79459 3.14286 5.79459H11.1786C11.578 5.79459 11.9018 6.12998 11.9018 6.5437C11.9018 6.95742 11.578 7.2928 11.1786 7.2928H3.14286C2.74344 7.2928 2.41964 6.95742 2.41964 6.5437Z" fill="#7F7D83"/>
</svg>
