<svg width="18" height="18" viewBox="0 0 18 18" fill="none" xmlns="http://www.w3.org/2000/svg">
<path d="M5.06225 13.1666H17.3332V16.5778C17.3332 16.7779 17.2652 16.9699 17.1441 17.1116C17.023 17.2532 16.8588 17.333 16.6874 17.3334H5.70894C5.53737 17.3334 5.37282 17.2538 5.25149 17.1121C5.13017 16.9704 5.06201 16.7782 5.06201 16.5778V13.1666H5.06225Z" fill="#175C37"/>
<path d="M5.7092 0.666687H11.2697V4.83403H5.0625V1.42226C5.0625 1.22191 5.13063 1.02977 5.2519 0.888085C5.37317 0.746396 5.53766 0.666759 5.7092 0.666687Z" fill="#1EA266"/>
<path d="M17.3335 4.83344L11.27 4.83344V0.66745L16.6866 0.66745C16.8581 0.66745 17.0227 0.747054 17.144 0.888751C17.2653 1.03045 17.3335 1.22263 17.3335 1.42302V4.83344Z" fill="#47B980"/>
<path d="M11.2697 9H5.0625V13.1665H11.2697V9Z" fill="#175C37"/>
<path d="M17.3333 9H11.2695V13.1665H17.3333V9Z" fill="#0F7C40"/>
<path d="M11.2697 4.83325H5.0625V8.99978H11.2697V4.83325Z" fill="#0F7C3F"/>
<path d="M17.3333 4.83325H11.2695V8.99978H17.3333V4.83325Z" fill="#1EA266"/>
<path d="M9.49837 4.2179H1.39922C0.994554 4.2179 0.666504 4.54825 0.666504 4.95576V13.0358C0.666504 13.4433 0.994554 13.7736 1.39922 13.7736H9.49837C9.90304 13.7736 10.2311 13.4433 10.2311 13.0358V4.95576C10.2311 4.54825 9.90304 4.2179 9.49837 4.2179Z" fill="#0F7C40"/>
<path d="M5.98473 8.98945L7.53943 11.4942H6.50512L5.46866 9.8221L4.4303 11.4942H3.396L4.95042 8.98945L3.396 6.48468H4.4303L5.46866 8.15652L6.50512 6.48468H7.53943L5.98473 8.98945Z" fill="white"/>
</svg>
