<svg width="32" height="32" viewBox="0 0 32 32" fill="none" xmlns="http://www.w3.org/2000/svg">
    <path d="M29.3334 3.24279V27.2503C29.3167 27.2899 29.303 27.3306 29.2923 27.3722C29.2008 27.9324 28.9073 28.4397 28.4672 28.7983C28.1124 29.0989 27.6891 29.2313 27.2501 29.3337H26.7283C26.7133 29.3245 26.6996 29.3095 26.6839 29.3076C25.4708 29.1413 24.6059 28.1117 24.6404 26.7958C24.6633 25.9481 24.645 25.0958 24.6443 24.2455C24.6443 24.1731 24.6372 24.1007 24.6313 23.9925C22.5265 26.1626 20.0218 27.4433 17.0423 27.7146C14.0628 27.9858 11.3689 27.1427 8.91776 25.3821C8.91776 25.935 8.92298 26.4293 8.91776 26.9236C8.90798 27.7263 8.61968 28.4123 7.94525 28.8629C7.61912 29.0813 7.2082 29.1785 6.83641 29.3311H6.31461C6.06805 29.2541 5.8065 29.2085 5.57886 29.095C4.65461 28.6353 4.23195 27.8619 4.2313 26.844C4.2313 22.5142 4.2313 18.1845 4.2313 13.8547C4.2402 13.7947 4.23888 13.7336 4.22738 13.6741C4.19738 13.5971 4.15759 13.4947 4.09302 13.4641C3.11463 13.0011 2.66718 12.2199 2.66849 11.1551C2.66849 9.19407 2.66849 7.23306 2.66849 5.27205C2.66849 4.67345 2.66457 4.07484 2.66849 3.47623C2.66849 3.1189 2.86417 2.84046 3.16681 2.72309C3.70427 2.51573 4.22608 2.90567 4.22738 3.52579C4.23043 5.24336 4.23043 6.96049 4.22738 8.67719V8.94976H5.7928V8.6172C5.7928 6.92528 5.7928 5.23314 5.7928 3.54079C5.7928 3.17693 5.92652 2.89458 6.26243 2.74069C6.79597 2.49551 7.35365 2.89132 7.35496 3.51797C7.35952 5.23619 7.35496 6.95376 7.35496 8.66937V8.95106H8.92038V7.32087C8.92038 6.05389 8.92038 4.78756 8.92038 3.52057C8.92038 3.01522 9.2465 2.6644 9.70308 2.66701C10.1597 2.66961 10.4747 3.02043 10.4799 3.52905C10.4799 3.76315 10.4799 3.99789 10.4799 4.23199V5.59418C15.3719 3.37712 19.8659 3.96399 24.0188 7.35478C24.0795 7.24067 24.1493 7.11351 24.2145 6.98245C25.0814 5.1925 26.4531 3.87204 28.1039 2.81503C28.552 2.52877 29.0216 2.67027 29.2636 3.14107C29.2849 3.17632 29.3082 3.21029 29.3334 3.24279ZM15.9432 8.95563C15.5734 8.99671 15.1997 9.02084 14.8344 9.08083C13.1085 9.37361 11.6794 10.1939 10.5451 11.5261C10.4908 11.5925 10.4534 11.671 10.4362 11.755C10.33 12.2775 10.0516 12.7492 9.64569 13.095C9.56028 13.1659 9.49186 13.255 9.44544 13.3558C8.92537 14.6152 8.78921 16.0002 9.05409 17.3368C9.78266 21.1358 13.5377 23.6469 17.3684 22.8951C21.0863 22.1647 23.572 18.637 22.9954 14.913C22.4691 11.5294 19.3917 8.90738 15.9432 8.95563ZM24.6463 18.3455H25.2672C25.9149 18.3455 26.2078 18.6357 26.2085 19.2786C26.2085 20.9532 26.2085 22.6268 26.2085 24.2996C26.2085 25.176 26.2085 26.0524 26.2085 26.9282C26.2085 27.3194 26.3996 27.6011 26.7303 27.7191C27.2795 27.9147 27.7739 27.5163 27.7739 26.8656C27.7739 19.6562 27.7739 12.4471 27.7739 5.23814C27.7739 5.16576 27.7634 5.09404 27.7576 5.01383C27.7334 5.02157 27.71 5.03161 27.6878 5.04382C27.6336 5.08817 27.5801 5.13251 27.5299 5.17946C25.6658 6.93093 24.6972 9.08344 24.6528 11.6415C24.6333 12.7598 24.6528 13.8795 24.6528 14.9984L24.6463 18.3455ZM24.6463 19.9105C24.4232 19.9105 24.2302 19.932 24.0443 19.9053C23.7788 19.8668 23.6529 19.9796 23.5225 20.2052C21.8475 23.2231 18.3605 24.9856 14.9355 24.5318C12.5339 24.2136 10.5902 23.0783 9.1017 21.1651C9.05409 21.1038 9.00386 21.0432 8.91516 20.9336C8.91516 21.7383 8.9119 22.4666 8.92038 23.195C8.92854 23.2859 8.96986 23.3706 9.03648 23.433C11.2678 25.4408 13.8743 26.4293 16.8792 26.1535C20.1646 25.8522 22.7137 24.2566 24.5615 21.5329C24.6065 21.4707 24.6336 21.3974 24.6398 21.3209C24.6496 20.8599 24.6456 20.4009 24.6456 19.9079L24.6463 19.9105ZM10.4806 9.37687C12.4902 7.83145 14.6948 7.16568 17.1577 7.49433C19.6207 7.82297 21.5735 9.05931 23.062 11.0449C23.1689 10.4293 23.2622 9.8405 23.3777 9.25558C23.3992 9.18285 23.3992 9.10542 23.3775 9.03272C23.3559 8.96001 23.3135 8.89517 23.2557 8.84608C21.4729 7.09373 19.3384 6.10888 16.8525 5.89152C14.6224 5.70047 12.5476 6.20713 10.6332 7.35739C10.568 7.39651 10.4884 7.47803 10.4877 7.54063C10.4767 8.13662 10.4806 8.73197 10.4806 9.37687ZM5.7928 13.6682V13.9055C5.7928 18.2249 5.7928 22.5445 5.7928 26.8642C5.79085 26.9336 5.79281 27.0031 5.79867 27.0723C5.818 27.2643 5.90798 27.4423 6.05116 27.5717C6.19433 27.7012 6.3805 27.7729 6.57355 27.7729C6.7666 27.7729 6.95277 27.7012 7.09595 27.5717C7.23913 27.4423 7.3291 27.2643 7.34843 27.0723C7.35498 26.9855 7.35694 26.8984 7.35431 26.8114C7.35431 22.5264 7.35431 18.2416 7.35431 13.9571V13.6727L5.7928 13.6682ZM4.23326 10.5421C4.23326 10.8277 4.22282 11.0873 4.23326 11.3455C4.23683 11.5434 4.3177 11.7322 4.45859 11.8713C4.59948 12.0105 4.78922 12.089 4.98727 12.0902C6.04392 12.101 7.10101 12.101 8.15854 12.0902C8.33479 12.0933 8.50618 12.0323 8.64073 11.9184C8.77527 11.8046 8.86377 11.6457 8.88972 11.4713C8.92885 11.1688 8.8982 10.8564 8.8982 10.5415L4.23326 10.5421Z" fill="#0BA5EC"/>
</svg>
