<svg width="20" height="20" viewBox="0 0 20 20" fill="none" xmlns="http://www.w3.org/2000/svg">
    <g clip-path="url(#clip0_5233_64024)">
        <path d="M2.5 4.99967C2.5 4.55765 2.67559 4.13372 2.98816 3.82116C3.30072 3.5086 3.72464 3.33301 4.16667 3.33301H15.8333C16.2754 3.33301 16.6993 3.5086 17.0118 3.82116C17.3244 4.13372 17.5 4.55765 17.5 4.99967V14.9997C17.5 15.4417 17.3244 15.8656 17.0118 16.1782C16.6993 16.4907 16.2754 16.6663 15.8333 16.6663H4.16667C3.72464 16.6663 3.30072 16.4907 2.98816 16.1782C2.67559 15.8656 2.5 15.4417 2.5 14.9997V4.99967Z"
              stroke="#8F9194" stroke-width="1.2" stroke-linecap="round" stroke-linejoin="round"/>
        <path d="M5.83325 6.66699H14.1666" stroke="#8F9194" stroke-width="1.2" stroke-linecap="round"
              stroke-linejoin="round"/>
        <path d="M5.83325 10H14.1666" stroke="#8F9194" stroke-width="1.2" stroke-linecap="round"
              stroke-linejoin="round"/>
        <path d="M5.83325 13.333H14.1666" stroke="#8F9194" stroke-width="1.2" stroke-linecap="round"
              stroke-linejoin="round"/>
    </g>
    <defs>
        <clipPath id="clip0_5233_64024">
            <rect width="20" height="20" fill="white"/>
        </clipPath>
    </defs>
</svg>