<svg width="14" height="18" viewBox="0 0 14 18" fill="none" xmlns="http://www.w3.org/2000/svg">
<path d="M1.37834 0.666687H8.85189L13.4815 5.29632V16.4074C13.4815 16.951 13.0302 17.3334 12.5556 17.3334H1.37834C0.90372 17.3334 0.518555 16.8931 0.518555 16.3496V1.65047C0.518555 1.10695 0.903764 0.666687 1.37834 0.666687Z" fill="#E2574C"/>
<path d="M13.4812 5.29632H9.77749C9.30683 5.29632 8.85156 4.91346 8.85156 4.37039V0.666687L13.4812 5.29632Z" fill="#B53629"/>
<path d="M10.869 8.69693C11.0686 8.69693 11.1663 8.53892 11.1663 8.38579C11.1663 8.22723 11.0644 8.0741 10.869 8.0741H9.73225C9.51002 8.0741 9.38611 8.24128 9.38611 8.42582V10.9631C9.38611 11.1893 9.5279 11.3148 9.71974 11.3148C9.91041 11.3148 10.0528 11.1893 10.0528 10.9631V10.2667H10.7404C10.9537 10.2667 11.0603 10.1081 11.0603 9.9507C11.0603 9.79651 10.9537 9.64332 10.7404 9.64332H10.0528V8.69693H10.869ZM7.02677 8.0741H6.19503C5.96922 8.0741 5.80894 8.2148 5.80894 8.42364V10.9653C5.80894 11.2245 6.0395 11.3057 6.20452 11.3057H7.07738C8.11045 11.3057 8.79264 10.6883 8.79264 9.73531C8.79208 8.72778 8.14985 8.0741 7.02677 8.0741ZM7.06672 10.6791H6.55967V8.70073H7.01666C7.70839 8.70073 8.00923 9.12228 8.00923 9.70396C8.00923 10.2483 7.7137 10.6791 7.06672 10.6791ZM4.01983 8.0741H3.19586C2.9629 8.0741 2.83301 8.21368 2.83301 8.42582V10.9631C2.83301 11.1893 2.98195 11.3148 3.18211 11.3148C3.38228 11.3148 3.53122 11.1893 3.53122 10.9631V10.2223H4.04775C4.68524 10.2223 5.21134 9.81213 5.21134 9.15251C5.2114 8.50701 4.7038 8.0741 4.01983 8.0741ZM4.00614 9.62714H3.53128V8.66988H4.00614C4.29927 8.66988 4.48575 8.87766 4.48575 9.14876C4.48514 9.41936 4.29927 9.62714 4.00614 9.62714Z" fill="white"/>
</svg>
