<svg width="24" height="24" viewBox="0 0 24 24" fill="none" xmlns="http://www.w3.org/2000/svg">
    <path d="M10.5963 16.9417C9.87595 18.0647 9.08503 18.8672 8.66667 19C7.18633 19.4697 6.14917 18.1962 10.5963 16.9417ZM10.5963 16.9417C10.9813 16.3416 11.3461 15.65 11.6231 14.9202M10.5963 16.9417C10.9226 16.8497 11.2785 16.7577 11.6659 16.6666C12.1046 16.5634 12.5073 16.4868 12.8758 16.4328M11.6231 14.9202C12.0584 13.7735 12.2769 12.5326 12.0163 11.4044C12.0054 11.357 11.9865 11.3066 11.9626 11.2642C11.2904 10.0777 10.3705 12.6196 11.6231 14.9202ZM11.6231 14.9202C11.9137 15.4539 12.3212 15.9747 12.8758 16.4328M12.8758 16.4328C13.4966 16.9456 14.3016 17.3801 15.3334 17.6667C16.8606 17.9721 16.911 15.8425 12.8758 16.4328ZM13.3333 2V7.33333C13.3333 8.06971 13.9303 8.66667 14.6667 8.66667H20M6.66667 22H17.3333C18.8061 22 20 20.8061 20 19.3333V9.13028C20 8.61855 19.8038 8.12628 19.4519 7.75479L14.5916 2.62451C14.2139 2.22583 13.6889 2 13.1397 2H6.66667C5.19391 2 4 3.19391 4 4.66667V19.3333C4 20.8061 5.19391 22 6.66667 22Z" stroke="#EA5455" stroke-width="1.5" stroke-linejoin="round"/>
</svg>
