<svg width="100" height="100" viewBox="0 0 100 100" fill="none" xmlns="http://www.w3.org/2000/svg">
    <g clip-path="url(#clip0_98_13070)">
        <path d="M12.0688 93.1034C14.9253 93.1034 17.2411 90.7876 17.2411 87.9311C17.2411 85.0745 14.9253 82.7588 12.0688 82.7588C9.21219 82.7588 6.89648 85.0745 6.89648 87.9311C6.89648 90.7876 9.21219 93.1034 12.0688 93.1034Z" fill="#A8AAAE"/>
        <path d="M8.6206 99.9999H15.5172C20.2783 99.9999 24.1378 96.1404 24.1378 91.3793V84.4827C24.1378 79.7215 20.2783 75.8621 15.5172 75.8621H8.6206C3.85949 75.8621 0 79.7215 0 84.4827V91.3793C0 96.1404 3.85949 99.9999 8.6206 99.9999ZM3.44832 91.3793V84.4827C3.44832 83.1109 3.99325 81.7953 4.96324 80.8253C5.93323 79.8553 7.24882 79.3104 8.6206 79.3104H15.5172C16.889 79.3104 18.2046 79.8553 19.1746 80.8253C20.1446 81.7953 20.6895 83.1109 20.6895 84.4827V91.3793C20.6895 92.7511 20.1446 94.0666 19.1746 95.0366C18.2046 96.0066 16.889 96.5516 15.5172 96.5516H8.6206C7.24882 96.5516 5.93323 96.0066 4.96324 95.0366C3.99325 94.0666 3.44832 92.7511 3.44832 91.3793Z" fill="#A8AAAE"/>
        <path d="M87.9311 17.2413C90.7876 17.2413 93.1034 14.9256 93.1034 12.069C93.1034 9.21244 90.7876 6.89673 87.9311 6.89673C85.0745 6.89673 82.7588 9.21244 82.7588 12.069C82.7588 14.9256 85.0745 17.2413 87.9311 17.2413Z" fill="#A8AAAE"/>
        <path d="M91.3795 0H84.4829C79.7218 0 75.8623 3.85949 75.8623 8.6206V15.5172C75.8623 20.2783 79.7218 24.1378 84.4829 24.1378H91.3795C96.1406 24.1378 100 20.2783 100 15.5172V8.6206C100 3.85949 96.1406 0 91.3795 0ZM96.5518 8.6206V15.5172C96.5518 16.889 96.0069 18.2046 95.0369 19.1746C94.0669 20.1446 92.7513 20.6895 91.3795 20.6895H84.4829C83.1111 20.6895 81.7955 20.1446 80.8255 19.1746C79.8556 18.2046 79.3106 16.889 79.3106 15.5172V8.6206C79.3106 7.24882 79.8556 5.93323 80.8255 4.96324C81.7955 3.99325 83.1111 3.44832 84.4829 3.44832H91.3795C92.7513 3.44832 94.0669 3.99325 95.0369 4.96324C96.0069 5.93323 96.5518 7.24882 96.5518 8.6206Z" fill="#A8AAAE"/>
        <path d="M12.0688 17.2413C14.9253 17.2413 17.2411 14.9256 17.2411 12.069C17.2411 9.21244 14.9253 6.89673 12.0688 6.89673C9.21219 6.89673 6.89648 9.21244 6.89648 12.069C6.89648 14.9256 9.21219 17.2413 12.0688 17.2413Z" fill="#A8AAAE"/>
        <path d="M0 8.6206V15.5172C0 20.2783 3.85949 24.1378 8.6206 24.1378H15.5172C20.2783 24.1378 24.1378 20.2783 24.1378 15.5172V8.6206C24.1378 3.85949 20.2783 0 15.5172 0H8.6206C3.85949 0 0 3.85949 0 8.6206ZM8.6206 3.44832H15.5172C16.889 3.44832 18.2046 3.99325 19.1746 4.96324C20.1446 5.93323 20.6895 7.24882 20.6895 8.6206V15.5172C20.6895 16.889 20.1446 18.2046 19.1746 19.1746C18.2046 20.1446 16.889 20.6895 15.5172 20.6895H8.6206C7.24882 20.6895 5.93323 20.1446 4.96324 19.1746C3.99325 18.2046 3.44832 16.889 3.44832 15.5172V8.6206C3.44832 7.24882 3.99325 5.93323 4.96324 4.96324C5.93323 3.99325 7.24882 3.44832 8.6206 3.44832Z" fill="#A8AAAE"/>
        <path d="M36.2069 3.44794C37.159 3.44794 37.9308 2.67609 37.9308 1.72397C37.9308 0.771847 37.159 0 36.2069 0C35.2548 0 34.4829 0.771847 34.4829 1.72397C34.4829 2.67609 35.2548 3.44794 36.2069 3.44794Z" fill="#A8AAAE"/>
        <path d="M39.6551 3.44794C40.6072 3.44794 41.3791 2.67609 41.3791 1.72397C41.3791 0.771847 40.6072 0 39.6551 0C38.703 0 37.9312 0.771847 37.9312 1.72397C37.9312 2.67609 38.703 3.44794 39.6551 3.44794Z" fill="#A8AAAE"/>
        <path d="M53.4481 3.44794C54.4002 3.44794 55.1721 2.67609 55.1721 1.72397C55.1721 0.771847 54.4002 0 53.4481 0C52.496 0 51.7241 0.771847 51.7241 1.72397C51.7241 2.67609 52.496 3.44794 53.4481 3.44794Z" fill="#A8AAAE"/>
        <path d="M63.7933 3.44794C64.7454 3.44794 65.5173 2.67609 65.5173 1.72397C65.5173 0.771847 64.7454 0 63.7933 0C62.8412 0 62.0693 0.771847 62.0693 1.72397C62.0693 2.67609 62.8412 3.44794 63.7933 3.44794Z" fill="#A8AAAE"/>
        <path d="M70.6898 3.44794C71.6419 3.44794 72.4138 2.67609 72.4138 1.72397C72.4138 0.771847 71.6419 0 70.6898 0C69.7377 0 68.9658 0.771847 68.9658 1.72397C68.9658 2.67609 69.7377 3.44794 70.6898 3.44794Z" fill="#A8AAAE"/>
        <path d="M29.3104 6.89618C30.2625 6.89618 31.0344 6.12433 31.0344 5.17221C31.0344 4.22009 30.2625 3.44824 29.3104 3.44824C28.3583 3.44824 27.5864 4.22009 27.5864 5.17221C27.5864 6.12433 28.3583 6.89618 29.3104 6.89618Z" fill="#A8AAAE"/>
        <path d="M32.7586 6.89618C33.7108 6.89618 34.4826 6.12433 34.4826 5.17221C34.4826 4.22009 33.7108 3.44824 32.7586 3.44824C31.8065 3.44824 31.0347 4.22009 31.0347 5.17221C31.0347 6.12433 31.8065 6.89618 32.7586 6.89618Z" fill="#A8AAAE"/>
        <path d="M39.6551 6.89618C40.6072 6.89618 41.3791 6.12433 41.3791 5.17221C41.3791 4.22009 40.6072 3.44824 39.6551 3.44824C38.703 3.44824 37.9312 4.22009 37.9312 5.17221C37.9312 6.12433 38.703 6.89618 39.6551 6.89618Z" fill="#A8AAAE"/>
        <path d="M43.1034 6.89618C44.0555 6.89618 44.8273 6.12433 44.8273 5.17221C44.8273 4.22009 44.0555 3.44824 43.1034 3.44824C42.1512 3.44824 41.3794 4.22009 41.3794 5.17221C41.3794 6.12433 42.1512 6.89618 43.1034 6.89618Z" fill="#A8AAAE"/>
        <path d="M56.8968 6.89618C57.8489 6.89618 58.6208 6.12433 58.6208 5.17221C58.6208 4.22009 57.8489 3.44824 56.8968 3.44824C55.9447 3.44824 55.1729 4.22009 55.1729 5.17221C55.1729 6.12433 55.9447 6.89618 56.8968 6.89618Z" fill="#A8AAAE"/>
        <path d="M60.3451 6.89618C61.2972 6.89618 62.069 6.12433 62.069 5.17221C62.069 4.22009 61.2972 3.44824 60.3451 3.44824C59.3929 3.44824 58.6211 4.22009 58.6211 5.17221C58.6211 6.12433 59.3929 6.89618 60.3451 6.89618Z" fill="#A8AAAE"/>
        <path d="M67.2415 6.89618C68.1937 6.89618 68.9655 6.12433 68.9655 5.17221C68.9655 4.22009 68.1937 3.44824 67.2415 3.44824C66.2894 3.44824 65.5176 4.22009 65.5176 5.17221C65.5176 6.12433 66.2894 6.89618 67.2415 6.89618Z" fill="#A8AAAE"/>
        <path d="M70.6898 6.89618C71.6419 6.89618 72.4138 6.12433 72.4138 5.17221C72.4138 4.22009 71.6419 3.44824 70.6898 3.44824C69.7377 3.44824 68.9658 4.22009 68.9658 5.17221C68.9658 6.12433 69.7377 6.89618 70.6898 6.89618Z" fill="#A8AAAE"/>
        <path d="M29.3104 10.3447C30.2625 10.3447 31.0344 9.57282 31.0344 8.6207C31.0344 7.66858 30.2625 6.89673 29.3104 6.89673C28.3583 6.89673 27.5864 7.66858 27.5864 8.6207C27.5864 9.57282 28.3583 10.3447 29.3104 10.3447Z" fill="#A8AAAE"/>
        <path d="M43.1034 10.3447C44.0555 10.3447 44.8273 9.57282 44.8273 8.6207C44.8273 7.66858 44.0555 6.89673 43.1034 6.89673C42.1512 6.89673 41.3794 7.66858 41.3794 8.6207C41.3794 9.57282 42.1512 10.3447 43.1034 10.3447Z" fill="#A8AAAE"/>
        <path d="M46.5516 10.3447C47.5037 10.3447 48.2756 9.57282 48.2756 8.6207C48.2756 7.66858 47.5037 6.89673 46.5516 6.89673C45.5995 6.89673 44.8276 7.66858 44.8276 8.6207C44.8276 9.57282 45.5995 10.3447 46.5516 10.3447Z" fill="#A8AAAE"/>
        <path d="M60.3451 10.3447C61.2972 10.3447 62.069 9.57282 62.069 8.6207C62.069 7.66858 61.2972 6.89673 60.3451 6.89673C59.3929 6.89673 58.6211 7.66858 58.6211 8.6207C58.6211 9.57282 59.3929 10.3447 60.3451 10.3447Z" fill="#A8AAAE"/>
        <path d="M70.6898 10.3447C71.6419 10.3447 72.4138 9.57282 72.4138 8.6207C72.4138 7.66858 71.6419 6.89673 70.6898 6.89673C69.7377 6.89673 68.9658 7.66858 68.9658 8.6207C68.9658 9.57282 69.7377 10.3447 70.6898 10.3447Z" fill="#A8AAAE"/>
        <path d="M32.7586 13.7929C33.7108 13.7929 34.4826 13.0211 34.4826 12.0689C34.4826 11.1168 33.7108 10.345 32.7586 10.345C31.8065 10.345 31.0347 11.1168 31.0347 12.0689C31.0347 13.0211 31.8065 13.7929 32.7586 13.7929Z" fill="#A8AAAE"/>
        <path d="M43.1034 13.7929C44.0555 13.7929 44.8273 13.0211 44.8273 12.0689C44.8273 11.1168 44.0555 10.345 43.1034 10.345C42.1512 10.345 41.3794 11.1168 41.3794 12.0689C41.3794 13.0211 42.1512 13.7929 43.1034 13.7929Z" fill="#A8AAAE"/>
        <path d="M53.4481 13.7929C54.4002 13.7929 55.1721 13.0211 55.1721 12.0689C55.1721 11.1168 54.4002 10.345 53.4481 10.345C52.496 10.345 51.7241 11.1168 51.7241 12.0689C51.7241 13.0211 52.496 13.7929 53.4481 13.7929Z" fill="#A8AAAE"/>
        <path d="M60.3451 13.7929C61.2972 13.7929 62.069 13.0211 62.069 12.0689C62.069 11.1168 61.2972 10.345 60.3451 10.345C59.3929 10.345 58.6211 11.1168 58.6211 12.0689C58.6211 13.0211 59.3929 13.7929 60.3451 13.7929Z" fill="#A8AAAE"/>
        <path d="M63.7933 13.7929C64.7454 13.7929 65.5173 13.0211 65.5173 12.0689C65.5173 11.1168 64.7454 10.345 63.7933 10.345C62.8412 10.345 62.0693 11.1168 62.0693 12.0689C62.0693 13.0211 62.8412 13.7929 63.7933 13.7929Z" fill="#A8AAAE"/>
        <path d="M67.2415 13.7929C68.1937 13.7929 68.9655 13.0211 68.9655 12.0689C68.9655 11.1168 68.1937 10.345 67.2415 10.345C66.2894 10.345 65.5176 11.1168 65.5176 12.0689C65.5176 13.0211 66.2894 13.7929 67.2415 13.7929Z" fill="#A8AAAE"/>
        <path d="M70.6898 13.7929C71.6419 13.7929 72.4138 13.0211 72.4138 12.0689C72.4138 11.1168 71.6419 10.345 70.6898 10.345C69.7377 10.345 68.9658 11.1168 68.9658 12.0689C68.9658 13.0211 69.7377 13.7929 70.6898 13.7929Z" fill="#A8AAAE"/>
        <path d="M32.7586 17.2411C33.7108 17.2411 34.4826 16.4693 34.4826 15.5172C34.4826 14.5651 33.7108 13.7932 32.7586 13.7932C31.8065 13.7932 31.0347 14.5651 31.0347 15.5172C31.0347 16.4693 31.8065 17.2411 32.7586 17.2411Z" fill="#A8AAAE"/>
        <path d="M36.2069 17.2411C37.159 17.2411 37.9308 16.4693 37.9308 15.5172C37.9308 14.5651 37.159 13.7932 36.2069 13.7932C35.2548 13.7932 34.4829 14.5651 34.4829 15.5172C34.4829 16.4693 35.2548 17.2411 36.2069 17.2411Z" fill="#A8AAAE"/>
        <path d="M39.6551 17.2411C40.6072 17.2411 41.3791 16.4693 41.3791 15.5172C41.3791 14.5651 40.6072 13.7932 39.6551 13.7932C38.703 13.7932 37.9312 14.5651 37.9312 15.5172C37.9312 16.4693 38.703 17.2411 39.6551 17.2411Z" fill="#A8AAAE"/>
        <path d="M46.5516 17.2411C47.5037 17.2411 48.2756 16.4693 48.2756 15.5172C48.2756 14.5651 47.5037 13.7932 46.5516 13.7932C45.5995 13.7932 44.8276 14.5651 44.8276 15.5172C44.8276 16.4693 45.5995 17.2411 46.5516 17.2411Z" fill="#A8AAAE"/>
        <path d="M49.9998 17.2411C50.952 17.2411 51.7238 16.4693 51.7238 15.5172C51.7238 14.5651 50.952 13.7932 49.9998 13.7932C49.0477 13.7932 48.2759 14.5651 48.2759 15.5172C48.2759 16.4693 49.0477 17.2411 49.9998 17.2411Z" fill="#A8AAAE"/>
        <path d="M60.3451 17.2411C61.2972 17.2411 62.069 16.4693 62.069 15.5172C62.069 14.5651 61.2972 13.7932 60.3451 13.7932C59.3929 13.7932 58.6211 14.5651 58.6211 15.5172C58.6211 16.4693 59.3929 17.2411 60.3451 17.2411Z" fill="#A8AAAE"/>
        <path d="M63.7933 17.2411C64.7454 17.2411 65.5173 16.4693 65.5173 15.5172C65.5173 14.5651 64.7454 13.7932 63.7933 13.7932C62.8412 13.7932 62.0693 14.5651 62.0693 15.5172C62.0693 16.4693 62.8412 17.2411 63.7933 17.2411Z" fill="#A8AAAE"/>
        <path d="M32.7586 20.6894C33.7108 20.6894 34.4826 19.9175 34.4826 18.9654C34.4826 18.0133 33.7108 17.2415 32.7586 17.2415C31.8065 17.2415 31.0347 18.0133 31.0347 18.9654C31.0347 19.9175 31.8065 20.6894 32.7586 20.6894Z" fill="#A8AAAE"/>
        <path d="M39.6551 20.6894C40.6072 20.6894 41.3791 19.9175 41.3791 18.9654C41.3791 18.0133 40.6072 17.2415 39.6551 17.2415C38.703 17.2415 37.9312 18.0133 37.9312 18.9654C37.9312 19.9175 38.703 20.6894 39.6551 20.6894Z" fill="#A8AAAE"/>
        <path d="M46.5516 20.6894C47.5037 20.6894 48.2756 19.9175 48.2756 18.9654C48.2756 18.0133 47.5037 17.2415 46.5516 17.2415C45.5995 17.2415 44.8276 18.0133 44.8276 18.9654C44.8276 19.9175 45.5995 20.6894 46.5516 20.6894Z" fill="#A8AAAE"/>
        <path d="M56.8968 20.6894C57.8489 20.6894 58.6208 19.9175 58.6208 18.9654C58.6208 18.0133 57.8489 17.2415 56.8968 17.2415C55.9447 17.2415 55.1729 18.0133 55.1729 18.9654C55.1729 19.9175 55.9447 20.6894 56.8968 20.6894Z" fill="#A8AAAE"/>
        <path d="M29.3104 24.1379C30.2625 24.1379 31.0344 23.366 31.0344 22.4139C31.0344 21.4618 30.2625 20.6899 29.3104 20.6899C28.3583 20.6899 27.5864 21.4618 27.5864 22.4139C27.5864 23.366 28.3583 24.1379 29.3104 24.1379Z" fill="#A8AAAE"/>
        <path d="M36.2069 24.1379C37.159 24.1379 37.9308 23.366 37.9308 22.4139C37.9308 21.4618 37.159 20.6899 36.2069 20.6899C35.2548 20.6899 34.4829 21.4618 34.4829 22.4139C34.4829 23.366 35.2548 24.1379 36.2069 24.1379Z" fill="#A8AAAE"/>
        <path d="M43.1034 24.1379C44.0555 24.1379 44.8273 23.366 44.8273 22.4139C44.8273 21.4618 44.0555 20.6899 43.1034 20.6899C42.1512 20.6899 41.3794 21.4618 41.3794 22.4139C41.3794 23.366 42.1512 24.1379 43.1034 24.1379Z" fill="#A8AAAE"/>
        <path d="M49.9998 24.1379C50.952 24.1379 51.7238 23.366 51.7238 22.4139C51.7238 21.4618 50.952 20.6899 49.9998 20.6899C49.0477 20.6899 48.2759 21.4618 48.2759 22.4139C48.2759 23.366 49.0477 24.1379 49.9998 24.1379Z" fill="#A8AAAE"/>
        <path d="M56.8968 24.1379C57.8489 24.1379 58.6208 23.366 58.6208 22.4139C58.6208 21.4618 57.8489 20.6899 56.8968 20.6899C55.9447 20.6899 55.1729 21.4618 55.1729 22.4139C55.1729 23.366 55.9447 24.1379 56.8968 24.1379Z" fill="#A8AAAE"/>
        <path d="M63.7933 24.1379C64.7454 24.1379 65.5173 23.366 65.5173 22.4139C65.5173 21.4618 64.7454 20.6899 63.7933 20.6899C62.8412 20.6899 62.0693 21.4618 62.0693 22.4139C62.0693 23.366 62.8412 24.1379 63.7933 24.1379Z" fill="#A8AAAE"/>
        <path d="M70.6898 24.1379C71.6419 24.1379 72.4138 23.366 72.4138 22.4139C72.4138 21.4618 71.6419 20.6899 70.6898 20.6899C69.7377 20.6899 68.9658 21.4618 68.9658 22.4139C68.9658 23.366 69.7377 24.1379 70.6898 24.1379Z" fill="#A8AAAE"/>
        <path d="M32.7586 27.5861C33.7108 27.5861 34.4826 26.8143 34.4826 25.8622C34.4826 24.91 33.7108 24.1382 32.7586 24.1382C31.8065 24.1382 31.0347 24.91 31.0347 25.8622C31.0347 26.8143 31.8065 27.5861 32.7586 27.5861Z" fill="#A8AAAE"/>
        <path d="M39.6551 27.5861C40.6072 27.5861 41.3791 26.8143 41.3791 25.8622C41.3791 24.91 40.6072 24.1382 39.6551 24.1382C38.703 24.1382 37.9312 24.91 37.9312 25.8622C37.9312 26.8143 38.703 27.5861 39.6551 27.5861Z" fill="#A8AAAE"/>
        <path d="M43.1034 27.5861C44.0555 27.5861 44.8273 26.8143 44.8273 25.8622C44.8273 24.91 44.0555 24.1382 43.1034 24.1382C42.1512 24.1382 41.3794 24.91 41.3794 25.8622C41.3794 26.8143 42.1512 27.5861 43.1034 27.5861Z" fill="#A8AAAE"/>
        <path d="M56.8968 27.5861C57.8489 27.5861 58.6208 26.8143 58.6208 25.8622C58.6208 24.91 57.8489 24.1382 56.8968 24.1382C55.9447 24.1382 55.1729 24.91 55.1729 25.8622C55.1729 26.8143 55.9447 27.5861 56.8968 27.5861Z" fill="#A8AAAE"/>
        <path d="M60.3451 27.5861C61.2972 27.5861 62.069 26.8143 62.069 25.8622C62.069 24.91 61.2972 24.1382 60.3451 24.1382C59.3929 24.1382 58.6211 24.91 58.6211 25.8622C58.6211 26.8143 59.3929 27.5861 60.3451 27.5861Z" fill="#A8AAAE"/>
        <path d="M63.7933 27.5861C64.7454 27.5861 65.5173 26.8143 65.5173 25.8622C65.5173 24.91 64.7454 24.1382 63.7933 24.1382C62.8412 24.1382 62.0693 24.91 62.0693 25.8622C62.0693 26.8143 62.8412 27.5861 63.7933 27.5861Z" fill="#A8AAAE"/>
        <path d="M70.6898 27.5861C71.6419 27.5861 72.4138 26.8143 72.4138 25.8622C72.4138 24.91 71.6419 24.1382 70.6898 24.1382C69.7377 24.1382 68.9658 24.91 68.9658 25.8622C68.9658 26.8143 69.7377 27.5861 70.6898 27.5861Z" fill="#A8AAAE"/>
        <path d="M5.17221 31.0344C6.12433 31.0344 6.89618 30.2625 6.89618 29.3104C6.89618 28.3583 6.12433 27.5864 5.17221 27.5864C4.22009 27.5864 3.44824 28.3583 3.44824 29.3104C3.44824 30.2625 4.22009 31.0344 5.17221 31.0344Z" fill="#A8AAAE"/>
        <path d="M8.62045 31.0344C9.57257 31.0344 10.3444 30.2625 10.3444 29.3104C10.3444 28.3583 9.57257 27.5864 8.62045 27.5864C7.66833 27.5864 6.89648 28.3583 6.89648 29.3104C6.89648 30.2625 7.66833 31.0344 8.62045 31.0344Z" fill="#A8AAAE"/>
        <path d="M12.0687 31.0344C13.0208 31.0344 13.7927 30.2625 13.7927 29.3104C13.7927 28.3583 13.0208 27.5864 12.0687 27.5864C11.1166 27.5864 10.3447 28.3583 10.3447 29.3104C10.3447 30.2625 11.1166 31.0344 12.0687 31.0344Z" fill="#A8AAAE"/>
        <path d="M18.9657 31.0344C19.9178 31.0344 20.6896 30.2625 20.6896 29.3104C20.6896 28.3583 19.9178 27.5864 18.9657 27.5864C18.0135 27.5864 17.2417 28.3583 17.2417 29.3104C17.2417 30.2625 18.0135 31.0344 18.9657 31.0344Z" fill="#A8AAAE"/>
        <path d="M22.4139 31.0344C23.366 31.0344 24.1379 30.2625 24.1379 29.3104C24.1379 28.3583 23.366 27.5864 22.4139 27.5864C21.4618 27.5864 20.6899 28.3583 20.6899 29.3104C20.6899 30.2625 21.4618 31.0344 22.4139 31.0344Z" fill="#A8AAAE"/>
        <path d="M49.9998 31.0344C50.952 31.0344 51.7238 30.2625 51.7238 29.3104C51.7238 28.3583 50.952 27.5864 49.9998 27.5864C49.0477 27.5864 48.2759 28.3583 48.2759 29.3104C48.2759 30.2625 49.0477 31.0344 49.9998 31.0344Z" fill="#A8AAAE"/>
        <path d="M56.8968 31.0344C57.8489 31.0344 58.6208 30.2625 58.6208 29.3104C58.6208 28.3583 57.8489 27.5864 56.8968 27.5864C55.9447 27.5864 55.1729 28.3583 55.1729 29.3104C55.1729 30.2625 55.9447 31.0344 56.8968 31.0344Z" fill="#A8AAAE"/>
        <path d="M67.2415 31.0344C68.1937 31.0344 68.9655 30.2625 68.9655 29.3104C68.9655 28.3583 68.1937 27.5864 67.2415 27.5864C66.2894 27.5864 65.5176 28.3583 65.5176 29.3104C65.5176 30.2625 66.2894 31.0344 67.2415 31.0344Z" fill="#A8AAAE"/>
        <path d="M70.6898 31.0344C71.6419 31.0344 72.4138 30.2625 72.4138 29.3104C72.4138 28.3583 71.6419 27.5864 70.6898 27.5864C69.7377 27.5864 68.9658 28.3583 68.9658 29.3104C68.9658 30.2625 69.7377 31.0344 70.6898 31.0344Z" fill="#A8AAAE"/>
        <path d="M91.3792 31.0344C92.3314 31.0344 93.1032 30.2625 93.1032 29.3104C93.1032 28.3583 92.3314 27.5864 91.3792 27.5864C90.4271 27.5864 89.6553 28.3583 89.6553 29.3104C89.6553 30.2625 90.4271 31.0344 91.3792 31.0344Z" fill="#A8AAAE"/>
        <path d="M94.8275 31.0344C95.7796 31.0344 96.5514 30.2625 96.5514 29.3104C96.5514 28.3583 95.7796 27.5864 94.8275 27.5864C93.8754 27.5864 93.1035 28.3583 93.1035 29.3104C93.1035 30.2625 93.8754 31.0344 94.8275 31.0344Z" fill="#A8AAAE"/>
        <path d="M8.62045 34.4828C9.57257 34.4828 10.3444 33.711 10.3444 32.7589C10.3444 31.8068 9.57257 31.0349 8.62045 31.0349C7.66833 31.0349 6.89648 31.8068 6.89648 32.7589C6.89648 33.711 7.66833 34.4828 8.62045 34.4828Z" fill="#A8AAAE"/>
        <path d="M15.5174 34.4828C16.4695 34.4828 17.2414 33.711 17.2414 32.7589C17.2414 31.8068 16.4695 31.0349 15.5174 31.0349C14.5653 31.0349 13.7935 31.8068 13.7935 32.7589C13.7935 33.711 14.5653 34.4828 15.5174 34.4828Z" fill="#A8AAAE"/>
        <path d="M32.7586 34.4828C33.7108 34.4828 34.4826 33.711 34.4826 32.7589C34.4826 31.8068 33.7108 31.0349 32.7586 31.0349C31.8065 31.0349 31.0347 31.8068 31.0347 32.7589C31.0347 33.711 31.8065 34.4828 32.7586 34.4828Z" fill="#A8AAAE"/>
        <path d="M36.2069 34.4828C37.159 34.4828 37.9308 33.711 37.9308 32.7589C37.9308 31.8068 37.159 31.0349 36.2069 31.0349C35.2548 31.0349 34.4829 31.8068 34.4829 32.7589C34.4829 33.711 35.2548 34.4828 36.2069 34.4828Z" fill="#A8AAAE"/>
        <path d="M39.6551 34.4828C40.6072 34.4828 41.3791 33.711 41.3791 32.7589C41.3791 31.8068 40.6072 31.0349 39.6551 31.0349C38.703 31.0349 37.9312 31.8068 37.9312 32.7589C37.9312 33.711 38.703 34.4828 39.6551 34.4828Z" fill="#A8AAAE"/>
        <path d="M49.9998 34.4828C50.952 34.4828 51.7238 33.711 51.7238 32.7589C51.7238 31.8068 50.952 31.0349 49.9998 31.0349C49.0477 31.0349 48.2759 31.8068 48.2759 32.7589C48.2759 33.711 49.0477 34.4828 49.9998 34.4828Z" fill="#A8AAAE"/>
        <path d="M60.3451 34.4828C61.2972 34.4828 62.069 33.711 62.069 32.7589C62.069 31.8068 61.2972 31.0349 60.3451 31.0349C59.3929 31.0349 58.6211 31.8068 58.6211 32.7589C58.6211 33.711 59.3929 34.4828 60.3451 34.4828Z" fill="#A8AAAE"/>
        <path d="M77.5863 34.4828C78.5384 34.4828 79.3102 33.711 79.3102 32.7589C79.3102 31.8068 78.5384 31.0349 77.5863 31.0349C76.6341 31.0349 75.8623 31.8068 75.8623 32.7589C75.8623 33.711 76.6341 34.4828 77.5863 34.4828Z" fill="#A8AAAE"/>
        <path d="M94.8275 34.4828C95.7796 34.4828 96.5514 33.711 96.5514 32.7589C96.5514 31.8068 95.7796 31.0349 94.8275 31.0349C93.8754 31.0349 93.1035 31.8068 93.1035 32.7589C93.1035 33.711 93.8754 34.4828 94.8275 34.4828Z" fill="#A8AAAE"/>
        <path d="M98.2762 34.4828C99.2283 34.4828 100 33.711 100 32.7589C100 31.8068 99.2283 31.0349 98.2762 31.0349C97.3241 31.0349 96.5522 31.8068 96.5522 32.7589C96.5522 33.711 97.3241 34.4828 98.2762 34.4828Z" fill="#A8AAAE"/>
        <path d="M1.72397 37.9311C2.67609 37.9311 3.44794 37.1592 3.44794 36.2071C3.44794 35.255 2.67609 34.4832 1.72397 34.4832C0.771847 34.4832 0 35.255 0 36.2071C0 37.1592 0.771847 37.9311 1.72397 37.9311Z" fill="#A8AAAE"/>
        <path d="M5.17221 37.9311C6.12433 37.9311 6.89618 37.1592 6.89618 36.2071C6.89618 35.255 6.12433 34.4832 5.17221 34.4832C4.22009 34.4832 3.44824 35.255 3.44824 36.2071C3.44824 37.1592 4.22009 37.9311 5.17221 37.9311Z" fill="#A8AAAE"/>
        <path d="M12.0687 37.9311C13.0208 37.9311 13.7927 37.1592 13.7927 36.2071C13.7927 35.255 13.0208 34.4832 12.0687 34.4832C11.1166 34.4832 10.3447 35.255 10.3447 36.2071C10.3447 37.1592 11.1166 37.9311 12.0687 37.9311Z" fill="#A8AAAE"/>
        <path d="M18.9657 37.9311C19.9178 37.9311 20.6896 37.1592 20.6896 36.2071C20.6896 35.255 19.9178 34.4832 18.9657 34.4832C18.0135 34.4832 17.2417 35.255 17.2417 36.2071C17.2417 37.1592 18.0135 37.9311 18.9657 37.9311Z" fill="#A8AAAE"/>
        <path d="M22.4139 37.9311C23.366 37.9311 24.1379 37.1592 24.1379 36.2071C24.1379 35.255 23.366 34.4832 22.4139 34.4832C21.4618 34.4832 20.6899 35.255 20.6899 36.2071C20.6899 37.1592 21.4618 37.9311 22.4139 37.9311Z" fill="#A8AAAE"/>
        <path d="M25.8622 37.9311C26.8143 37.9311 27.5861 37.1592 27.5861 36.2071C27.5861 35.255 26.8143 34.4832 25.8622 34.4832C24.91 34.4832 24.1382 35.255 24.1382 36.2071C24.1382 37.1592 24.91 37.9311 25.8622 37.9311Z" fill="#A8AAAE"/>
        <path d="M32.7586 37.9311C33.7108 37.9311 34.4826 37.1592 34.4826 36.2071C34.4826 35.255 33.7108 34.4832 32.7586 34.4832C31.8065 34.4832 31.0347 35.255 31.0347 36.2071C31.0347 37.1592 31.8065 37.9311 32.7586 37.9311Z" fill="#A8AAAE"/>
        <path d="M43.1034 37.9311C44.0555 37.9311 44.8273 37.1592 44.8273 36.2071C44.8273 35.255 44.0555 34.4832 43.1034 34.4832C42.1512 34.4832 41.3794 35.255 41.3794 36.2071C41.3794 37.1592 42.1512 37.9311 43.1034 37.9311Z" fill="#A8AAAE"/>
        <path d="M46.5516 37.9311C47.5037 37.9311 48.2756 37.1592 48.2756 36.2071C48.2756 35.255 47.5037 34.4832 46.5516 34.4832C45.5995 34.4832 44.8276 35.255 44.8276 36.2071C44.8276 37.1592 45.5995 37.9311 46.5516 37.9311Z" fill="#A8AAAE"/>
        <path d="M53.4481 37.9311C54.4002 37.9311 55.1721 37.1592 55.1721 36.2071C55.1721 35.255 54.4002 34.4832 53.4481 34.4832C52.496 34.4832 51.7241 35.255 51.7241 36.2071C51.7241 37.1592 52.496 37.9311 53.4481 37.9311Z" fill="#A8AAAE"/>
        <path d="M56.8968 37.9311C57.8489 37.9311 58.6208 37.1592 58.6208 36.2071C58.6208 35.255 57.8489 34.4832 56.8968 34.4832C55.9447 34.4832 55.1729 35.255 55.1729 36.2071C55.1729 37.1592 55.9447 37.9311 56.8968 37.9311Z" fill="#A8AAAE"/>
        <path d="M60.3451 37.9311C61.2972 37.9311 62.069 37.1592 62.069 36.2071C62.069 35.255 61.2972 34.4832 60.3451 34.4832C59.3929 34.4832 58.6211 35.255 58.6211 36.2071C58.6211 37.1592 59.3929 37.9311 60.3451 37.9311Z" fill="#A8AAAE"/>
        <path d="M63.7933 37.9311C64.7454 37.9311 65.5173 37.1592 65.5173 36.2071C65.5173 35.255 64.7454 34.4832 63.7933 34.4832C62.8412 34.4832 62.0693 35.255 62.0693 36.2071C62.0693 37.1592 62.8412 37.9311 63.7933 37.9311Z" fill="#A8AAAE"/>
        <path d="M74.138 37.9311C75.0902 37.9311 75.862 37.1592 75.862 36.2071C75.862 35.255 75.0902 34.4832 74.138 34.4832C73.1859 34.4832 72.4141 35.255 72.4141 36.2071C72.4141 37.1592 73.1859 37.9311 74.138 37.9311Z" fill="#A8AAAE"/>
        <path d="M84.4828 37.9311C85.4349 37.9311 86.2067 37.1592 86.2067 36.2071C86.2067 35.255 85.4349 34.4832 84.4828 34.4832C83.5306 34.4832 82.7588 35.255 82.7588 36.2071C82.7588 37.1592 83.5306 37.9311 84.4828 37.9311Z" fill="#A8AAAE"/>
        <path d="M91.3792 37.9311C92.3314 37.9311 93.1032 37.1592 93.1032 36.2071C93.1032 35.255 92.3314 34.4832 91.3792 34.4832C90.4271 34.4832 89.6553 35.255 89.6553 36.2071C89.6553 37.1592 90.4271 37.9311 91.3792 37.9311Z" fill="#A8AAAE"/>
        <path d="M98.2762 37.9311C99.2283 37.9311 100 37.1592 100 36.2071C100 35.255 99.2283 34.4832 98.2762 34.4832C97.3241 34.4832 96.5522 35.255 96.5522 36.2071C96.5522 37.1592 97.3241 37.9311 98.2762 37.9311Z" fill="#A8AAAE"/>
        <path d="M1.72397 41.3791C2.67609 41.3791 3.44794 40.6072 3.44794 39.6551C3.44794 38.703 2.67609 37.9312 1.72397 37.9312C0.771847 37.9312 0 38.703 0 39.6551C0 40.6072 0.771847 41.3791 1.72397 41.3791Z" fill="#A8AAAE"/>
        <path d="M18.9657 41.3791C19.9178 41.3791 20.6896 40.6072 20.6896 39.6551C20.6896 38.703 19.9178 37.9312 18.9657 37.9312C18.0135 37.9312 17.2417 38.703 17.2417 39.6551C17.2417 40.6072 18.0135 41.3791 18.9657 41.3791Z" fill="#A8AAAE"/>
        <path d="M29.3104 41.3791C30.2625 41.3791 31.0344 40.6072 31.0344 39.6551C31.0344 38.703 30.2625 37.9312 29.3104 37.9312C28.3583 37.9312 27.5864 38.703 27.5864 39.6551C27.5864 40.6072 28.3583 41.3791 29.3104 41.3791Z" fill="#A8AAAE"/>
        <path d="M36.2069 41.3791C37.159 41.3791 37.9308 40.6072 37.9308 39.6551C37.9308 38.703 37.159 37.9312 36.2069 37.9312C35.2548 37.9312 34.4829 38.703 34.4829 39.6551C34.4829 40.6072 35.2548 41.3791 36.2069 41.3791Z" fill="#A8AAAE"/>
        <path d="M46.5516 41.3791C47.5037 41.3791 48.2756 40.6072 48.2756 39.6551C48.2756 38.703 47.5037 37.9312 46.5516 37.9312C45.5995 37.9312 44.8276 38.703 44.8276 39.6551C44.8276 40.6072 45.5995 41.3791 46.5516 41.3791Z" fill="#A8AAAE"/>
        <path d="M49.9998 41.3791C50.952 41.3791 51.7238 40.6072 51.7238 39.6551C51.7238 38.703 50.952 37.9312 49.9998 37.9312C49.0477 37.9312 48.2759 38.703 48.2759 39.6551C48.2759 40.6072 49.0477 41.3791 49.9998 41.3791Z" fill="#A8AAAE"/>
        <path d="M56.8968 41.3791C57.8489 41.3791 58.6208 40.6072 58.6208 39.6551C58.6208 38.703 57.8489 37.9312 56.8968 37.9312C55.9447 37.9312 55.1729 38.703 55.1729 39.6551C55.1729 40.6072 55.9447 41.3791 56.8968 41.3791Z" fill="#A8AAAE"/>
        <path d="M60.3451 41.3791C61.2972 41.3791 62.069 40.6072 62.069 39.6551C62.069 38.703 61.2972 37.9312 60.3451 37.9312C59.3929 37.9312 58.6211 38.703 58.6211 39.6551C58.6211 40.6072 59.3929 41.3791 60.3451 41.3791Z" fill="#A8AAAE"/>
        <path d="M63.7933 41.3791C64.7454 41.3791 65.5173 40.6072 65.5173 39.6551C65.5173 38.703 64.7454 37.9312 63.7933 37.9312C62.8412 37.9312 62.0693 38.703 62.0693 39.6551C62.0693 40.6072 62.8412 41.3791 63.7933 41.3791Z" fill="#A8AAAE"/>
        <path d="M67.2415 41.3791C68.1937 41.3791 68.9655 40.6072 68.9655 39.6551C68.9655 38.703 68.1937 37.9312 67.2415 37.9312C66.2894 37.9312 65.5176 38.703 65.5176 39.6551C65.5176 40.6072 66.2894 41.3791 67.2415 41.3791Z" fill="#A8AAAE"/>
        <path d="M74.138 41.3791C75.0902 41.3791 75.862 40.6072 75.862 39.6551C75.862 38.703 75.0902 37.9312 74.138 37.9312C73.1859 37.9312 72.4141 38.703 72.4141 39.6551C72.4141 40.6072 73.1859 41.3791 74.138 41.3791Z" fill="#A8AAAE"/>
        <path d="M77.5863 41.3791C78.5384 41.3791 79.3102 40.6072 79.3102 39.6551C79.3102 38.703 78.5384 37.9312 77.5863 37.9312C76.6341 37.9312 75.8623 38.703 75.8623 39.6551C75.8623 40.6072 76.6341 41.3791 77.5863 41.3791Z" fill="#A8AAAE"/>
        <path d="M81.0345 41.3791C81.9866 41.3791 82.7585 40.6072 82.7585 39.6551C82.7585 38.703 81.9866 37.9312 81.0345 37.9312C80.0824 37.9312 79.3105 38.703 79.3105 39.6551C79.3105 40.6072 80.0824 41.3791 81.0345 41.3791Z" fill="#A8AAAE"/>
        <path d="M84.4828 41.3791C85.4349 41.3791 86.2067 40.6072 86.2067 39.6551C86.2067 38.703 85.4349 37.9312 84.4828 37.9312C83.5306 37.9312 82.7588 38.703 82.7588 39.6551C82.7588 40.6072 83.5306 41.3791 84.4828 41.3791Z" fill="#A8AAAE"/>
        <path d="M91.3792 41.3791C92.3314 41.3791 93.1032 40.6072 93.1032 39.6551C93.1032 38.703 92.3314 37.9312 91.3792 37.9312C90.4271 37.9312 89.6553 38.703 89.6553 39.6551C89.6553 40.6072 90.4271 41.3791 91.3792 41.3791Z" fill="#A8AAAE"/>
        <path d="M98.2762 41.3791C99.2283 41.3791 100 40.6072 100 39.6551C100 38.703 99.2283 37.9312 98.2762 37.9312C97.3241 37.9312 96.5522 38.703 96.5522 39.6551C96.5522 40.6072 97.3241 41.3791 98.2762 41.3791Z" fill="#A8AAAE"/>
        <path d="M1.72397 44.8273C2.67609 44.8273 3.44794 44.0555 3.44794 43.1034C3.44794 42.1512 2.67609 41.3794 1.72397 41.3794C0.771847 41.3794 0 42.1512 0 43.1034C0 44.0555 0.771847 44.8273 1.72397 44.8273Z" fill="#A8AAAE"/>
        <path d="M8.62045 44.8273C9.57257 44.8273 10.3444 44.0555 10.3444 43.1034C10.3444 42.1512 9.57257 41.3794 8.62045 41.3794C7.66833 41.3794 6.89648 42.1512 6.89648 43.1034C6.89648 44.0555 7.66833 44.8273 8.62045 44.8273Z" fill="#A8AAAE"/>
        <path d="M22.4139 44.8273C23.366 44.8273 24.1379 44.0555 24.1379 43.1034C24.1379 42.1512 23.366 41.3794 22.4139 41.3794C21.4618 41.3794 20.6899 42.1512 20.6899 43.1034C20.6899 44.0555 21.4618 44.8273 22.4139 44.8273Z" fill="#A8AAAE"/>
        <path d="M29.3104 44.8273C30.2625 44.8273 31.0344 44.0555 31.0344 43.1034C31.0344 42.1512 30.2625 41.3794 29.3104 41.3794C28.3583 41.3794 27.5864 42.1512 27.5864 43.1034C27.5864 44.0555 28.3583 44.8273 29.3104 44.8273Z" fill="#A8AAAE"/>
        <path d="M32.7586 44.8273C33.7108 44.8273 34.4826 44.0555 34.4826 43.1034C34.4826 42.1512 33.7108 41.3794 32.7586 41.3794C31.8065 41.3794 31.0347 42.1512 31.0347 43.1034C31.0347 44.0555 31.8065 44.8273 32.7586 44.8273Z" fill="#A8AAAE"/>
        <path d="M36.2069 44.8273C37.159 44.8273 37.9308 44.0555 37.9308 43.1034C37.9308 42.1512 37.159 41.3794 36.2069 41.3794C35.2548 41.3794 34.4829 42.1512 34.4829 43.1034C34.4829 44.0555 35.2548 44.8273 36.2069 44.8273Z" fill="#A8AAAE"/>
        <path d="M39.6551 44.8273C40.6072 44.8273 41.3791 44.0555 41.3791 43.1034C41.3791 42.1512 40.6072 41.3794 39.6551 41.3794C38.703 41.3794 37.9312 42.1512 37.9312 43.1034C37.9312 44.0555 38.703 44.8273 39.6551 44.8273Z" fill="#A8AAAE"/>
        <path d="M53.4481 44.8273C54.4002 44.8273 55.1721 44.0555 55.1721 43.1034C55.1721 42.1512 54.4002 41.3794 53.4481 41.3794C52.496 41.3794 51.7241 42.1512 51.7241 43.1034C51.7241 44.0555 52.496 44.8273 53.4481 44.8273Z" fill="#A8AAAE"/>
        <path d="M56.8968 44.8273C57.8489 44.8273 58.6208 44.0555 58.6208 43.1034C58.6208 42.1512 57.8489 41.3794 56.8968 41.3794C55.9447 41.3794 55.1729 42.1512 55.1729 43.1034C55.1729 44.0555 55.9447 44.8273 56.8968 44.8273Z" fill="#A8AAAE"/>
        <path d="M70.6898 44.8273C71.6419 44.8273 72.4138 44.0555 72.4138 43.1034C72.4138 42.1512 71.6419 41.3794 70.6898 41.3794C69.7377 41.3794 68.9658 42.1512 68.9658 43.1034C68.9658 44.0555 69.7377 44.8273 70.6898 44.8273Z" fill="#A8AAAE"/>
        <path d="M77.5863 44.8273C78.5384 44.8273 79.3102 44.0555 79.3102 43.1034C79.3102 42.1512 78.5384 41.3794 77.5863 41.3794C76.6341 41.3794 75.8623 42.1512 75.8623 43.1034C75.8623 44.0555 76.6341 44.8273 77.5863 44.8273Z" fill="#A8AAAE"/>
        <path d="M81.0345 44.8273C81.9866 44.8273 82.7585 44.0555 82.7585 43.1034C82.7585 42.1512 81.9866 41.3794 81.0345 41.3794C80.0824 41.3794 79.3105 42.1512 79.3105 43.1034C79.3105 44.0555 80.0824 44.8273 81.0345 44.8273Z" fill="#A8AAAE"/>
        <path d="M91.3792 44.8273C92.3314 44.8273 93.1032 44.0555 93.1032 43.1034C93.1032 42.1512 92.3314 41.3794 91.3792 41.3794C90.4271 41.3794 89.6553 42.1512 89.6553 43.1034C89.6553 44.0555 90.4271 44.8273 91.3792 44.8273Z" fill="#A8AAAE"/>
        <path d="M94.8275 44.8273C95.7796 44.8273 96.5514 44.0555 96.5514 43.1034C96.5514 42.1512 95.7796 41.3794 94.8275 41.3794C93.8754 41.3794 93.1035 42.1512 93.1035 43.1034C93.1035 44.0555 93.8754 44.8273 94.8275 44.8273Z" fill="#A8AAAE"/>
        <path d="M5.17221 48.2756C6.12433 48.2756 6.89618 47.5037 6.89618 46.5516C6.89618 45.5995 6.12433 44.8276 5.17221 44.8276C4.22009 44.8276 3.44824 45.5995 3.44824 46.5516C3.44824 47.5037 4.22009 48.2756 5.17221 48.2756Z" fill="#A8AAAE"/>
        <path d="M12.0687 48.2756C13.0208 48.2756 13.7927 47.5037 13.7927 46.5516C13.7927 45.5995 13.0208 44.8276 12.0687 44.8276C11.1166 44.8276 10.3447 45.5995 10.3447 46.5516C10.3447 47.5037 11.1166 48.2756 12.0687 48.2756Z" fill="#A8AAAE"/>
        <path d="M15.5174 48.2756C16.4695 48.2756 17.2414 47.5037 17.2414 46.5516C17.2414 45.5995 16.4695 44.8276 15.5174 44.8276C14.5653 44.8276 13.7935 45.5995 13.7935 46.5516C13.7935 47.5037 14.5653 48.2756 15.5174 48.2756Z" fill="#A8AAAE"/>
        <path d="M32.7586 48.2756C33.7108 48.2756 34.4826 47.5037 34.4826 46.5516C34.4826 45.5995 33.7108 44.8276 32.7586 44.8276C31.8065 44.8276 31.0347 45.5995 31.0347 46.5516C31.0347 47.5037 31.8065 48.2756 32.7586 48.2756Z" fill="#A8AAAE"/>
        <path d="M39.6551 48.2756C40.6072 48.2756 41.3791 47.5037 41.3791 46.5516C41.3791 45.5995 40.6072 44.8276 39.6551 44.8276C38.703 44.8276 37.9312 45.5995 37.9312 46.5516C37.9312 47.5037 38.703 48.2756 39.6551 48.2756Z" fill="#A8AAAE"/>
        <path d="M53.4481 48.2756C54.4002 48.2756 55.1721 47.5037 55.1721 46.5516C55.1721 45.5995 54.4002 44.8276 53.4481 44.8276C52.496 44.8276 51.7241 45.5995 51.7241 46.5516C51.7241 47.5037 52.496 48.2756 53.4481 48.2756Z" fill="#A8AAAE"/>
        <path d="M56.8968 48.2756C57.8489 48.2756 58.6208 47.5037 58.6208 46.5516C58.6208 45.5995 57.8489 44.8276 56.8968 44.8276C55.9447 44.8276 55.1729 45.5995 55.1729 46.5516C55.1729 47.5037 55.9447 48.2756 56.8968 48.2756Z" fill="#A8AAAE"/>
        <path d="M63.7933 48.2756C64.7454 48.2756 65.5173 47.5037 65.5173 46.5516C65.5173 45.5995 64.7454 44.8276 63.7933 44.8276C62.8412 44.8276 62.0693 45.5995 62.0693 46.5516C62.0693 47.5037 62.8412 48.2756 63.7933 48.2756Z" fill="#A8AAAE"/>
        <path d="M67.2415 48.2756C68.1937 48.2756 68.9655 47.5037 68.9655 46.5516C68.9655 45.5995 68.1937 44.8276 67.2415 44.8276C66.2894 44.8276 65.5176 45.5995 65.5176 46.5516C65.5176 47.5037 66.2894 48.2756 67.2415 48.2756Z" fill="#A8AAAE"/>
        <path d="M70.6898 48.2756C71.6419 48.2756 72.4138 47.5037 72.4138 46.5516C72.4138 45.5995 71.6419 44.8276 70.6898 44.8276C69.7377 44.8276 68.9658 45.5995 68.9658 46.5516C68.9658 47.5037 69.7377 48.2756 70.6898 48.2756Z" fill="#A8AAAE"/>
        <path d="M74.138 48.2756C75.0902 48.2756 75.862 47.5037 75.862 46.5516C75.862 45.5995 75.0902 44.8276 74.138 44.8276C73.1859 44.8276 72.4141 45.5995 72.4141 46.5516C72.4141 47.5037 73.1859 48.2756 74.138 48.2756Z" fill="#A8AAAE"/>
        <path d="M81.0345 48.2756C81.9866 48.2756 82.7585 47.5037 82.7585 46.5516C82.7585 45.5995 81.9866 44.8276 81.0345 44.8276C80.0824 44.8276 79.3105 45.5995 79.3105 46.5516C79.3105 47.5037 80.0824 48.2756 81.0345 48.2756Z" fill="#A8AAAE"/>
        <path d="M84.4828 48.2756C85.4349 48.2756 86.2067 47.5037 86.2067 46.5516C86.2067 45.5995 85.4349 44.8276 84.4828 44.8276C83.5306 44.8276 82.7588 45.5995 82.7588 46.5516C82.7588 47.5037 83.5306 48.2756 84.4828 48.2756Z" fill="#A8AAAE"/>
        <path d="M91.3792 48.2756C92.3314 48.2756 93.1032 47.5037 93.1032 46.5516C93.1032 45.5995 92.3314 44.8276 91.3792 44.8276C90.4271 44.8276 89.6553 45.5995 89.6553 46.5516C89.6553 47.5037 90.4271 48.2756 91.3792 48.2756Z" fill="#A8AAAE"/>
        <path d="M98.2762 48.2756C99.2283 48.2756 100 47.5037 100 46.5516C100 45.5995 99.2283 44.8276 98.2762 44.8276C97.3241 44.8276 96.5522 45.5995 96.5522 46.5516C96.5522 47.5037 97.3241 48.2756 98.2762 48.2756Z" fill="#A8AAAE"/>
        <path d="M8.62045 51.7241C9.57257 51.7241 10.3444 50.9522 10.3444 50.0001C10.3444 49.048 9.57257 48.2761 8.62045 48.2761C7.66833 48.2761 6.89648 49.048 6.89648 50.0001C6.89648 50.9522 7.66833 51.7241 8.62045 51.7241Z" fill="#A8AAAE"/>
        <path d="M12.0687 51.7241C13.0208 51.7241 13.7927 50.9522 13.7927 50.0001C13.7927 49.048 13.0208 48.2761 12.0687 48.2761C11.1166 48.2761 10.3447 49.048 10.3447 50.0001C10.3447 50.9522 11.1166 51.7241 12.0687 51.7241Z" fill="#A8AAAE"/>
        <path d="M18.9657 51.7241C19.9178 51.7241 20.6896 50.9522 20.6896 50.0001C20.6896 49.048 19.9178 48.2761 18.9657 48.2761C18.0135 48.2761 17.2417 49.048 17.2417 50.0001C17.2417 50.9522 18.0135 51.7241 18.9657 51.7241Z" fill="#A8AAAE"/>
        <path d="M22.4139 51.7241C23.366 51.7241 24.1379 50.9522 24.1379 50.0001C24.1379 49.048 23.366 48.2761 22.4139 48.2761C21.4618 48.2761 20.6899 49.048 20.6899 50.0001C20.6899 50.9522 21.4618 51.7241 22.4139 51.7241Z" fill="#A8AAAE"/>
        <path d="M29.3104 51.7241C30.2625 51.7241 31.0344 50.9522 31.0344 50.0001C31.0344 49.048 30.2625 48.2761 29.3104 48.2761C28.3583 48.2761 27.5864 49.048 27.5864 50.0001C27.5864 50.9522 28.3583 51.7241 29.3104 51.7241Z" fill="#A8AAAE"/>
        <path d="M32.7586 51.7241C33.7108 51.7241 34.4826 50.9522 34.4826 50.0001C34.4826 49.048 33.7108 48.2761 32.7586 48.2761C31.8065 48.2761 31.0347 49.048 31.0347 50.0001C31.0347 50.9522 31.8065 51.7241 32.7586 51.7241Z" fill="#A8AAAE"/>
        <path d="M36.2069 51.7241C37.159 51.7241 37.9308 50.9522 37.9308 50.0001C37.9308 49.048 37.159 48.2761 36.2069 48.2761C35.2548 48.2761 34.4829 49.048 34.4829 50.0001C34.4829 50.9522 35.2548 51.7241 36.2069 51.7241Z" fill="#A8AAAE"/>
        <path d="M46.5516 51.7241C47.5037 51.7241 48.2756 50.9522 48.2756 50.0001C48.2756 49.048 47.5037 48.2761 46.5516 48.2761C45.5995 48.2761 44.8276 49.048 44.8276 50.0001C44.8276 50.9522 45.5995 51.7241 46.5516 51.7241Z" fill="#A8AAAE"/>
        <path d="M49.9998 51.7241C50.952 51.7241 51.7238 50.9522 51.7238 50.0001C51.7238 49.048 50.952 48.2761 49.9998 48.2761C49.0477 48.2761 48.2759 49.048 48.2759 50.0001C48.2759 50.9522 49.0477 51.7241 49.9998 51.7241Z" fill="#A8AAAE"/>
        <path d="M53.4481 51.7241C54.4002 51.7241 55.1721 50.9522 55.1721 50.0001C55.1721 49.048 54.4002 48.2761 53.4481 48.2761C52.496 48.2761 51.7241 49.048 51.7241 50.0001C51.7241 50.9522 52.496 51.7241 53.4481 51.7241Z" fill="#A8AAAE"/>
        <path d="M60.3451 51.7241C61.2972 51.7241 62.069 50.9522 62.069 50.0001C62.069 49.048 61.2972 48.2761 60.3451 48.2761C59.3929 48.2761 58.6211 49.048 58.6211 50.0001C58.6211 50.9522 59.3929 51.7241 60.3451 51.7241Z" fill="#A8AAAE"/>
        <path d="M63.7933 51.7241C64.7454 51.7241 65.5173 50.9522 65.5173 50.0001C65.5173 49.048 64.7454 48.2761 63.7933 48.2761C62.8412 48.2761 62.0693 49.048 62.0693 50.0001C62.0693 50.9522 62.8412 51.7241 63.7933 51.7241Z" fill="#A8AAAE"/>
        <path d="M98.2762 51.7241C99.2283 51.7241 100 50.9522 100 50.0001C100 49.048 99.2283 48.2761 98.2762 48.2761C97.3241 48.2761 96.5522 49.048 96.5522 50.0001C96.5522 50.9522 97.3241 51.7241 98.2762 51.7241Z" fill="#A8AAAE"/>
        <path d="M1.72397 55.1723C2.67609 55.1723 3.44794 54.4005 3.44794 53.4483C3.44794 52.4962 2.67609 51.7244 1.72397 51.7244C0.771847 51.7244 0 52.4962 0 53.4483C0 54.4005 0.771847 55.1723 1.72397 55.1723Z" fill="#A8AAAE"/>
        <path d="M8.62045 55.1723C9.57257 55.1723 10.3444 54.4005 10.3444 53.4483C10.3444 52.4962 9.57257 51.7244 8.62045 51.7244C7.66833 51.7244 6.89648 52.4962 6.89648 53.4483C6.89648 54.4005 7.66833 55.1723 8.62045 55.1723Z" fill="#A8AAAE"/>
        <path d="M12.0687 55.1723C13.0208 55.1723 13.7927 54.4005 13.7927 53.4483C13.7927 52.4962 13.0208 51.7244 12.0687 51.7244C11.1166 51.7244 10.3447 52.4962 10.3447 53.4483C10.3447 54.4005 11.1166 55.1723 12.0687 55.1723Z" fill="#A8AAAE"/>
        <path d="M15.5174 55.1723C16.4695 55.1723 17.2414 54.4005 17.2414 53.4483C17.2414 52.4962 16.4695 51.7244 15.5174 51.7244C14.5653 51.7244 13.7935 52.4962 13.7935 53.4483C13.7935 54.4005 14.5653 55.1723 15.5174 55.1723Z" fill="#A8AAAE"/>
        <path d="M18.9657 55.1723C19.9178 55.1723 20.6896 54.4005 20.6896 53.4483C20.6896 52.4962 19.9178 51.7244 18.9657 51.7244C18.0135 51.7244 17.2417 52.4962 17.2417 53.4483C17.2417 54.4005 18.0135 55.1723 18.9657 55.1723Z" fill="#A8AAAE"/>
        <path d="M25.8622 55.1723C26.8143 55.1723 27.5861 54.4005 27.5861 53.4483C27.5861 52.4962 26.8143 51.7244 25.8622 51.7244C24.91 51.7244 24.1382 52.4962 24.1382 53.4483C24.1382 54.4005 24.91 55.1723 25.8622 55.1723Z" fill="#A8AAAE"/>
        <path d="M29.3104 55.1723C30.2625 55.1723 31.0344 54.4005 31.0344 53.4483C31.0344 52.4962 30.2625 51.7244 29.3104 51.7244C28.3583 51.7244 27.5864 52.4962 27.5864 53.4483C27.5864 54.4005 28.3583 55.1723 29.3104 55.1723Z" fill="#A8AAAE"/>
        <path d="M32.7586 55.1723C33.7108 55.1723 34.4826 54.4005 34.4826 53.4483C34.4826 52.4962 33.7108 51.7244 32.7586 51.7244C31.8065 51.7244 31.0347 52.4962 31.0347 53.4483C31.0347 54.4005 31.8065 55.1723 32.7586 55.1723Z" fill="#A8AAAE"/>
        <path d="M36.2069 55.1723C37.159 55.1723 37.9308 54.4005 37.9308 53.4483C37.9308 52.4962 37.159 51.7244 36.2069 51.7244C35.2548 51.7244 34.4829 52.4962 34.4829 53.4483C34.4829 54.4005 35.2548 55.1723 36.2069 55.1723Z" fill="#A8AAAE"/>
        <path d="M43.1034 55.1723C44.0555 55.1723 44.8273 54.4005 44.8273 53.4483C44.8273 52.4962 44.0555 51.7244 43.1034 51.7244C42.1512 51.7244 41.3794 52.4962 41.3794 53.4483C41.3794 54.4005 42.1512 55.1723 43.1034 55.1723Z" fill="#A8AAAE"/>
        <path d="M46.5516 55.1723C47.5037 55.1723 48.2756 54.4005 48.2756 53.4483C48.2756 52.4962 47.5037 51.7244 46.5516 51.7244C45.5995 51.7244 44.8276 52.4962 44.8276 53.4483C44.8276 54.4005 45.5995 55.1723 46.5516 55.1723Z" fill="#A8AAAE"/>
        <path d="M49.9998 55.1723C50.952 55.1723 51.7238 54.4005 51.7238 53.4483C51.7238 52.4962 50.952 51.7244 49.9998 51.7244C49.0477 51.7244 48.2759 52.4962 48.2759 53.4483C48.2759 54.4005 49.0477 55.1723 49.9998 55.1723Z" fill="#A8AAAE"/>
        <path d="M60.3451 55.1723C61.2972 55.1723 62.069 54.4005 62.069 53.4483C62.069 52.4962 61.2972 51.7244 60.3451 51.7244C59.3929 51.7244 58.6211 52.4962 58.6211 53.4483C58.6211 54.4005 59.3929 55.1723 60.3451 55.1723Z" fill="#A8AAAE"/>
        <path d="M63.7933 55.1723C64.7454 55.1723 65.5173 54.4005 65.5173 53.4483C65.5173 52.4962 64.7454 51.7244 63.7933 51.7244C62.8412 51.7244 62.0693 52.4962 62.0693 53.4483C62.0693 54.4005 62.8412 55.1723 63.7933 55.1723Z" fill="#A8AAAE"/>
        <path d="M74.138 55.1723C75.0902 55.1723 75.862 54.4005 75.862 53.4483C75.862 52.4962 75.0902 51.7244 74.138 51.7244C73.1859 51.7244 72.4141 52.4962 72.4141 53.4483C72.4141 54.4005 73.1859 55.1723 74.138 55.1723Z" fill="#A8AAAE"/>
        <path d="M84.4828 55.1723C85.4349 55.1723 86.2067 54.4005 86.2067 53.4483C86.2067 52.4962 85.4349 51.7244 84.4828 51.7244C83.5306 51.7244 82.7588 52.4962 82.7588 53.4483C82.7588 54.4005 83.5306 55.1723 84.4828 55.1723Z" fill="#A8AAAE"/>
        <path d="M87.931 55.1723C88.8831 55.1723 89.655 54.4005 89.655 53.4483C89.655 52.4962 88.8831 51.7244 87.931 51.7244C86.9789 51.7244 86.207 52.4962 86.207 53.4483C86.207 54.4005 86.9789 55.1723 87.931 55.1723Z" fill="#A8AAAE"/>
        <path d="M91.3792 55.1723C92.3314 55.1723 93.1032 54.4005 93.1032 53.4483C93.1032 52.4962 92.3314 51.7244 91.3792 51.7244C90.4271 51.7244 89.6553 52.4962 89.6553 53.4483C89.6553 54.4005 90.4271 55.1723 91.3792 55.1723Z" fill="#A8AAAE"/>
        <path d="M5.17221 58.6205C6.12433 58.6205 6.89618 57.8487 6.89618 56.8966C6.89618 55.9445 6.12433 55.1726 5.17221 55.1726C4.22009 55.1726 3.44824 55.9445 3.44824 56.8966C3.44824 57.8487 4.22009 58.6205 5.17221 58.6205Z" fill="#A8AAAE"/>
        <path d="M22.4139 58.6205C23.366 58.6205 24.1379 57.8487 24.1379 56.8966C24.1379 55.9445 23.366 55.1726 22.4139 55.1726C21.4618 55.1726 20.6899 55.9445 20.6899 56.8966C20.6899 57.8487 21.4618 58.6205 22.4139 58.6205Z" fill="#A8AAAE"/>
        <path d="M29.3104 58.6205C30.2625 58.6205 31.0344 57.8487 31.0344 56.8966C31.0344 55.9445 30.2625 55.1726 29.3104 55.1726C28.3583 55.1726 27.5864 55.9445 27.5864 56.8966C27.5864 57.8487 28.3583 58.6205 29.3104 58.6205Z" fill="#A8AAAE"/>
        <path d="M32.7586 58.6205C33.7108 58.6205 34.4826 57.8487 34.4826 56.8966C34.4826 55.9445 33.7108 55.1726 32.7586 55.1726C31.8065 55.1726 31.0347 55.9445 31.0347 56.8966C31.0347 57.8487 31.8065 58.6205 32.7586 58.6205Z" fill="#A8AAAE"/>
        <path d="M46.5516 58.6205C47.5037 58.6205 48.2756 57.8487 48.2756 56.8966C48.2756 55.9445 47.5037 55.1726 46.5516 55.1726C45.5995 55.1726 44.8276 55.9445 44.8276 56.8966C44.8276 57.8487 45.5995 58.6205 46.5516 58.6205Z" fill="#A8AAAE"/>
        <path d="M56.8968 58.6205C57.8489 58.6205 58.6208 57.8487 58.6208 56.8966C58.6208 55.9445 57.8489 55.1726 56.8968 55.1726C55.9447 55.1726 55.1729 55.9445 55.1729 56.8966C55.1729 57.8487 55.9447 58.6205 56.8968 58.6205Z" fill="#A8AAAE"/>
        <path d="M60.3451 58.6205C61.2972 58.6205 62.069 57.8487 62.069 56.8966C62.069 55.9445 61.2972 55.1726 60.3451 55.1726C59.3929 55.1726 58.6211 55.9445 58.6211 56.8966C58.6211 57.8487 59.3929 58.6205 60.3451 58.6205Z" fill="#A8AAAE"/>
        <path d="M63.7933 58.6205C64.7454 58.6205 65.5173 57.8487 65.5173 56.8966C65.5173 55.9445 64.7454 55.1726 63.7933 55.1726C62.8412 55.1726 62.0693 55.9445 62.0693 56.8966C62.0693 57.8487 62.8412 58.6205 63.7933 58.6205Z" fill="#A8AAAE"/>
        <path d="M70.6898 58.6205C71.6419 58.6205 72.4138 57.8487 72.4138 56.8966C72.4138 55.9445 71.6419 55.1726 70.6898 55.1726C69.7377 55.1726 68.9658 55.9445 68.9658 56.8966C68.9658 57.8487 69.7377 58.6205 70.6898 58.6205Z" fill="#A8AAAE"/>
        <path d="M77.5863 58.6205C78.5384 58.6205 79.3102 57.8487 79.3102 56.8966C79.3102 55.9445 78.5384 55.1726 77.5863 55.1726C76.6341 55.1726 75.8623 55.9445 75.8623 56.8966C75.8623 57.8487 76.6341 58.6205 77.5863 58.6205Z" fill="#A8AAAE"/>
        <path d="M81.0345 58.6205C81.9866 58.6205 82.7585 57.8487 82.7585 56.8966C82.7585 55.9445 81.9866 55.1726 81.0345 55.1726C80.0824 55.1726 79.3105 55.9445 79.3105 56.8966C79.3105 57.8487 80.0824 58.6205 81.0345 58.6205Z" fill="#A8AAAE"/>
        <path d="M84.4828 58.6205C85.4349 58.6205 86.2067 57.8487 86.2067 56.8966C86.2067 55.9445 85.4349 55.1726 84.4828 55.1726C83.5306 55.1726 82.7588 55.9445 82.7588 56.8966C82.7588 57.8487 83.5306 58.6205 84.4828 58.6205Z" fill="#A8AAAE"/>
        <path d="M87.931 58.6205C88.8831 58.6205 89.655 57.8487 89.655 56.8966C89.655 55.9445 88.8831 55.1726 87.931 55.1726C86.9789 55.1726 86.207 55.9445 86.207 56.8966C86.207 57.8487 86.9789 58.6205 87.931 58.6205Z" fill="#A8AAAE"/>
        <path d="M91.3792 58.6205C92.3314 58.6205 93.1032 57.8487 93.1032 56.8966C93.1032 55.9445 92.3314 55.1726 91.3792 55.1726C90.4271 55.1726 89.6553 55.9445 89.6553 56.8966C89.6553 57.8487 90.4271 58.6205 91.3792 58.6205Z" fill="#A8AAAE"/>
        <path d="M5.17221 62.069C6.12433 62.069 6.89618 61.2972 6.89618 60.3451C6.89618 59.3929 6.12433 58.6211 5.17221 58.6211C4.22009 58.6211 3.44824 59.3929 3.44824 60.3451C3.44824 61.2972 4.22009 62.069 5.17221 62.069Z" fill="#A8AAAE"/>
        <path d="M8.62045 62.069C9.57257 62.069 10.3444 61.2972 10.3444 60.3451C10.3444 59.3929 9.57257 58.6211 8.62045 58.6211C7.66833 58.6211 6.89648 59.3929 6.89648 60.3451C6.89648 61.2972 7.66833 62.069 8.62045 62.069Z" fill="#A8AAAE"/>
        <path d="M12.0687 62.069C13.0208 62.069 13.7927 61.2972 13.7927 60.3451C13.7927 59.3929 13.0208 58.6211 12.0687 58.6211C11.1166 58.6211 10.3447 59.3929 10.3447 60.3451C10.3447 61.2972 11.1166 62.069 12.0687 62.069Z" fill="#A8AAAE"/>
        <path d="M18.9657 62.069C19.9178 62.069 20.6896 61.2972 20.6896 60.3451C20.6896 59.3929 19.9178 58.6211 18.9657 58.6211C18.0135 58.6211 17.2417 59.3929 17.2417 60.3451C17.2417 61.2972 18.0135 62.069 18.9657 62.069Z" fill="#A8AAAE"/>
        <path d="M25.8622 62.069C26.8143 62.069 27.5861 61.2972 27.5861 60.3451C27.5861 59.3929 26.8143 58.6211 25.8622 58.6211C24.91 58.6211 24.1382 59.3929 24.1382 60.3451C24.1382 61.2972 24.91 62.069 25.8622 62.069Z" fill="#A8AAAE"/>
        <path d="M29.3104 62.069C30.2625 62.069 31.0344 61.2972 31.0344 60.3451C31.0344 59.3929 30.2625 58.6211 29.3104 58.6211C28.3583 58.6211 27.5864 59.3929 27.5864 60.3451C27.5864 61.2972 28.3583 62.069 29.3104 62.069Z" fill="#A8AAAE"/>
        <path d="M39.6551 62.069C40.6072 62.069 41.3791 61.2972 41.3791 60.3451C41.3791 59.3929 40.6072 58.6211 39.6551 58.6211C38.703 58.6211 37.9312 59.3929 37.9312 60.3451C37.9312 61.2972 38.703 62.069 39.6551 62.069Z" fill="#A8AAAE"/>
        <path d="M43.1034 62.069C44.0555 62.069 44.8273 61.2972 44.8273 60.3451C44.8273 59.3929 44.0555 58.6211 43.1034 58.6211C42.1512 58.6211 41.3794 59.3929 41.3794 60.3451C41.3794 61.2972 42.1512 62.069 43.1034 62.069Z" fill="#A8AAAE"/>
        <path d="M46.5516 62.069C47.5037 62.069 48.2756 61.2972 48.2756 60.3451C48.2756 59.3929 47.5037 58.6211 46.5516 58.6211C45.5995 58.6211 44.8276 59.3929 44.8276 60.3451C44.8276 61.2972 45.5995 62.069 46.5516 62.069Z" fill="#A8AAAE"/>
        <path d="M56.8968 62.069C57.8489 62.069 58.6208 61.2972 58.6208 60.3451C58.6208 59.3929 57.8489 58.6211 56.8968 58.6211C55.9447 58.6211 55.1729 59.3929 55.1729 60.3451C55.1729 61.2972 55.9447 62.069 56.8968 62.069Z" fill="#A8AAAE"/>
        <path d="M67.2415 62.069C68.1937 62.069 68.9655 61.2972 68.9655 60.3451C68.9655 59.3929 68.1937 58.6211 67.2415 58.6211C66.2894 58.6211 65.5176 59.3929 65.5176 60.3451C65.5176 61.2972 66.2894 62.069 67.2415 62.069Z" fill="#A8AAAE"/>
        <path d="M70.6898 62.069C71.6419 62.069 72.4138 61.2972 72.4138 60.3451C72.4138 59.3929 71.6419 58.6211 70.6898 58.6211C69.7377 58.6211 68.9658 59.3929 68.9658 60.3451C68.9658 61.2972 69.7377 62.069 70.6898 62.069Z" fill="#A8AAAE"/>
        <path d="M77.5863 62.069C78.5384 62.069 79.3102 61.2972 79.3102 60.3451C79.3102 59.3929 78.5384 58.6211 77.5863 58.6211C76.6341 58.6211 75.8623 59.3929 75.8623 60.3451C75.8623 61.2972 76.6341 62.069 77.5863 62.069Z" fill="#A8AAAE"/>
        <path d="M81.0345 62.069C81.9866 62.069 82.7585 61.2972 82.7585 60.3451C82.7585 59.3929 81.9866 58.6211 81.0345 58.6211C80.0824 58.6211 79.3105 59.3929 79.3105 60.3451C79.3105 61.2972 80.0824 62.069 81.0345 62.069Z" fill="#A8AAAE"/>
        <path d="M84.4828 62.069C85.4349 62.069 86.2067 61.2972 86.2067 60.3451C86.2067 59.3929 85.4349 58.6211 84.4828 58.6211C83.5306 58.6211 82.7588 59.3929 82.7588 60.3451C82.7588 61.2972 83.5306 62.069 84.4828 62.069Z" fill="#A8AAAE"/>
        <path d="M87.931 62.069C88.8831 62.069 89.655 61.2972 89.655 60.3451C89.655 59.3929 88.8831 58.6211 87.931 58.6211C86.9789 58.6211 86.207 59.3929 86.207 60.3451C86.207 61.2972 86.9789 62.069 87.931 62.069Z" fill="#A8AAAE"/>
        <path d="M94.8275 62.069C95.7796 62.069 96.5514 61.2972 96.5514 60.3451C96.5514 59.3929 95.7796 58.6211 94.8275 58.6211C93.8754 58.6211 93.1035 59.3929 93.1035 60.3451C93.1035 61.2972 93.8754 62.069 94.8275 62.069Z" fill="#A8AAAE"/>
        <path d="M98.2762 62.069C99.2283 62.069 100 61.2972 100 60.3451C100 59.3929 99.2283 58.6211 98.2762 58.6211C97.3241 58.6211 96.5522 59.3929 96.5522 60.3451C96.5522 61.2972 97.3241 62.069 98.2762 62.069Z" fill="#A8AAAE"/>
        <path d="M1.72397 65.5173C2.67609 65.5173 3.44794 64.7454 3.44794 63.7933C3.44794 62.8412 2.67609 62.0693 1.72397 62.0693C0.771847 62.0693 0 62.8412 0 63.7933C0 64.7454 0.771847 65.5173 1.72397 65.5173Z" fill="#A8AAAE"/>
        <path d="M8.62045 65.5173C9.57257 65.5173 10.3444 64.7454 10.3444 63.7933C10.3444 62.8412 9.57257 62.0693 8.62045 62.0693C7.66833 62.0693 6.89648 62.8412 6.89648 63.7933C6.89648 64.7454 7.66833 65.5173 8.62045 65.5173Z" fill="#A8AAAE"/>
        <path d="M12.0687 65.5173C13.0208 65.5173 13.7927 64.7454 13.7927 63.7933C13.7927 62.8412 13.0208 62.0693 12.0687 62.0693C11.1166 62.0693 10.3447 62.8412 10.3447 63.7933C10.3447 64.7454 11.1166 65.5173 12.0687 65.5173Z" fill="#A8AAAE"/>
        <path d="M22.4139 65.5173C23.366 65.5173 24.1379 64.7454 24.1379 63.7933C24.1379 62.8412 23.366 62.0693 22.4139 62.0693C21.4618 62.0693 20.6899 62.8412 20.6899 63.7933C20.6899 64.7454 21.4618 65.5173 22.4139 65.5173Z" fill="#A8AAAE"/>
        <path d="M25.8622 65.5173C26.8143 65.5173 27.5861 64.7454 27.5861 63.7933C27.5861 62.8412 26.8143 62.0693 25.8622 62.0693C24.91 62.0693 24.1382 62.8412 24.1382 63.7933C24.1382 64.7454 24.91 65.5173 25.8622 65.5173Z" fill="#A8AAAE"/>
        <path d="M29.3104 65.5173C30.2625 65.5173 31.0344 64.7454 31.0344 63.7933C31.0344 62.8412 30.2625 62.0693 29.3104 62.0693C28.3583 62.0693 27.5864 62.8412 27.5864 63.7933C27.5864 64.7454 28.3583 65.5173 29.3104 65.5173Z" fill="#A8AAAE"/>
        <path d="M32.7586 65.5173C33.7108 65.5173 34.4826 64.7454 34.4826 63.7933C34.4826 62.8412 33.7108 62.0693 32.7586 62.0693C31.8065 62.0693 31.0347 62.8412 31.0347 63.7933C31.0347 64.7454 31.8065 65.5173 32.7586 65.5173Z" fill="#A8AAAE"/>
        <path d="M36.2069 65.5173C37.159 65.5173 37.9308 64.7454 37.9308 63.7933C37.9308 62.8412 37.159 62.0693 36.2069 62.0693C35.2548 62.0693 34.4829 62.8412 34.4829 63.7933C34.4829 64.7454 35.2548 65.5173 36.2069 65.5173Z" fill="#A8AAAE"/>
        <path d="M46.5516 65.5173C47.5037 65.5173 48.2756 64.7454 48.2756 63.7933C48.2756 62.8412 47.5037 62.0693 46.5516 62.0693C45.5995 62.0693 44.8276 62.8412 44.8276 63.7933C44.8276 64.7454 45.5995 65.5173 46.5516 65.5173Z" fill="#A8AAAE"/>
        <path d="M53.4481 65.5173C54.4002 65.5173 55.1721 64.7454 55.1721 63.7933C55.1721 62.8412 54.4002 62.0693 53.4481 62.0693C52.496 62.0693 51.7241 62.8412 51.7241 63.7933C51.7241 64.7454 52.496 65.5173 53.4481 65.5173Z" fill="#A8AAAE"/>
        <path d="M56.8968 65.5173C57.8489 65.5173 58.6208 64.7454 58.6208 63.7933C58.6208 62.8412 57.8489 62.0693 56.8968 62.0693C55.9447 62.0693 55.1729 62.8412 55.1729 63.7933C55.1729 64.7454 55.9447 65.5173 56.8968 65.5173Z" fill="#A8AAAE"/>
        <path d="M63.7933 65.5173C64.7454 65.5173 65.5173 64.7454 65.5173 63.7933C65.5173 62.8412 64.7454 62.0693 63.7933 62.0693C62.8412 62.0693 62.0693 62.8412 62.0693 63.7933C62.0693 64.7454 62.8412 65.5173 63.7933 65.5173Z" fill="#A8AAAE"/>
        <path d="M67.2415 65.5173C68.1937 65.5173 68.9655 64.7454 68.9655 63.7933C68.9655 62.8412 68.1937 62.0693 67.2415 62.0693C66.2894 62.0693 65.5176 62.8412 65.5176 63.7933C65.5176 64.7454 66.2894 65.5173 67.2415 65.5173Z" fill="#A8AAAE"/>
        <path d="M74.138 65.5173C75.0902 65.5173 75.862 64.7454 75.862 63.7933C75.862 62.8412 75.0902 62.0693 74.138 62.0693C73.1859 62.0693 72.4141 62.8412 72.4141 63.7933C72.4141 64.7454 73.1859 65.5173 74.138 65.5173Z" fill="#A8AAAE"/>
        <path d="M84.4828 65.5173C85.4349 65.5173 86.2067 64.7454 86.2067 63.7933C86.2067 62.8412 85.4349 62.0693 84.4828 62.0693C83.5306 62.0693 82.7588 62.8412 82.7588 63.7933C82.7588 64.7454 83.5306 65.5173 84.4828 65.5173Z" fill="#A8AAAE"/>
        <path d="M91.3792 65.5173C92.3314 65.5173 93.1032 64.7454 93.1032 63.7933C93.1032 62.8412 92.3314 62.0693 91.3792 62.0693C90.4271 62.0693 89.6553 62.8412 89.6553 63.7933C89.6553 64.7454 90.4271 65.5173 91.3792 65.5173Z" fill="#A8AAAE"/>
        <path d="M98.2762 65.5173C99.2283 65.5173 100 64.7454 100 63.7933C100 62.8412 99.2283 62.0693 98.2762 62.0693C97.3241 62.0693 96.5522 62.8412 96.5522 63.7933C96.5522 64.7454 97.3241 65.5173 98.2762 65.5173Z" fill="#A8AAAE"/>
        <path d="M8.62045 68.9655C9.57257 68.9655 10.3444 68.1937 10.3444 67.2415C10.3444 66.2894 9.57257 65.5176 8.62045 65.5176C7.66833 65.5176 6.89648 66.2894 6.89648 67.2415C6.89648 68.1937 7.66833 68.9655 8.62045 68.9655Z" fill="#A8AAAE"/>
        <path d="M12.0687 68.9655C13.0208 68.9655 13.7927 68.1937 13.7927 67.2415C13.7927 66.2894 13.0208 65.5176 12.0687 65.5176C11.1166 65.5176 10.3447 66.2894 10.3447 67.2415C10.3447 68.1937 11.1166 68.9655 12.0687 68.9655Z" fill="#A8AAAE"/>
        <path d="M15.5174 68.9655C16.4695 68.9655 17.2414 68.1937 17.2414 67.2415C17.2414 66.2894 16.4695 65.5176 15.5174 65.5176C14.5653 65.5176 13.7935 66.2894 13.7935 67.2415C13.7935 68.1937 14.5653 68.9655 15.5174 68.9655Z" fill="#A8AAAE"/>
        <path d="M18.9657 68.9655C19.9178 68.9655 20.6896 68.1937 20.6896 67.2415C20.6896 66.2894 19.9178 65.5176 18.9657 65.5176C18.0135 65.5176 17.2417 66.2894 17.2417 67.2415C17.2417 68.1937 18.0135 68.9655 18.9657 68.9655Z" fill="#A8AAAE"/>
        <path d="M39.6551 68.9655C40.6072 68.9655 41.3791 68.1937 41.3791 67.2415C41.3791 66.2894 40.6072 65.5176 39.6551 65.5176C38.703 65.5176 37.9312 66.2894 37.9312 67.2415C37.9312 68.1937 38.703 68.9655 39.6551 68.9655Z" fill="#A8AAAE"/>
        <path d="M43.1034 68.9655C44.0555 68.9655 44.8273 68.1937 44.8273 67.2415C44.8273 66.2894 44.0555 65.5176 43.1034 65.5176C42.1512 65.5176 41.3794 66.2894 41.3794 67.2415C41.3794 68.1937 42.1512 68.9655 43.1034 68.9655Z" fill="#A8AAAE"/>
        <path d="M49.9998 68.9655C50.952 68.9655 51.7238 68.1937 51.7238 67.2415C51.7238 66.2894 50.952 65.5176 49.9998 65.5176C49.0477 65.5176 48.2759 66.2894 48.2759 67.2415C48.2759 68.1937 49.0477 68.9655 49.9998 68.9655Z" fill="#A8AAAE"/>
        <path d="M67.2415 68.9655C68.1937 68.9655 68.9655 68.1937 68.9655 67.2415C68.9655 66.2894 68.1937 65.5176 67.2415 65.5176C66.2894 65.5176 65.5176 66.2894 65.5176 67.2415C65.5176 68.1937 66.2894 68.9655 67.2415 68.9655Z" fill="#A8AAAE"/>
        <path d="M5.17221 72.4138C6.12433 72.4138 6.89618 71.6419 6.89618 70.6898C6.89618 69.7377 6.12433 68.9658 5.17221 68.9658C4.22009 68.9658 3.44824 69.7377 3.44824 70.6898C3.44824 71.6419 4.22009 72.4138 5.17221 72.4138Z" fill="#A8AAAE"/>
        <path d="M8.62045 72.4138C9.57257 72.4138 10.3444 71.6419 10.3444 70.6898C10.3444 69.7377 9.57257 68.9658 8.62045 68.9658C7.66833 68.9658 6.89648 69.7377 6.89648 70.6898C6.89648 71.6419 7.66833 72.4138 8.62045 72.4138Z" fill="#A8AAAE"/>
        <path d="M15.5174 72.4138C16.4695 72.4138 17.2414 71.6419 17.2414 70.6898C17.2414 69.7377 16.4695 68.9658 15.5174 68.9658C14.5653 68.9658 13.7935 69.7377 13.7935 70.6898C13.7935 71.6419 14.5653 72.4138 15.5174 72.4138Z" fill="#A8AAAE"/>
        <path d="M18.9657 72.4138C19.9178 72.4138 20.6896 71.6419 20.6896 70.6898C20.6896 69.7377 19.9178 68.9658 18.9657 68.9658C18.0135 68.9658 17.2417 69.7377 17.2417 70.6898C17.2417 71.6419 18.0135 72.4138 18.9657 72.4138Z" fill="#A8AAAE"/>
        <path d="M22.4139 72.4138C23.366 72.4138 24.1379 71.6419 24.1379 70.6898C24.1379 69.7377 23.366 68.9658 22.4139 68.9658C21.4618 68.9658 20.6899 69.7377 20.6899 70.6898C20.6899 71.6419 21.4618 72.4138 22.4139 72.4138Z" fill="#A8AAAE"/>
        <path d="M32.7586 72.4138C33.7108 72.4138 34.4826 71.6419 34.4826 70.6898C34.4826 69.7377 33.7108 68.9658 32.7586 68.9658C31.8065 68.9658 31.0347 69.7377 31.0347 70.6898C31.0347 71.6419 31.8065 72.4138 32.7586 72.4138Z" fill="#A8AAAE"/>
        <path d="M43.1034 72.4138C44.0555 72.4138 44.8273 71.6419 44.8273 70.6898C44.8273 69.7377 44.0555 68.9658 43.1034 68.9658C42.1512 68.9658 41.3794 69.7377 41.3794 70.6898C41.3794 71.6419 42.1512 72.4138 43.1034 72.4138Z" fill="#A8AAAE"/>
        <path d="M46.5516 72.4138C47.5037 72.4138 48.2756 71.6419 48.2756 70.6898C48.2756 69.7377 47.5037 68.9658 46.5516 68.9658C45.5995 68.9658 44.8276 69.7377 44.8276 70.6898C44.8276 71.6419 45.5995 72.4138 46.5516 72.4138Z" fill="#A8AAAE"/>
        <path d="M60.3451 72.4138C61.2972 72.4138 62.069 71.6419 62.069 70.6898C62.069 69.7377 61.2972 68.9658 60.3451 68.9658C59.3929 68.9658 58.6211 69.7377 58.6211 70.6898C58.6211 71.6419 59.3929 72.4138 60.3451 72.4138Z" fill="#A8AAAE"/>
        <path d="M70.6898 72.4138C71.6419 72.4138 72.4138 71.6419 72.4138 70.6898C72.4138 69.7377 71.6419 68.9658 70.6898 68.9658C69.7377 68.9658 68.9658 69.7377 68.9658 70.6898C68.9658 71.6419 69.7377 72.4138 70.6898 72.4138Z" fill="#A8AAAE"/>
        <path d="M74.138 72.4138C75.0902 72.4138 75.862 71.6419 75.862 70.6898C75.862 69.7377 75.0902 68.9658 74.138 68.9658C73.1859 68.9658 72.4141 69.7377 72.4141 70.6898C72.4141 71.6419 73.1859 72.4138 74.138 72.4138Z" fill="#A8AAAE"/>
        <path d="M77.5863 72.4138C78.5384 72.4138 79.3102 71.6419 79.3102 70.6898C79.3102 69.7377 78.5384 68.9658 77.5863 68.9658C76.6341 68.9658 75.8623 69.7377 75.8623 70.6898C75.8623 71.6419 76.6341 72.4138 77.5863 72.4138Z" fill="#A8AAAE"/>
        <path d="M81.0345 72.4138C81.9866 72.4138 82.7585 71.6419 82.7585 70.6898C82.7585 69.7377 81.9866 68.9658 81.0345 68.9658C80.0824 68.9658 79.3105 69.7377 79.3105 70.6898C79.3105 71.6419 80.0824 72.4138 81.0345 72.4138Z" fill="#A8AAAE"/>
        <path d="M84.4828 72.4138C85.4349 72.4138 86.2067 71.6419 86.2067 70.6898C86.2067 69.7377 85.4349 68.9658 84.4828 68.9658C83.5306 68.9658 82.7588 69.7377 82.7588 70.6898C82.7588 71.6419 83.5306 72.4138 84.4828 72.4138Z" fill="#A8AAAE"/>
        <path d="M29.3104 75.8622C30.2625 75.8622 31.0344 75.0904 31.0344 74.1383C31.0344 73.1862 30.2625 72.4143 29.3104 72.4143C28.3583 72.4143 27.5864 73.1862 27.5864 74.1383C27.5864 75.0904 28.3583 75.8622 29.3104 75.8622Z" fill="#A8AAAE"/>
        <path d="M32.7586 75.8622C33.7108 75.8622 34.4826 75.0904 34.4826 74.1383C34.4826 73.1862 33.7108 72.4143 32.7586 72.4143C31.8065 72.4143 31.0347 73.1862 31.0347 74.1383C31.0347 75.0904 31.8065 75.8622 32.7586 75.8622Z" fill="#A8AAAE"/>
        <path d="M39.6551 75.8622C40.6072 75.8622 41.3791 75.0904 41.3791 74.1383C41.3791 73.1862 40.6072 72.4143 39.6551 72.4143C38.703 72.4143 37.9312 73.1862 37.9312 74.1383C37.9312 75.0904 38.703 75.8622 39.6551 75.8622Z" fill="#A8AAAE"/>
        <path d="M43.1034 75.8622C44.0555 75.8622 44.8273 75.0904 44.8273 74.1383C44.8273 73.1862 44.0555 72.4143 43.1034 72.4143C42.1512 72.4143 41.3794 73.1862 41.3794 74.1383C41.3794 75.0904 42.1512 75.8622 43.1034 75.8622Z" fill="#A8AAAE"/>
        <path d="M49.9998 75.8622C50.952 75.8622 51.7238 75.0904 51.7238 74.1383C51.7238 73.1862 50.952 72.4143 49.9998 72.4143C49.0477 72.4143 48.2759 73.1862 48.2759 74.1383C48.2759 75.0904 49.0477 75.8622 49.9998 75.8622Z" fill="#A8AAAE"/>
        <path d="M53.4481 75.8622C54.4002 75.8622 55.1721 75.0904 55.1721 74.1383C55.1721 73.1862 54.4002 72.4143 53.4481 72.4143C52.496 72.4143 51.7241 73.1862 51.7241 74.1383C51.7241 75.0904 52.496 75.8622 53.4481 75.8622Z" fill="#A8AAAE"/>
        <path d="M56.8968 75.8622C57.8489 75.8622 58.6208 75.0904 58.6208 74.1383C58.6208 73.1862 57.8489 72.4143 56.8968 72.4143C55.9447 72.4143 55.1729 73.1862 55.1729 74.1383C55.1729 75.0904 55.9447 75.8622 56.8968 75.8622Z" fill="#A8AAAE"/>
        <path d="M67.2415 75.8622C68.1937 75.8622 68.9655 75.0904 68.9655 74.1383C68.9655 73.1862 68.1937 72.4143 67.2415 72.4143C66.2894 72.4143 65.5176 73.1862 65.5176 74.1383C65.5176 75.0904 66.2894 75.8622 67.2415 75.8622Z" fill="#A8AAAE"/>
        <path d="M70.6898 75.8622C71.6419 75.8622 72.4138 75.0904 72.4138 74.1383C72.4138 73.1862 71.6419 72.4143 70.6898 72.4143C69.7377 72.4143 68.9658 73.1862 68.9658 74.1383C68.9658 75.0904 69.7377 75.8622 70.6898 75.8622Z" fill="#A8AAAE"/>
        <path d="M84.4828 75.8622C85.4349 75.8622 86.2067 75.0904 86.2067 74.1383C86.2067 73.1862 85.4349 72.4143 84.4828 72.4143C83.5306 72.4143 82.7588 73.1862 82.7588 74.1383C82.7588 75.0904 83.5306 75.8622 84.4828 75.8622Z" fill="#A8AAAE"/>
        <path d="M94.8275 75.8622C95.7796 75.8622 96.5514 75.0904 96.5514 74.1383C96.5514 73.1862 95.7796 72.4143 94.8275 72.4143C93.8754 72.4143 93.1035 73.1862 93.1035 74.1383C93.1035 75.0904 93.8754 75.8622 94.8275 75.8622Z" fill="#A8AAAE"/>
        <path d="M32.7586 79.31C33.7108 79.31 34.4826 78.5381 34.4826 77.586C34.4826 76.6339 33.7108 75.8621 32.7586 75.8621C31.8065 75.8621 31.0347 76.6339 31.0347 77.586C31.0347 78.5381 31.8065 79.31 32.7586 79.31Z" fill="#A8AAAE"/>
        <path d="M36.2069 79.31C37.159 79.31 37.9308 78.5381 37.9308 77.586C37.9308 76.6339 37.159 75.8621 36.2069 75.8621C35.2548 75.8621 34.4829 76.6339 34.4829 77.586C34.4829 78.5381 35.2548 79.31 36.2069 79.31Z" fill="#A8AAAE"/>
        <path d="M43.1034 79.31C44.0555 79.31 44.8273 78.5381 44.8273 77.586C44.8273 76.6339 44.0555 75.8621 43.1034 75.8621C42.1512 75.8621 41.3794 76.6339 41.3794 77.586C41.3794 78.5381 42.1512 79.31 43.1034 79.31Z" fill="#A8AAAE"/>
        <path d="M46.5516 79.31C47.5037 79.31 48.2756 78.5381 48.2756 77.586C48.2756 76.6339 47.5037 75.8621 46.5516 75.8621C45.5995 75.8621 44.8276 76.6339 44.8276 77.586C44.8276 78.5381 45.5995 79.31 46.5516 79.31Z" fill="#A8AAAE"/>
        <path d="M49.9998 79.31C50.952 79.31 51.7238 78.5381 51.7238 77.586C51.7238 76.6339 50.952 75.8621 49.9998 75.8621C49.0477 75.8621 48.2759 76.6339 48.2759 77.586C48.2759 78.5381 49.0477 79.31 49.9998 79.31Z" fill="#A8AAAE"/>
        <path d="M53.4481 79.31C54.4002 79.31 55.1721 78.5381 55.1721 77.586C55.1721 76.6339 54.4002 75.8621 53.4481 75.8621C52.496 75.8621 51.7241 76.6339 51.7241 77.586C51.7241 78.5381 52.496 79.31 53.4481 79.31Z" fill="#A8AAAE"/>
        <path d="M60.3451 79.31C61.2972 79.31 62.069 78.5381 62.069 77.586C62.069 76.6339 61.2972 75.8621 60.3451 75.8621C59.3929 75.8621 58.6211 76.6339 58.6211 77.586C58.6211 78.5381 59.3929 79.31 60.3451 79.31Z" fill="#A8AAAE"/>
        <path d="M70.6898 79.31C71.6419 79.31 72.4138 78.5381 72.4138 77.586C72.4138 76.6339 71.6419 75.8621 70.6898 75.8621C69.7377 75.8621 68.9658 76.6339 68.9658 77.586C68.9658 78.5381 69.7377 79.31 70.6898 79.31Z" fill="#A8AAAE"/>
        <path d="M77.5863 79.31C78.5384 79.31 79.3102 78.5381 79.3102 77.586C79.3102 76.6339 78.5384 75.8621 77.5863 75.8621C76.6341 75.8621 75.8623 76.6339 75.8623 77.586C75.8623 78.5381 76.6341 79.31 77.5863 79.31Z" fill="#A8AAAE"/>
        <path d="M84.4828 79.31C85.4349 79.31 86.2067 78.5381 86.2067 77.586C86.2067 76.6339 85.4349 75.8621 84.4828 75.8621C83.5306 75.8621 82.7588 76.6339 82.7588 77.586C82.7588 78.5381 83.5306 79.31 84.4828 79.31Z" fill="#A8AAAE"/>
        <path d="M91.3792 79.31C92.3314 79.31 93.1032 78.5381 93.1032 77.586C93.1032 76.6339 92.3314 75.8621 91.3792 75.8621C90.4271 75.8621 89.6553 76.6339 89.6553 77.586C89.6553 78.5381 90.4271 79.31 91.3792 79.31Z" fill="#A8AAAE"/>
        <path d="M98.2762 79.31C99.2283 79.31 100 78.5381 100 77.586C100 76.6339 99.2283 75.8621 98.2762 75.8621C97.3241 75.8621 96.5522 76.6339 96.5522 77.586C96.5522 78.5381 97.3241 79.31 98.2762 79.31Z" fill="#A8AAAE"/>
        <path d="M29.3104 82.7585C30.2625 82.7585 31.0344 81.9866 31.0344 81.0345C31.0344 80.0824 30.2625 79.3105 29.3104 79.3105C28.3583 79.3105 27.5864 80.0824 27.5864 81.0345C27.5864 81.9866 28.3583 82.7585 29.3104 82.7585Z" fill="#A8AAAE"/>
        <path d="M32.7586 82.7585C33.7108 82.7585 34.4826 81.9866 34.4826 81.0345C34.4826 80.0824 33.7108 79.3105 32.7586 79.3105C31.8065 79.3105 31.0347 80.0824 31.0347 81.0345C31.0347 81.9866 31.8065 82.7585 32.7586 82.7585Z" fill="#A8AAAE"/>
        <path d="M39.6551 82.7585C40.6072 82.7585 41.3791 81.9866 41.3791 81.0345C41.3791 80.0824 40.6072 79.3105 39.6551 79.3105C38.703 79.3105 37.9312 80.0824 37.9312 81.0345C37.9312 81.9866 38.703 82.7585 39.6551 82.7585Z" fill="#A8AAAE"/>
        <path d="M43.1034 82.7585C44.0555 82.7585 44.8273 81.9866 44.8273 81.0345C44.8273 80.0824 44.0555 79.3105 43.1034 79.3105C42.1512 79.3105 41.3794 80.0824 41.3794 81.0345C41.3794 81.9866 42.1512 82.7585 43.1034 82.7585Z" fill="#A8AAAE"/>
        <path d="M49.9998 82.7585C50.952 82.7585 51.7238 81.9866 51.7238 81.0345C51.7238 80.0824 50.952 79.3105 49.9998 79.3105C49.0477 79.3105 48.2759 80.0824 48.2759 81.0345C48.2759 81.9866 49.0477 82.7585 49.9998 82.7585Z" fill="#A8AAAE"/>
        <path d="M56.8968 82.7585C57.8489 82.7585 58.6208 81.9866 58.6208 81.0345C58.6208 80.0824 57.8489 79.3105 56.8968 79.3105C55.9447 79.3105 55.1729 80.0824 55.1729 81.0345C55.1729 81.9866 55.9447 82.7585 56.8968 82.7585Z" fill="#A8AAAE"/>
        <path d="M63.7933 82.7585C64.7454 82.7585 65.5173 81.9866 65.5173 81.0345C65.5173 80.0824 64.7454 79.3105 63.7933 79.3105C62.8412 79.3105 62.0693 80.0824 62.0693 81.0345C62.0693 81.9866 62.8412 82.7585 63.7933 82.7585Z" fill="#A8AAAE"/>
        <path d="M70.6898 82.7585C71.6419 82.7585 72.4138 81.9866 72.4138 81.0345C72.4138 80.0824 71.6419 79.3105 70.6898 79.3105C69.7377 79.3105 68.9658 80.0824 68.9658 81.0345C68.9658 81.9866 69.7377 82.7585 70.6898 82.7585Z" fill="#A8AAAE"/>
        <path d="M84.4828 82.7585C85.4349 82.7585 86.2067 81.9866 86.2067 81.0345C86.2067 80.0824 85.4349 79.3105 84.4828 79.3105C83.5306 79.3105 82.7588 80.0824 82.7588 81.0345C82.7588 81.9866 83.5306 82.7585 84.4828 82.7585Z" fill="#A8AAAE"/>
        <path d="M87.931 82.7585C88.8831 82.7585 89.655 81.9866 89.655 81.0345C89.655 80.0824 88.8831 79.3105 87.931 79.3105C86.9789 79.3105 86.207 80.0824 86.207 81.0345C86.207 81.9866 86.9789 82.7585 87.931 82.7585Z" fill="#A8AAAE"/>
        <path d="M91.3792 82.7585C92.3314 82.7585 93.1032 81.9866 93.1032 81.0345C93.1032 80.0824 92.3314 79.3105 91.3792 79.3105C90.4271 79.3105 89.6553 80.0824 89.6553 81.0345C89.6553 81.9866 90.4271 82.7585 91.3792 82.7585Z" fill="#A8AAAE"/>
        <path d="M94.8275 82.7585C95.7796 82.7585 96.5514 81.9866 96.5514 81.0345C96.5514 80.0824 95.7796 79.3105 94.8275 79.3105C93.8754 79.3105 93.1035 80.0824 93.1035 81.0345C93.1035 81.9866 93.8754 82.7585 94.8275 82.7585Z" fill="#A8AAAE"/>
        <path d="M98.2762 82.7585C99.2283 82.7585 100 81.9866 100 81.0345C100 80.0824 99.2283 79.3105 98.2762 79.3105C97.3241 79.3105 96.5522 80.0824 96.5522 81.0345C96.5522 81.9866 97.3241 82.7585 98.2762 82.7585Z" fill="#A8AAAE"/>
        <path d="M36.2069 86.2067C37.159 86.2067 37.9308 85.4349 37.9308 84.4828C37.9308 83.5306 37.159 82.7588 36.2069 82.7588C35.2548 82.7588 34.4829 83.5306 34.4829 84.4828C34.4829 85.4349 35.2548 86.2067 36.2069 86.2067Z" fill="#A8AAAE"/>
        <path d="M53.4481 86.2067C54.4002 86.2067 55.1721 85.4349 55.1721 84.4828C55.1721 83.5306 54.4002 82.7588 53.4481 82.7588C52.496 82.7588 51.7241 83.5306 51.7241 84.4828C51.7241 85.4349 52.496 86.2067 53.4481 86.2067Z" fill="#A8AAAE"/>
        <path d="M63.7933 86.2067C64.7454 86.2067 65.5173 85.4349 65.5173 84.4828C65.5173 83.5306 64.7454 82.7588 63.7933 82.7588C62.8412 82.7588 62.0693 83.5306 62.0693 84.4828C62.0693 85.4349 62.8412 86.2067 63.7933 86.2067Z" fill="#A8AAAE"/>
        <path d="M67.2415 86.2067C68.1937 86.2067 68.9655 85.4349 68.9655 84.4828C68.9655 83.5306 68.1937 82.7588 67.2415 82.7588C66.2894 82.7588 65.5176 83.5306 65.5176 84.4828C65.5176 85.4349 66.2894 86.2067 67.2415 86.2067Z" fill="#A8AAAE"/>
        <path d="M70.6898 86.2067C71.6419 86.2067 72.4138 85.4349 72.4138 84.4828C72.4138 83.5306 71.6419 82.7588 70.6898 82.7588C69.7377 82.7588 68.9658 83.5306 68.9658 84.4828C68.9658 85.4349 69.7377 86.2067 70.6898 86.2067Z" fill="#A8AAAE"/>
        <path d="M74.138 86.2067C75.0902 86.2067 75.862 85.4349 75.862 84.4828C75.862 83.5306 75.0902 82.7588 74.138 82.7588C73.1859 82.7588 72.4141 83.5306 72.4141 84.4828C72.4141 85.4349 73.1859 86.2067 74.138 86.2067Z" fill="#A8AAAE"/>
        <path d="M77.5863 86.2067C78.5384 86.2067 79.3102 85.4349 79.3102 84.4828C79.3102 83.5306 78.5384 82.7588 77.5863 82.7588C76.6341 82.7588 75.8623 83.5306 75.8623 84.4828C75.8623 85.4349 76.6341 86.2067 77.5863 86.2067Z" fill="#A8AAAE"/>
        <path d="M81.0345 86.2067C81.9866 86.2067 82.7585 85.4349 82.7585 84.4828C82.7585 83.5306 81.9866 82.7588 81.0345 82.7588C80.0824 82.7588 79.3105 83.5306 79.3105 84.4828C79.3105 85.4349 80.0824 86.2067 81.0345 86.2067Z" fill="#A8AAAE"/>
        <path d="M84.4828 86.2067C85.4349 86.2067 86.2067 85.4349 86.2067 84.4828C86.2067 83.5306 85.4349 82.7588 84.4828 82.7588C83.5306 82.7588 82.7588 83.5306 82.7588 84.4828C82.7588 85.4349 83.5306 86.2067 84.4828 86.2067Z" fill="#A8AAAE"/>
        <path d="M87.931 86.2067C88.8831 86.2067 89.655 85.4349 89.655 84.4828C89.655 83.5306 88.8831 82.7588 87.931 82.7588C86.9789 82.7588 86.207 83.5306 86.207 84.4828C86.207 85.4349 86.9789 86.2067 87.931 86.2067Z" fill="#A8AAAE"/>
        <path d="M91.3792 86.2067C92.3314 86.2067 93.1032 85.4349 93.1032 84.4828C93.1032 83.5306 92.3314 82.7588 91.3792 82.7588C90.4271 82.7588 89.6553 83.5306 89.6553 84.4828C89.6553 85.4349 90.4271 86.2067 91.3792 86.2067Z" fill="#A8AAAE"/>
        <path d="M94.8275 86.2067C95.7796 86.2067 96.5514 85.4349 96.5514 84.4828C96.5514 83.5306 95.7796 82.7588 94.8275 82.7588C93.8754 82.7588 93.1035 83.5306 93.1035 84.4828C93.1035 85.4349 93.8754 86.2067 94.8275 86.2067Z" fill="#A8AAAE"/>
        <path d="M29.3104 89.655C30.2625 89.655 31.0344 88.8831 31.0344 87.931C31.0344 86.9789 30.2625 86.207 29.3104 86.207C28.3583 86.207 27.5864 86.9789 27.5864 87.931C27.5864 88.8831 28.3583 89.655 29.3104 89.655Z" fill="#A8AAAE"/>
        <path d="M49.9998 89.655C50.952 89.655 51.7238 88.8831 51.7238 87.931C51.7238 86.9789 50.952 86.207 49.9998 86.207C49.0477 86.207 48.2759 86.9789 48.2759 87.931C48.2759 88.8831 49.0477 89.655 49.9998 89.655Z" fill="#A8AAAE"/>
        <path d="M56.8968 89.655C57.8489 89.655 58.6208 88.8831 58.6208 87.931C58.6208 86.9789 57.8489 86.207 56.8968 86.207C55.9447 86.207 55.1729 86.9789 55.1729 87.931C55.1729 88.8831 55.9447 89.655 56.8968 89.655Z" fill="#A8AAAE"/>
        <path d="M63.7933 89.655C64.7454 89.655 65.5173 88.8831 65.5173 87.931C65.5173 86.9789 64.7454 86.207 63.7933 86.207C62.8412 86.207 62.0693 86.9789 62.0693 87.931C62.0693 88.8831 62.8412 89.655 63.7933 89.655Z" fill="#A8AAAE"/>
        <path d="M67.2415 89.655C68.1937 89.655 68.9655 88.8831 68.9655 87.931C68.9655 86.9789 68.1937 86.207 67.2415 86.207C66.2894 86.207 65.5176 86.9789 65.5176 87.931C65.5176 88.8831 66.2894 89.655 67.2415 89.655Z" fill="#A8AAAE"/>
        <path d="M77.5863 89.655C78.5384 89.655 79.3102 88.8831 79.3102 87.931C79.3102 86.9789 78.5384 86.207 77.5863 86.207C76.6341 86.207 75.8623 86.9789 75.8623 87.931C75.8623 88.8831 76.6341 89.655 77.5863 89.655Z" fill="#A8AAAE"/>
        <path d="M87.931 89.655C88.8831 89.655 89.655 88.8831 89.655 87.931C89.655 86.9789 88.8831 86.207 87.931 86.207C86.9789 86.207 86.207 86.9789 86.207 87.931C86.207 88.8831 86.9789 89.655 87.931 89.655Z" fill="#A8AAAE"/>
        <path d="M94.8275 89.655C95.7796 89.655 96.5514 88.8831 96.5514 87.931C96.5514 86.9789 95.7796 86.207 94.8275 86.207C93.8754 86.207 93.1035 86.9789 93.1035 87.931C93.1035 88.8831 93.8754 89.655 94.8275 89.655Z" fill="#A8AAAE"/>
        <path d="M29.3104 93.1035C30.2625 93.1035 31.0344 92.3316 31.0344 91.3795C31.0344 90.4274 30.2625 89.6555 29.3104 89.6555C28.3583 89.6555 27.5864 90.4274 27.5864 91.3795C27.5864 92.3316 28.3583 93.1035 29.3104 93.1035Z" fill="#A8AAAE"/>
        <path d="M32.7586 93.1035C33.7108 93.1035 34.4826 92.3316 34.4826 91.3795C34.4826 90.4274 33.7108 89.6555 32.7586 89.6555C31.8065 89.6555 31.0347 90.4274 31.0347 91.3795C31.0347 92.3316 31.8065 93.1035 32.7586 93.1035Z" fill="#A8AAAE"/>
        <path d="M43.1034 93.1035C44.0555 93.1035 44.8273 92.3316 44.8273 91.3795C44.8273 90.4274 44.0555 89.6555 43.1034 89.6555C42.1512 89.6555 41.3794 90.4274 41.3794 91.3795C41.3794 92.3316 42.1512 93.1035 43.1034 93.1035Z" fill="#A8AAAE"/>
        <path d="M46.5516 93.1035C47.5037 93.1035 48.2756 92.3316 48.2756 91.3795C48.2756 90.4274 47.5037 89.6555 46.5516 89.6555C45.5995 89.6555 44.8276 90.4274 44.8276 91.3795C44.8276 92.3316 45.5995 93.1035 46.5516 93.1035Z" fill="#A8AAAE"/>
        <path d="M53.4481 93.1035C54.4002 93.1035 55.1721 92.3316 55.1721 91.3795C55.1721 90.4274 54.4002 89.6555 53.4481 89.6555C52.496 89.6555 51.7241 90.4274 51.7241 91.3795C51.7241 92.3316 52.496 93.1035 53.4481 93.1035Z" fill="#A8AAAE"/>
        <path d="M56.8968 93.1035C57.8489 93.1035 58.6208 92.3316 58.6208 91.3795C58.6208 90.4274 57.8489 89.6555 56.8968 89.6555C55.9447 89.6555 55.1729 90.4274 55.1729 91.3795C55.1729 92.3316 55.9447 93.1035 56.8968 93.1035Z" fill="#A8AAAE"/>
        <path d="M60.3451 93.1035C61.2972 93.1035 62.069 92.3316 62.069 91.3795C62.069 90.4274 61.2972 89.6555 60.3451 89.6555C59.3929 89.6555 58.6211 90.4274 58.6211 91.3795C58.6211 92.3316 59.3929 93.1035 60.3451 93.1035Z" fill="#A8AAAE"/>
        <path d="M63.7933 93.1035C64.7454 93.1035 65.5173 92.3316 65.5173 91.3795C65.5173 90.4274 64.7454 89.6555 63.7933 89.6555C62.8412 89.6555 62.0693 90.4274 62.0693 91.3795C62.0693 92.3316 62.8412 93.1035 63.7933 93.1035Z" fill="#A8AAAE"/>
        <path d="M67.2415 93.1035C68.1937 93.1035 68.9655 92.3316 68.9655 91.3795C68.9655 90.4274 68.1937 89.6555 67.2415 89.6555C66.2894 89.6555 65.5176 90.4274 65.5176 91.3795C65.5176 92.3316 66.2894 93.1035 67.2415 93.1035Z" fill="#A8AAAE"/>
        <path d="M70.6898 93.1035C71.6419 93.1035 72.4138 92.3316 72.4138 91.3795C72.4138 90.4274 71.6419 89.6555 70.6898 89.6555C69.7377 89.6555 68.9658 90.4274 68.9658 91.3795C68.9658 92.3316 69.7377 93.1035 70.6898 93.1035Z" fill="#A8AAAE"/>
        <path d="M74.138 93.1035C75.0902 93.1035 75.862 92.3316 75.862 91.3795C75.862 90.4274 75.0902 89.6555 74.138 89.6555C73.1859 89.6555 72.4141 90.4274 72.4141 91.3795C72.4141 92.3316 73.1859 93.1035 74.138 93.1035Z" fill="#A8AAAE"/>
        <path d="M81.0345 93.1035C81.9866 93.1035 82.7585 92.3316 82.7585 91.3795C82.7585 90.4274 81.9866 89.6555 81.0345 89.6555C80.0824 89.6555 79.3105 90.4274 79.3105 91.3795C79.3105 92.3316 80.0824 93.1035 81.0345 93.1035Z" fill="#A8AAAE"/>
        <path d="M84.4828 93.1035C85.4349 93.1035 86.2067 92.3316 86.2067 91.3795C86.2067 90.4274 85.4349 89.6555 84.4828 89.6555C83.5306 89.6555 82.7588 90.4274 82.7588 91.3795C82.7588 92.3316 83.5306 93.1035 84.4828 93.1035Z" fill="#A8AAAE"/>
        <path d="M98.2762 93.1035C99.2283 93.1035 100 92.3316 100 91.3795C100 90.4274 99.2283 89.6555 98.2762 89.6555C97.3241 89.6555 96.5522 90.4274 96.5522 91.3795C96.5522 92.3316 97.3241 93.1035 98.2762 93.1035Z" fill="#A8AAAE"/>
        <path d="M29.3104 96.5517C30.2625 96.5517 31.0344 95.7798 31.0344 94.8277C31.0344 93.8756 30.2625 93.1038 29.3104 93.1038C28.3583 93.1038 27.5864 93.8756 27.5864 94.8277C27.5864 95.7798 28.3583 96.5517 29.3104 96.5517Z" fill="#A8AAAE"/>
        <path d="M32.7586 96.5517C33.7108 96.5517 34.4826 95.7798 34.4826 94.8277C34.4826 93.8756 33.7108 93.1038 32.7586 93.1038C31.8065 93.1038 31.0347 93.8756 31.0347 94.8277C31.0347 95.7798 31.8065 96.5517 32.7586 96.5517Z" fill="#A8AAAE"/>
        <path d="M36.2069 96.5517C37.159 96.5517 37.9308 95.7798 37.9308 94.8277C37.9308 93.8756 37.159 93.1038 36.2069 93.1038C35.2548 93.1038 34.4829 93.8756 34.4829 94.8277C34.4829 95.7798 35.2548 96.5517 36.2069 96.5517Z" fill="#A8AAAE"/>
        <path d="M39.6551 96.5517C40.6072 96.5517 41.3791 95.7798 41.3791 94.8277C41.3791 93.8756 40.6072 93.1038 39.6551 93.1038C38.703 93.1038 37.9312 93.8756 37.9312 94.8277C37.9312 95.7798 38.703 96.5517 39.6551 96.5517Z" fill="#A8AAAE"/>
        <path d="M46.5516 96.5517C47.5037 96.5517 48.2756 95.7798 48.2756 94.8277C48.2756 93.8756 47.5037 93.1038 46.5516 93.1038C45.5995 93.1038 44.8276 93.8756 44.8276 94.8277C44.8276 95.7798 45.5995 96.5517 46.5516 96.5517Z" fill="#A8AAAE"/>
        <path d="M49.9998 96.5517C50.952 96.5517 51.7238 95.7798 51.7238 94.8277C51.7238 93.8756 50.952 93.1038 49.9998 93.1038C49.0477 93.1038 48.2759 93.8756 48.2759 94.8277C48.2759 95.7798 49.0477 96.5517 49.9998 96.5517Z" fill="#A8AAAE"/>
        <path d="M56.8968 96.5517C57.8489 96.5517 58.6208 95.7798 58.6208 94.8277C58.6208 93.8756 57.8489 93.1038 56.8968 93.1038C55.9447 93.1038 55.1729 93.8756 55.1729 94.8277C55.1729 95.7798 55.9447 96.5517 56.8968 96.5517Z" fill="#A8AAAE"/>
        <path d="M63.7933 96.5517C64.7454 96.5517 65.5173 95.7798 65.5173 94.8277C65.5173 93.8756 64.7454 93.1038 63.7933 93.1038C62.8412 93.1038 62.0693 93.8756 62.0693 94.8277C62.0693 95.7798 62.8412 96.5517 63.7933 96.5517Z" fill="#A8AAAE"/>
        <path d="M77.5863 96.5517C78.5384 96.5517 79.3102 95.7798 79.3102 94.8277C79.3102 93.8756 78.5384 93.1038 77.5863 93.1038C76.6341 93.1038 75.8623 93.8756 75.8623 94.8277C75.8623 95.7798 76.6341 96.5517 77.5863 96.5517Z" fill="#A8AAAE"/>
        <path d="M84.4828 96.5517C85.4349 96.5517 86.2067 95.7798 86.2067 94.8277C86.2067 93.8756 85.4349 93.1038 84.4828 93.1038C83.5306 93.1038 82.7588 93.8756 82.7588 94.8277C82.7588 95.7798 83.5306 96.5517 84.4828 96.5517Z" fill="#A8AAAE"/>
        <path d="M91.3792 96.5517C92.3314 96.5517 93.1032 95.7798 93.1032 94.8277C93.1032 93.8756 92.3314 93.1038 91.3792 93.1038C90.4271 93.1038 89.6553 93.8756 89.6553 94.8277C89.6553 95.7798 90.4271 96.5517 91.3792 96.5517Z" fill="#A8AAAE"/>
        <path d="M94.8275 96.5517C95.7796 96.5517 96.5514 95.7798 96.5514 94.8277C96.5514 93.8756 95.7796 93.1038 94.8275 93.1038C93.8754 93.1038 93.1035 93.8756 93.1035 94.8277C93.1035 95.7798 93.8754 96.5517 94.8275 96.5517Z" fill="#A8AAAE"/>
        <path d="M36.2069 99.9999C37.159 99.9999 37.9308 99.2281 37.9308 98.276C37.9308 97.3238 37.159 96.552 36.2069 96.552C35.2548 96.552 34.4829 97.3238 34.4829 98.276C34.4829 99.2281 35.2548 99.9999 36.2069 99.9999Z" fill="#A8AAAE"/>
        <path d="M39.6551 99.9999C40.6072 99.9999 41.3791 99.2281 41.3791 98.276C41.3791 97.3238 40.6072 96.552 39.6551 96.552C38.703 96.552 37.9312 97.3238 37.9312 98.276C37.9312 99.2281 38.703 99.9999 39.6551 99.9999Z" fill="#A8AAAE"/>
        <path d="M43.1034 99.9999C44.0555 99.9999 44.8273 99.2281 44.8273 98.276C44.8273 97.3238 44.0555 96.552 43.1034 96.552C42.1512 96.552 41.3794 97.3238 41.3794 98.276C41.3794 99.2281 42.1512 99.9999 43.1034 99.9999Z" fill="#A8AAAE"/>
        <path d="M53.4481 99.9999C54.4002 99.9999 55.1721 99.2281 55.1721 98.276C55.1721 97.3238 54.4002 96.552 53.4481 96.552C52.496 96.552 51.7241 97.3238 51.7241 98.276C51.7241 99.2281 52.496 99.9999 53.4481 99.9999Z" fill="#A8AAAE"/>
        <path d="M70.6898 99.9999C71.6419 99.9999 72.4138 99.2281 72.4138 98.276C72.4138 97.3238 71.6419 96.552 70.6898 96.552C69.7377 96.552 68.9658 97.3238 68.9658 98.276C68.9658 99.2281 69.7377 99.9999 70.6898 99.9999Z" fill="#A8AAAE"/>
        <path d="M74.138 99.9999C75.0902 99.9999 75.862 99.2281 75.862 98.276C75.862 97.3238 75.0902 96.552 74.138 96.552C73.1859 96.552 72.4141 97.3238 72.4141 98.276C72.4141 99.2281 73.1859 99.9999 74.138 99.9999Z" fill="#A8AAAE"/>
        <path d="M77.5863 99.9999C78.5384 99.9999 79.3102 99.2281 79.3102 98.276C79.3102 97.3238 78.5384 96.552 77.5863 96.552C76.6341 96.552 75.8623 97.3238 75.8623 98.276C75.8623 99.2281 76.6341 99.9999 77.5863 99.9999Z" fill="#A8AAAE"/>
        <path d="M94.8275 99.9999C95.7796 99.9999 96.5514 99.2281 96.5514 98.276C96.5514 97.3238 95.7796 96.552 94.8275 96.552C93.8754 96.552 93.1035 97.3238 93.1035 98.276C93.1035 99.2281 93.8754 99.9999 94.8275 99.9999Z" fill="#A8AAAE"/>
    </g>
    <defs>
        <clipPath id="clip0_98_13070">
            <rect width="100" height="100" fill="white"/>
        </clipPath>
    </defs>
</svg>
