<svg width="24" height="24" viewBox="0 0 24 24" fill="none" xmlns="http://www.w3.org/2000/svg">
    <path d="M4.64413 11.0777L4.56615 11.6726C4.72393 11.6933 4.88346 11.6505 5.00966 11.5535C5.13585 11.4566 5.21836 11.3135 5.23904 11.1557L4.64413 11.0777ZM12.0035 4.63949L12.0053 4.03949L12.0035 4.63949ZM3.45431 10.9217L2.8594 10.8438C2.81633 11.1723 3.04777 11.4736 3.37633 11.5167L3.45431 10.9217ZM12.0071 3.43949L12.0089 2.83949L12.0071 3.43949ZM20.515 10.9728L19.9196 11.0472L20.515 10.9728ZM14.1232 20.3685L13.9738 19.7874L14.1232 20.3685ZM3.99181 15.2217L3.76979 14.6643C3.46194 14.7869 3.31178 15.1359 3.4344 15.4438L3.99181 15.2217ZM5.10663 14.7777L5.66404 14.5557C5.54142 14.2478 5.19246 14.0977 4.88461 14.2203L5.10663 14.7777ZM13.8243 19.2063L13.6749 18.6252H13.6749L13.8243 19.2063ZM19.3242 11.1216L18.7289 11.196L19.3242 11.1216ZM3.44922 14.3998V13.7998C3.11785 13.7998 2.84922 14.0684 2.84922 14.3998H3.44922ZM9.04922 14.3998H9.64922C9.64922 14.0684 9.38059 13.7998 9.04922 13.7998V14.3998ZM9.04922 15.5998V16.1998C9.38059 16.1998 9.64922 15.9312 9.64922 15.5998H9.04922ZM4.64922 15.5998V14.9998C4.31785 14.9998 4.04922 15.2684 4.04922 15.5998H4.64922ZM4.64922 19.9998V20.5998C4.98059 20.5998 5.24922 20.3312 5.24922 19.9998H4.64922ZM3.44922 19.9998H2.84922C2.84922 20.3312 3.11785 20.5998 3.44922 20.5998V19.9998ZM5.23904 11.1557C5.68374 7.76305 8.58006 5.22925 12.0017 5.23948L12.0053 4.03949C7.97983 4.02745 4.5724 7.00839 4.04922 10.9997L5.23904 11.1557ZM3.37633 11.5167L4.56615 11.6726L4.72211 10.4828L3.53229 10.3268L3.37633 11.5167ZM12.0089 2.83949C7.3796 2.82565 3.46105 6.25373 2.8594 10.8438L4.04922 10.9997C4.5724 7.00839 7.97983 4.02745 12.0053 4.03949L12.0089 2.83949ZM21.1103 10.8983C20.5361 6.30479 16.6382 2.85334 12.0089 2.83949L12.0053 4.03949C16.0307 4.05153 19.4203 7.05279 19.9196 11.0472L21.1103 10.8983ZM14.2726 20.9496C18.7561 19.7966 21.6845 15.4919 21.1103 10.8983L19.9196 11.0472C20.4189 15.0416 17.8724 18.7848 13.9738 19.7874L14.2726 20.9496ZM3.4344 15.4438C5.14739 19.7445 9.78921 22.1025 14.2726 20.9496L13.9738 19.7874C10.0751 20.7899 6.03878 18.7395 4.54922 14.9997L3.4344 15.4438ZM4.88461 14.2203L3.76979 14.6643L4.21383 15.7792L5.32865 15.3351L4.88461 14.2203ZM13.6749 18.6252C10.3611 19.4774 6.93017 17.7345 5.66404 14.5557L4.54922 14.9997C6.03878 18.7395 10.0751 20.7899 13.9738 19.7874L13.6749 18.6252ZM18.7289 11.196C19.1533 14.5912 16.9887 17.773 13.6749 18.6252L13.9738 19.7874C17.8724 18.7848 20.4189 15.0416 19.9196 11.0472L18.7289 11.196ZM12.0017 5.23948C15.4233 5.24972 18.3045 7.80079 18.7289 11.196L19.9196 11.0472C19.4203 7.05279 16.0307 4.05153 12.0053 4.03949L12.0017 5.23948ZM4.04922 13.7998H3.44922V14.9998H4.04922V13.7998ZM9.04922 13.7998H4.04922V14.9998H9.04922V13.7998ZM9.64922 15.5998V14.3998H8.44922V15.5998H9.64922ZM4.64922 16.1998H9.04922V14.9998H4.64922V16.1998ZM5.24922 19.9998V15.5998H4.04922V19.9998H5.24922ZM3.44922 20.5998H4.64922V19.3998H3.44922V20.5998ZM2.84922 14.9998V19.9998H4.04922V14.9998H2.84922ZM2.84922 14.3998V14.9998H4.04922V14.3998H2.84922Z" fill="white"/>
</svg>
