<svg width="20" height="20" viewBox="0 0 20 20" fill="none" xmlns="http://www.w3.org/2000/svg">
    <g clip-path="url(#clip0_1079_11402)">
        <path d="M15.3033 16.1363C16.3522 15.0874 17.0665 13.751 17.3559 12.2962C17.6453 10.8413 17.4968 9.3333 16.9291 7.96286C16.3614 6.59242 15.4001 5.42109 14.1668 4.59698C12.9334 3.77287 11.4834 3.33301 10 3.33301C8.51665 3.33301 7.0666 3.77287 5.83324 4.59698C4.59987 5.42109 3.63858 6.59242 3.07092 7.96286C2.50326 9.3333 2.35473 10.8413 2.64411 12.2962C2.93349 13.751 3.64779 15.0874 4.69667 16.1363" stroke="#8F9194" stroke-width="1.2" stroke-linecap="round" stroke-linejoin="round"/>
        <path d="M12.9466 13.7795C13.5292 13.1968 13.9259 12.4544 14.0866 11.6461C14.2473 10.8379 14.1647 10.0002 13.8493 9.23889C13.5339 8.4776 12.9999 7.82692 12.3147 7.36913C11.6295 6.91133 10.824 6.66699 9.99992 6.66699C9.17588 6.66699 8.37034 6.91133 7.68516 7.36913C6.99998 7.82692 6.46592 8.4776 6.15053 9.23889C5.83513 10.0002 5.75255 10.8379 5.91323 11.6461C6.07392 12.4544 6.47064 13.1968 7.05325 13.7795" stroke="#8F9194" stroke-width="1.2" stroke-linecap="round" stroke-linejoin="round"/>
        <path d="M9.16675 10.8333C9.16675 11.0543 9.25455 11.2663 9.41083 11.4226C9.56711 11.5789 9.77907 11.6667 10.0001 11.6667C10.2211 11.6667 10.4331 11.5789 10.5893 11.4226C10.7456 11.2663 10.8334 11.0543 10.8334 10.8333C10.8334 10.6123 10.7456 10.4004 10.5893 10.2441C10.4331 10.0878 10.2211 10 10.0001 10C9.77907 10 9.56711 10.0878 9.41083 10.2441C9.25455 10.4004 9.16675 10.6123 9.16675 10.8333Z" stroke="#8F9194" stroke-width="1.2" stroke-linecap="round" stroke-linejoin="round"/>
    </g>
    <defs>
        <clipPath id="clip0_1079_11402">
            <rect width="20" height="20" fill="white"/>
        </clipPath>
    </defs>
</svg>
