<svg width="20" height="20" viewBox="0 0 20 20" fill="none" xmlns="http://www.w3.org/2000/svg">
    <path d="M7.50008 4.16675H5.83341C4.91294 4.16675 4.16675 4.91294 4.16675 5.83341V15.8334C4.16675 16.7539 4.91294 17.5001 5.83341 17.5001H14.1667C15.0872 17.5001 15.8334 16.7539 15.8334 15.8334V5.83341C15.8334 4.91294 15.0872 4.16675 14.1667 4.16675H12.5001" stroke="#8F9194" stroke-width="1.2" stroke-linecap="round" stroke-linejoin="round"/>
    <rect x="7.5" y="2.5" width="5" height="3.33333" rx="1.66667" stroke="#8F9194" stroke-width="1.2" stroke-linecap="round" stroke-linejoin="round"/>
    <path d="M11.6666 9.16675H9.58325C8.8929 9.16675 8.33325 9.72639 8.33325 10.4167C8.33325 11.1071 8.8929 11.6667 9.58325 11.6667H10.4166C11.1069 11.6667 11.6666 12.2264 11.6666 12.9167C11.6666 13.6071 11.1069 14.1667 10.4166 14.1667H8.33325" stroke="#8F9194" stroke-width="1.2" stroke-linecap="round" stroke-linejoin="round"/>
    <path d="M10.5999 14.1666C10.5999 13.8352 10.3313 13.5666 9.99992 13.5666C9.66855 13.5666 9.39992 13.8352 9.39992 14.1666H10.5999ZM9.39992 14.9999C9.39992 15.3313 9.66855 15.5999 9.99992 15.5999C10.3313 15.5999 10.5999 15.3313 10.5999 14.9999H9.39992ZM10.5999 8.33325C10.5999 8.00188 10.3313 7.73325 9.99992 7.73325C9.66855 7.73325 9.39992 8.00188 9.39992 8.33325H10.5999ZM9.39992 9.16659C9.39992 9.49796 9.66855 9.76659 9.99992 9.76659C10.3313 9.76659 10.5999 9.49796 10.5999 9.16659H9.39992ZM9.39992 14.1666V14.9999H10.5999V14.1666H9.39992ZM9.39992 8.33325V9.16659H10.5999V8.33325H9.39992Z" fill="#8F9194"/>
</svg>
