<svg width="40" height="41" viewBox="0 0 40 41" fill="none" xmlns="http://www.w3.org/2000/svg">
    <path d="M19.9676 37.1678H7.15521C6.14214 37.1678 5.70215 36.7294 5.70215 35.7237C5.70215 29.537 5.70215 23.3499 5.70215 17.1625C5.70215 16.1836 6.15109 15.7402 7.13933 15.7402H32.8753C33.8625 15.7402 34.3094 16.1836 34.3094 17.1654C34.3094 23.3641 34.3094 29.5631 34.3094 35.7624C34.3094 36.7205 33.8575 37.1668 32.8911 37.1678H19.9676ZM12.1153 25.8267C10.9145 26.6638 10.407 27.8043 10.4656 29.2275C10.4914 29.8712 10.4656 30.5169 10.4715 31.1615C10.4795 31.8964 10.9771 32.4013 11.713 32.4032C14.059 32.4092 16.4053 32.4092 18.7519 32.4032C19.5097 32.4032 19.9993 31.8994 20.0043 31.1338C20.0103 30.3522 20.0351 29.5697 19.9934 28.7912C19.9653 28.3476 19.8761 27.9101 19.7282 27.4909C19.4829 26.7788 18.9753 26.2502 18.3675 25.8297C19.1303 23.8352 18.7896 22.2682 17.3743 21.2139C16.7487 20.7459 15.9865 20.496 15.2049 20.5026C14.4232 20.5093 13.6654 20.772 13.0479 21.2506C12.007 22.0549 11.0883 23.7608 12.1153 25.8267ZM26.0033 20.5058C25.2216 20.5058 24.439 20.5058 23.6573 20.5058C22.9253 20.5058 22.3969 21.0017 22.391 21.684C22.385 22.3664 22.9164 22.8801 23.6375 22.8831C25.1888 22.889 26.7402 22.889 28.2916 22.8831C29.0147 22.8831 29.545 22.3624 29.5401 21.686C29.5351 21.0096 29.0037 20.5107 28.2747 20.5058C27.5179 20.4978 26.7621 20.5058 26.0033 20.5058ZM25.9834 25.2664C25.2256 25.2664 24.4688 25.2664 23.7119 25.2664C22.9243 25.2664 22.386 25.7622 22.391 26.4654C22.391 27.1527 22.9343 27.6447 23.6951 27.6456C25.2087 27.6456 26.723 27.6456 28.238 27.6456C28.9988 27.6456 29.5351 27.1498 29.5401 26.4654C29.5401 25.7622 29.0028 25.2693 28.2171 25.2664C27.4722 25.2664 26.7283 25.2664 25.9834 25.2664ZM25.9586 32.4072C26.7412 32.4072 27.5229 32.4132 28.3045 32.4072C29.0077 32.4003 29.5321 31.8955 29.5401 31.2339C29.549 30.5575 29.0186 30.0329 28.2996 30.0299C26.7482 30.024 25.1965 30.024 23.6444 30.0299C22.9174 30.0299 22.39 30.5407 22.391 31.2201C22.392 31.8994 22.9243 32.4023 23.6504 32.4102C24.4191 32.4072 25.1888 32.4072 25.9586 32.4072Z" fill="#2E90FA"/>
    <path d="M20.0537 3.83398H35.2498C36.4019 3.83398 36.8926 4.49055 36.5737 5.60333C35.8209 8.23223 35.0687 10.8618 34.3172 13.492C34.0957 14.2646 33.7213 14.5473 32.9177 14.5473H7.10831C6.27998 14.5473 5.92143 14.2745 5.69001 13.4702C4.9312 10.8287 4.17339 8.1876 3.41656 5.5468C3.1186 4.51733 3.63904 3.83398 4.70773 3.83398H20.0537Z" fill="#2E90FA"/>
</svg>