<svg width="40" height="41" viewBox="0 0 40 41" fill="none" xmlns="http://www.w3.org/2000/svg">
    <path d="M6.68701 31.0234V30.6286C6.68701 22.9533 6.68701 15.2778 6.68701 7.60193C6.68701 5.66954 7.88876 4.21889 9.7644 3.89833C10.0398 3.85853 10.3182 3.84247 10.5964 3.85034C17.1163 3.85034 23.6362 3.86935 30.1552 3.83404C32.004 3.82408 33.3454 5.20229 33.338 6.94271C33.3075 13.5766 33.3259 20.2105 33.325 26.8444C33.325 28.6971 32.0678 29.9313 30.1737 29.9322C23.5262 29.9322 16.8796 29.9449 10.2331 29.9232C8.93982 29.9195 7.74639 30.0979 6.68701 31.0234ZM29.6274 16.9107C29.6551 11.7257 25.4 7.56843 20.1382 7.43532C14.9541 7.30492 10.4078 11.5863 10.381 16.8573C10.3551 22.0369 14.6915 26.2748 20.0559 26.3047C25.2678 26.3327 29.5968 22.0849 29.6255 16.9107H29.6274Z" fill="#2E90FA"/>
    <path d="M31.1006 31.4091L33.3266 30.413C33.2841 30.3731 33.3118 30.3867 33.3118 30.4012C33.3118 31.7477 33.346 33.0952 33.3063 34.4408C33.2647 35.8896 32.0121 37.0885 30.533 37.1573C30.4055 37.1628 30.2788 37.1655 30.1513 37.1655H9.8298C8.35997 37.1655 7.32092 36.5181 6.85502 35.3209C6.33734 33.9907 6.89755 32.4233 8.13534 31.7894C8.16123 31.8611 8.18253 31.9342 8.19912 32.0085C8.32789 32.8151 8.73865 33.5528 9.36117 34.0955C9.98369 34.6383 10.7793 34.9523 11.6121 34.9841C12.2471 35.0058 12.8831 34.9949 13.5191 34.9949C18.593 34.9949 23.6668 34.9949 28.7406 34.9949C30.0033 34.9949 30.8575 34.3285 31.0637 33.1939C31.0883 33.0263 31.0992 32.857 31.096 32.6877C31.1034 32.234 31.1006 31.7812 31.1006 31.4091Z" fill="#2E90FA"/>
    <path d="M29.6174 31.3885C29.6174 31.902 29.6414 32.3846 29.61 32.8691C29.5841 33.2657 29.2458 33.5392 28.8326 33.5482C28.3824 33.5573 27.9312 33.5482 27.4811 33.5482C22.2914 33.5482 17.102 33.5482 11.913 33.5482C10.8037 33.5482 9.96335 32.937 9.71191 31.9418C9.67774 31.7583 9.65459 31.5729 9.64258 31.3867L29.6174 31.3885Z" fill="#2E90FA"/>
    <path d="M23.4692 19.0632H22.0207C20.2994 19.0632 18.5772 19.0578 16.855 19.0695C16.5888 19.0695 16.501 18.9871 16.4612 18.7381C16.2564 17.5087 16.2564 16.2549 16.4612 15.0254C16.4917 14.8443 16.5158 14.7139 16.7654 14.7148C18.9377 14.7239 21.1101 14.7203 23.2834 14.7212C23.3483 14.7256 23.4128 14.7337 23.4766 14.7456C23.7699 16.1707 23.7674 17.6391 23.4692 19.0632Z" fill="#2E90FA"/>
    <path d="M23.0142 20.5301C22.7576 21.3454 22.3727 22.1165 21.8735 22.8156C21.3909 23.4748 20.8316 24.0833 20.3019 24.7063C20.1328 24.9065 19.9377 24.9309 19.7381 24.7398C18.516 23.5922 17.5847 22.1807 17.0184 20.6179C17.0147 20.5878 17.0147 20.5574 17.0184 20.5273L23.0142 20.5301Z" fill="#2E90FA"/>
    <path d="M22.9765 13.2434H16.9678C17.1351 12.8486 17.2728 12.4836 17.4439 12.1341C18.0035 10.9899 18.7655 9.9518 19.6948 9.06798C19.8797 8.88687 20.0563 8.83254 20.2605 9.02633C21.4724 10.1654 22.4001 11.5625 22.9719 13.1093C22.9789 13.1537 22.9804 13.1987 22.9765 13.2434Z" fill="#2E90FA"/>
    <path d="M24.957 14.7168C25.9101 14.7168 26.7966 14.7168 27.6841 14.7258C27.758 14.7258 27.8745 14.8436 27.8976 14.926C28.271 16.2049 28.271 17.5607 27.8976 18.8397C27.8786 18.8913 27.8472 18.9377 27.806 18.9749C27.7648 19.0121 27.715 19.039 27.661 19.0534C26.7846 19.0688 25.9046 19.0633 24.9653 19.0633C25.2251 17.6145 25.2676 16.1892 24.957 14.7168Z" fill="#2E90FA"/>
    <path d="M15.0438 14.7168C14.7596 16.1523 14.7596 17.6279 15.0438 19.0633C14.0953 19.0633 13.1949 19.0633 12.2992 19.0552C12.2335 19.0552 12.1346 18.9411 12.1143 18.8632C11.7366 17.5735 11.7366 16.2057 12.1143 14.916C12.1365 14.839 12.2382 14.7286 12.3047 14.7277C13.1968 14.7168 14.0953 14.7168 15.0438 14.7168Z" fill="#2E90FA"/>
    <path d="M17.3951 24.4264C15.3225 23.7491 13.8019 22.4469 12.7563 20.5254H15.4187C15.8568 21.9226 16.564 23.1976 17.3951 24.4264Z" fill="#2E90FA"/>
    <path d="M27.2528 13.2569C26.3792 13.2569 25.5833 13.2623 24.7892 13.2496C24.7378 13.2446 24.6882 13.2276 24.6448 13.2001C24.6014 13.1725 24.5653 13.1352 24.5397 13.0912C24.1024 11.7555 23.4119 10.5503 22.6104 9.39844C22.6002 9.38305 22.6039 9.3595 22.5938 9.29883C24.6709 10.0169 26.199 11.3091 27.2528 13.2569Z" fill="#2E90FA"/>
    <path d="M17.3316 9.32812C16.8546 10.2056 16.3554 11.093 15.8867 11.9967C15.7157 12.3263 15.6269 12.6967 15.4827 13.0408C15.4476 13.1259 15.3431 13.2436 15.2683 13.2454C14.452 13.2599 13.6348 13.2545 12.7529 13.2545C13.8049 11.3121 15.3321 10.0199 17.3316 9.32812Z" fill="#2E90FA"/>
    <path d="M22.6133 24.426C23.4863 23.2395 24.1526 21.9194 24.5851 20.5195H27.2483C26.2185 22.4483 24.647 23.6925 22.6133 24.426Z" fill="#2E90FA"/>
</svg>
