<svg width="20" height="20" viewBox="0 0 20 20" fill="none" xmlns="http://www.w3.org/2000/svg">
    <path d="M20 0.431849V18.4375C19.9875 18.4671 19.9772 18.4977 19.9692 18.5289C19.9005 18.949 19.6804 19.3295 19.3503 19.5985C19.0842 19.8239 18.7667 19.9232 18.4375 20H18.0462C18.0349 19.9932 18.0246 19.9819 18.0129 19.9804C17.103 19.8557 16.4543 19.0835 16.4803 18.0966C16.4974 17.4608 16.4837 16.8216 16.4832 16.1839C16.4832 16.1296 16.4778 16.0753 16.4734 15.9941C14.8948 17.6217 13.0163 18.5822 10.7816 18.7857C8.54702 18.9891 6.52665 18.3568 4.68826 17.0363C4.68826 17.451 4.69217 17.8217 4.68826 18.1924C4.68092 18.7945 4.4647 19.309 3.95888 19.6469C3.71428 19.8107 3.40609 19.8836 3.12725 19.998H2.73589C2.55098 19.9403 2.35481 19.9061 2.18408 19.821C1.4909 19.4762 1.1739 18.8962 1.17341 18.1328C1.17341 14.8854 1.17341 11.6381 1.17341 8.39076C1.18009 8.34577 1.1791 8.29996 1.17048 8.2553C1.14797 8.19759 1.11813 8.12081 1.0697 8.09782C0.335914 7.75059 0.000326129 7.1647 0.00130451 6.36607C0.00130451 4.89531 0.00130451 3.42455 0.00130451 1.95379C0.00130451 1.50484 -0.00163064 1.05589 0.00130451 0.606931C0.00130451 0.338928 0.148063 0.130101 0.375049 0.0420705C0.778144 -0.11345 1.1695 0.179006 1.17048 0.6441C1.17276 1.93228 1.17276 3.22013 1.17048 4.50765V4.71208H2.34454V4.46266C2.34454 3.19372 2.34454 1.92461 2.34454 0.655347C2.34454 0.382453 2.44482 0.170692 2.69676 0.0552745C3.09692 -0.128611 3.51518 0.168247 3.51616 0.638231C3.51958 1.9269 3.51616 3.21507 3.51616 4.50178V4.71305H4.69022V3.49041C4.69022 2.54017 4.69022 1.59042 4.69022 0.640186C4.69022 0.261167 4.93482 -0.00194539 5.27725 1.08353e-05C5.61969 0.00196706 5.85597 0.26508 5.85988 0.646544C5.85988 0.822116 5.85988 0.998176 5.85988 1.17375V2.19539C9.52883 0.532595 12.8994 0.972746 16.0141 3.51584C16.0596 3.43026 16.1119 3.33489 16.1608 3.23659C16.811 1.89413 17.8397 0.903789 19.0779 0.111028C19.4139 -0.103668 19.7662 0.00245709 19.9477 0.355556C19.9636 0.381997 19.9811 0.407472 20 0.431849ZM9.95736 4.71648C9.67999 4.74729 9.39968 4.76538 9.12573 4.81038C7.83133 5.02996 6.7595 5.6452 5.9088 6.64434C5.86805 6.6941 5.84001 6.75301 5.8271 6.816C5.74741 7.20785 5.53866 7.56169 5.2342 7.82101C5.17015 7.87419 5.11883 7.94103 5.08402 8.01664C4.69396 8.96119 4.59185 9.99993 4.7905 11.0023C5.33693 13.8516 8.15322 15.7349 11.0262 15.1711C13.8146 14.6233 15.679 11.9775 15.2465 9.1845C14.8517 6.64679 12.5437 4.68029 9.95736 4.71648ZM16.4847 11.7589H16.9504C17.4361 11.7589 17.6558 11.9765 17.6563 12.4587C17.6563 13.7146 17.6563 14.9699 17.6563 16.2245C17.6563 16.8818 17.6563 17.5391 17.6563 18.1959C17.6563 18.4893 17.7996 18.7006 18.0476 18.7891C18.4595 18.9358 18.8303 18.637 18.8303 18.1489C18.8303 12.7419 18.8303 7.33505 18.8303 1.92836C18.8303 1.87408 18.8225 1.82028 18.8181 1.76013C18.8 1.76593 18.7825 1.77347 18.7658 1.78262C18.7252 1.81588 18.685 1.84914 18.6474 1.88435C17.2493 3.19796 16.5228 4.81233 16.4896 6.7309C16.4749 7.56964 16.4896 8.40935 16.4896 9.24857L16.4847 11.7589ZM16.4847 12.9326C16.3174 12.9326 16.1726 12.9488 16.0331 12.9287C15.834 12.8999 15.7396 12.9845 15.6418 13.1537C14.3855 15.417 11.7703 16.739 9.20156 16.3986C7.40035 16.1599 5.94255 15.3085 4.82621 13.8736C4.7905 13.8276 4.75284 13.7821 4.68631 13.7C4.68631 14.3035 4.68386 14.8497 4.69022 15.396C4.69634 15.4642 4.72733 15.5277 4.7773 15.5745C6.45082 17.0803 8.40564 17.8217 10.6594 17.6149C13.1234 17.3889 15.0352 16.1922 16.4211 14.1494C16.4548 14.1028 16.4751 14.0478 16.4798 13.9905C16.4871 13.6447 16.4842 13.3004 16.4842 12.9307L16.4847 12.9326ZM5.86037 5.03241C7.36757 3.87334 9.02104 3.37402 10.8682 3.6205C12.7154 3.86699 14.1801 4.79424 15.2964 6.28342C15.3766 5.82175 15.4466 5.38013 15.5332 4.94144C15.5494 4.8869 15.5493 4.82882 15.5331 4.77429C15.5168 4.71976 15.4851 4.67113 15.4417 4.63432C14.1046 3.32006 12.5038 2.58142 10.6393 2.4184C8.96674 2.27511 7.41062 2.6551 5.97484 3.5178C5.92592 3.54714 5.86624 3.60828 5.86575 3.65522C5.85743 4.10222 5.86037 4.54873 5.86037 5.03241ZM2.34454 8.25089V8.42891C2.34454 11.6684 2.34454 14.9081 2.34454 18.1479C2.34307 18.2 2.34454 18.2521 2.34894 18.304C2.36344 18.448 2.43092 18.5815 2.53831 18.6786C2.64569 18.7757 2.78532 18.8294 2.9301 18.8294C3.07489 18.8294 3.21452 18.7757 3.3219 18.6786C3.42928 18.5815 3.49677 18.448 3.51126 18.304C3.51618 18.2389 3.51765 18.1736 3.51567 18.1083C3.51567 14.8946 3.51567 11.681 3.51567 8.46755V8.25432L2.34454 8.25089ZM1.17488 5.90635C1.17488 6.12056 1.16705 6.31521 1.17488 6.50887C1.17756 6.65734 1.23821 6.79888 1.34388 6.90324C1.44955 7.0076 1.59185 7.06651 1.74039 7.06738C2.53288 7.07553 3.3257 7.07553 4.11884 7.06738C4.25103 7.06977 4.37958 7.02399 4.48048 6.93859C4.58139 6.85319 4.64777 6.734 4.66723 6.60326C4.69658 6.37634 4.67359 6.14208 4.67359 5.90587L1.17488 5.90635Z"
          fill="#8F9194"/>
</svg>
