<svg width="22" height="22" viewBox="0 0 22 22" fill="none" xmlns="http://www.w3.org/2000/svg">
    <mask id="path-1-outside-1_1310_22857" maskUnits="userSpaceOnUse" x="0" y="-0.000976562" width="22" height="22" fill="black">
        <rect fill="white" y="-0.000976562" width="22" height="22"/>
        <path d="M17.8359 1.00007H18.1875C18.2283 1.01623 18.2698 1.03031 18.312 1.04225C19.6573 1.361 20.5245 2.18184 20.8995 3.51517C20.9411 3.66413 20.9667 3.81725 21 3.96882V11.8985C20.9797 11.9506 20.9568 12.0027 20.9396 12.0579C20.8094 12.4589 20.5516 12.7485 20.1583 12.8985C20.0203 12.9506 19.9937 13.023 19.9943 13.1537C19.9974 15.0058 19.9974 16.8579 19.9943 18.71C19.9943 19.0412 20.001 19.373 19.9885 19.7042C19.979 19.9789 19.885 20.2439 19.7194 20.4632C19.5538 20.6825 19.3246 20.8454 19.063 20.9298C19.0031 20.9501 18.9458 20.9766 18.8875 21.0001H18.4578C17.5724 20.6839 17.3281 20.3303 17.3281 19.3745V15.8673C17.138 16.1469 16.988 16.3818 16.824 16.6068C15.6135 18.2631 14.0745 19.5626 12.374 20.6839C12.1964 20.8011 12.0031 20.8954 11.8172 21.0001H11.5047C11.399 20.952 11.2962 20.8978 11.1969 20.8376C10.7031 20.5006 10.1984 20.1766 9.72396 19.8136C8.29323 18.7199 7.00938 17.4839 6.05469 15.9376C6.04688 15.9256 6.0276 15.9204 5.99687 15.9011V16.1298C5.99687 17.2881 5.99687 18.4464 5.99687 19.6048C5.99687 20.2761 5.59635 20.7897 4.95521 20.9626C4.92524 20.9731 4.89601 20.9856 4.86771 21.0001H4.4375C3.55208 20.7339 3.32396 20.137 3.32812 19.3537C3.34739 15.8777 3.33646 12.4022 3.33646 8.92611V8.69069C3.31632 8.68071 3.29543 8.67235 3.27396 8.66569C3.24844 8.66205 3.22188 8.66153 3.19636 8.65944C2.35625 8.59122 1.7125 8.19642 1.30312 7.46152C1.16041 7.20527 1.09844 6.90423 1 6.62402V1.82038C1.1276 1.40371 1.39687 1.1235 1.82031 1.00007H2.17188C2.84896 1.21152 3.01927 1.65475 3.00521 2.21673C2.98281 3.00267 2.99844 3.79017 3.00052 4.57663C3.00052 4.8334 3.1349 4.99329 3.33959 4.99329C3.54427 4.99329 3.66511 4.84694 3.66563 4.57663C3.66563 3.80267 3.68229 3.02871 3.66094 2.25527C3.64323 1.63027 3.87344 1.20215 4.47917 1.00111H4.86979C5.47552 1.20528 5.70313 1.63496 5.67761 2.25996C5.65 3.00059 5.67083 3.74329 5.67187 4.48496C5.66741 4.56942 5.67354 4.65411 5.69011 4.73705C5.73125 4.89955 5.84219 4.99746 6.01354 4.99225C6.1849 4.98705 6.29167 4.89173 6.32604 4.7235C6.33683 4.65287 6.34084 4.58136 6.33802 4.50996C6.33802 3.70319 6.34115 2.89538 6.33802 2.08965C6.33802 1.79017 6.40469 1.51152 6.63125 1.31152C6.77708 1.18236 6.96719 1.10319 7.1375 0.999023H7.52812C8.01666 1.16465 8.33594 1.47507 8.33854 2.01673C8.34583 3.46205 8.35469 4.90736 8.33541 6.35215C8.32344 7.23184 7.91094 7.90632 7.15365 8.35892C6.80842 8.55917 6.4173 8.66682 6.01823 8.67142V10.0193C6.08541 9.96049 6.13281 9.91829 6.18125 9.87715C6.82528 9.31593 7.64992 9.00549 8.50416 9.00267C9.48333 8.98861 10.3141 9.36413 11.0672 9.95111C11.2755 10.1141 11.4698 10.2964 11.6594 10.46C11.9766 10.2074 12.274 9.94382 12.5969 9.7183C14.1495 8.63653 16.0469 8.81152 17.2844 9.98496C17.2906 9.99121 17.3073 9.98496 17.3365 9.98861V9.78027C17.3365 7.14381 17.3411 4.50736 17.3313 1.8709C17.3245 1.45788 17.4495 1.16257 17.8359 1.00007ZM5.66823 12.5808C5.69115 13.7219 6.0849 14.7459 6.68646 15.6928C7.92396 17.6344 9.65834 19.0532 11.5693 20.2803C11.6022 20.2951 11.6382 20.3021 11.6743 20.3008C11.7104 20.2996 11.7457 20.29 11.7776 20.273C12.0276 20.1209 12.2724 19.9605 12.512 19.7923C13.9115 18.8131 15.1953 17.7089 16.2182 16.3277C17.0089 15.26 17.5672 14.099 17.6656 12.7438C17.8073 10.8032 16.051 9.28392 14.1552 9.73548C13.2937 9.94069 12.6208 10.4516 12.0292 11.085C11.7375 11.3975 11.5984 11.3975 11.3146 11.0896C10.8651 10.6001 10.3531 10.1954 9.74375 9.92142C7.78542 9.04121 5.61302 10.46 5.66823 12.5808ZM4.00156 14.0292C4.00156 15.2074 4.00156 16.3855 4.00156 17.5636C4.00156 18.2667 4.00156 18.9699 4.00156 19.6725C4.00156 19.9636 4.14896 20.1673 4.41094 20.2813C4.67292 20.3954 4.89792 20.3298 5.09792 20.1511C5.27396 19.9949 5.33333 19.7865 5.33281 19.5542C5.33038 18.0313 5.33038 16.5082 5.33281 14.985C5.33449 14.642 5.28964 14.3003 5.19948 13.9693C4.93906 12.9954 4.87916 12.0199 5.30052 11.0641C5.32517 10.9908 5.33492 10.9132 5.32917 10.836C5.32917 10.0219 5.32917 9.2084 5.32917 8.39486C5.32917 8.14902 5.44271 8.01778 5.66406 7.99902C5.7349 7.9933 5.80729 7.99902 5.87865 7.99902C6.96406 7.99902 7.66198 7.30215 7.66302 6.21725C7.66511 4.85718 7.66511 3.49694 7.66302 2.13652C7.66614 2.05869 7.65807 1.98081 7.63906 1.90527C7.62267 1.83432 7.58128 1.77164 7.52246 1.7287C7.46364 1.68575 7.39132 1.66542 7.31875 1.67142C7.2461 1.6725 7.17604 1.69857 7.12036 1.74524C7.06468 1.79191 7.02677 1.85633 7.01302 1.92767C6.99782 2.00428 6.99257 2.08253 6.9974 2.16048C6.9974 2.94798 6.9974 3.73548 6.9974 4.52298C6.99805 4.63351 6.99003 4.74392 6.97343 4.85319C6.93601 5.05957 6.83379 5.24865 6.68159 5.39298C6.5294 5.53731 6.33516 5.62937 6.12708 5.6558C5.50208 5.72715 5.00312 5.2683 4.99531 4.60475C4.9875 3.96048 4.99531 3.31569 4.99531 2.67142C4.99531 2.45007 5 2.22871 4.99167 2.00788C4.99355 1.92212 4.96198 1.839 4.90366 1.7761C4.84533 1.71321 4.76482 1.67548 4.67917 1.6709C4.51302 1.66152 4.36667 1.79173 4.33594 1.9808C4.32837 2.04543 4.32576 2.11055 4.32813 2.17559C4.32813 2.9959 4.32813 3.81569 4.32813 4.636C4.32552 5.0985 4.07865 5.45788 3.67656 5.60579C3.0224 5.84746 2.33854 5.35527 2.33281 4.62871C2.32552 3.77611 2.33281 2.9235 2.33281 2.0709C2.33281 1.82663 2.20052 1.6683 2.00521 1.6683C1.8099 1.6683 1.66875 1.83236 1.66875 2.06934C1.66875 3.50111 1.6651 4.93392 1.66875 6.36517C1.66923 6.76066 1.81789 7.14161 2.08541 7.43288C2.46771 7.86361 2.95521 8.02142 3.52031 8.00215C3.90417 7.98861 4.00521 8.10007 4.00521 8.48548C4.00416 10.3331 4.00347 12.181 4.00313 14.0292H4.00156ZM17.9953 1.6808V1.911C17.9953 4.7492 17.9953 7.58722 17.9953 10.4251C17.9869 10.7546 18.0366 11.0831 18.1422 11.3954C18.4818 12.3521 18.3297 13.3063 18.0552 14.2516C18.0207 14.3625 18.0019 14.4777 17.9995 14.5938C17.9957 16.2407 17.9948 17.8876 17.9969 19.5344C17.9969 19.5865 17.9969 19.6386 17.9969 19.6907C18.0046 19.8516 18.0693 20.0044 18.1796 20.1219C18.2899 20.2393 18.4384 20.3135 18.5984 20.3313C18.8974 20.3636 19.2198 20.1381 19.3005 19.8251C19.323 19.7169 19.3319 19.6063 19.3271 19.4959C19.3271 17.2831 19.3271 15.0699 19.3271 12.8563C19.3247 12.7912 19.3258 12.726 19.3302 12.661C19.3505 12.4667 19.4604 12.3579 19.6557 12.3324C20.1245 12.2704 20.3328 12.0381 20.3328 11.5683C20.3328 9.17906 20.3318 6.79017 20.3297 4.40163C20.3292 4.1611 20.3026 3.92134 20.2505 3.68653C20.0135 2.62559 19.0302 1.75059 17.9969 1.6808H17.9953Z"/>
        <path d="M10.2839 14.3599C10.1797 14.6157 10.0859 14.8365 10.0021 15.061C9.93177 15.2506 9.80521 15.3381 9.6026 15.336C9.19896 15.3313 8.79531 15.336 8.39167 15.336C8.15208 15.336 7.99531 15.1943 7.99948 14.9954C8.00364 14.7964 8.15573 14.6735 8.38594 14.6719C8.67865 14.6719 8.97188 14.6631 9.26458 14.6719C9.3974 14.6771 9.46093 14.6344 9.50729 14.511C9.66354 14.0974 9.83333 13.6896 9.99375 13.2776C10.0583 13.112 10.1552 12.9886 10.3479 13C10.5406 13.0115 10.6271 13.1391 10.6781 13.3099C10.8986 14.0513 11.1207 14.7919 11.3443 15.5318C11.3568 15.5735 11.3745 15.6136 11.4026 15.6881L12.1276 14.0615C12.2016 13.8954 12.2745 13.7287 12.3479 13.5625C12.4115 13.4183 12.5146 13.3329 12.6792 13.3375C12.8354 13.3417 12.9292 13.4323 12.9875 13.5678C13.2056 14.075 13.4234 14.5825 13.6411 15.0901C13.6661 15.1474 13.6932 15.2037 13.7344 15.2896C13.8385 15.1334 13.9328 15.0042 14.0182 14.8693C14.055 14.8039 14.1094 14.7502 14.1753 14.7143C14.2411 14.6784 14.3157 14.6617 14.3906 14.6662C14.8005 14.6714 15.2104 14.6662 15.6208 14.6662C15.851 14.6662 15.999 14.8006 15.999 14.9964C15.999 15.1922 15.8484 15.3271 15.6208 15.3297C15.3016 15.3334 14.9823 15.323 14.6641 15.3365C14.5741 15.3455 14.4912 15.3894 14.4333 15.4589C14.2693 15.6771 14.1208 15.9084 13.974 16.136C13.8932 16.2599 13.7885 16.336 13.6354 16.3224C13.4823 16.3089 13.3969 16.2105 13.3391 16.0745C13.1203 15.5605 12.8979 15.048 12.662 14.5037C12.6208 14.5891 12.5911 14.648 12.5641 14.7084C12.2682 15.3735 11.9703 16.0375 11.6786 16.7042C11.6052 16.873 11.5089 17.0042 11.3083 16.9901C11.1078 16.9761 11.0323 16.8302 10.9807 16.6547C10.7698 15.9381 10.5521 15.223 10.3365 14.5079C10.3271 14.4761 10.3125 14.4407 10.2839 14.3599Z"/>
    </mask>
    <path d="M17.8359 1.00007H18.1875C18.2283 1.01623 18.2698 1.03031 18.312 1.04225C19.6573 1.361 20.5245 2.18184 20.8995 3.51517C20.9411 3.66413 20.9667 3.81725 21 3.96882V11.8985C20.9797 11.9506 20.9568 12.0027 20.9396 12.0579C20.8094 12.4589 20.5516 12.7485 20.1583 12.8985C20.0203 12.9506 19.9937 13.023 19.9943 13.1537C19.9974 15.0058 19.9974 16.8579 19.9943 18.71C19.9943 19.0412 20.001 19.373 19.9885 19.7042C19.979 19.9789 19.885 20.2439 19.7194 20.4632C19.5538 20.6825 19.3246 20.8454 19.063 20.9298C19.0031 20.9501 18.9458 20.9766 18.8875 21.0001H18.4578C17.5724 20.6839 17.3281 20.3303 17.3281 19.3745V15.8673C17.138 16.1469 16.988 16.3818 16.824 16.6068C15.6135 18.2631 14.0745 19.5626 12.374 20.6839C12.1964 20.8011 12.0031 20.8954 11.8172 21.0001H11.5047C11.399 20.952 11.2962 20.8978 11.1969 20.8376C10.7031 20.5006 10.1984 20.1766 9.72396 19.8136C8.29323 18.7199 7.00938 17.4839 6.05469 15.9376C6.04688 15.9256 6.0276 15.9204 5.99687 15.9011V16.1298C5.99687 17.2881 5.99687 18.4464 5.99687 19.6048C5.99687 20.2761 5.59635 20.7897 4.95521 20.9626C4.92524 20.9731 4.89601 20.9856 4.86771 21.0001H4.4375C3.55208 20.7339 3.32396 20.137 3.32812 19.3537C3.34739 15.8777 3.33646 12.4022 3.33646 8.92611V8.69069C3.31632 8.68071 3.29543 8.67235 3.27396 8.66569C3.24844 8.66205 3.22188 8.66153 3.19636 8.65944C2.35625 8.59122 1.7125 8.19642 1.30312 7.46152C1.16041 7.20527 1.09844 6.90423 1 6.62402V1.82038C1.1276 1.40371 1.39687 1.1235 1.82031 1.00007H2.17188C2.84896 1.21152 3.01927 1.65475 3.00521 2.21673C2.98281 3.00267 2.99844 3.79017 3.00052 4.57663C3.00052 4.8334 3.1349 4.99329 3.33959 4.99329C3.54427 4.99329 3.66511 4.84694 3.66563 4.57663C3.66563 3.80267 3.68229 3.02871 3.66094 2.25527C3.64323 1.63027 3.87344 1.20215 4.47917 1.00111H4.86979C5.47552 1.20528 5.70313 1.63496 5.67761 2.25996C5.65 3.00059 5.67083 3.74329 5.67187 4.48496C5.66741 4.56942 5.67354 4.65411 5.69011 4.73705C5.73125 4.89955 5.84219 4.99746 6.01354 4.99225C6.1849 4.98705 6.29167 4.89173 6.32604 4.7235C6.33683 4.65287 6.34084 4.58136 6.33802 4.50996C6.33802 3.70319 6.34115 2.89538 6.33802 2.08965C6.33802 1.79017 6.40469 1.51152 6.63125 1.31152C6.77708 1.18236 6.96719 1.10319 7.1375 0.999023H7.52812C8.01666 1.16465 8.33594 1.47507 8.33854 2.01673C8.34583 3.46205 8.35469 4.90736 8.33541 6.35215C8.32344 7.23184 7.91094 7.90632 7.15365 8.35892C6.80842 8.55917 6.4173 8.66682 6.01823 8.67142V10.0193C6.08541 9.96049 6.13281 9.91829 6.18125 9.87715C6.82528 9.31593 7.64992 9.00549 8.50416 9.00267C9.48333 8.98861 10.3141 9.36413 11.0672 9.95111C11.2755 10.1141 11.4698 10.2964 11.6594 10.46C11.9766 10.2074 12.274 9.94382 12.5969 9.7183C14.1495 8.63653 16.0469 8.81152 17.2844 9.98496C17.2906 9.99121 17.3073 9.98496 17.3365 9.98861V9.78027C17.3365 7.14381 17.3411 4.50736 17.3313 1.8709C17.3245 1.45788 17.4495 1.16257 17.8359 1.00007ZM5.66823 12.5808C5.69115 13.7219 6.0849 14.7459 6.68646 15.6928C7.92396 17.6344 9.65834 19.0532 11.5693 20.2803C11.6022 20.2951 11.6382 20.3021 11.6743 20.3008C11.7104 20.2996 11.7457 20.29 11.7776 20.273C12.0276 20.1209 12.2724 19.9605 12.512 19.7923C13.9115 18.8131 15.1953 17.7089 16.2182 16.3277C17.0089 15.26 17.5672 14.099 17.6656 12.7438C17.8073 10.8032 16.051 9.28392 14.1552 9.73548C13.2937 9.94069 12.6208 10.4516 12.0292 11.085C11.7375 11.3975 11.5984 11.3975 11.3146 11.0896C10.8651 10.6001 10.3531 10.1954 9.74375 9.92142C7.78542 9.04121 5.61302 10.46 5.66823 12.5808ZM4.00156 14.0292C4.00156 15.2074 4.00156 16.3855 4.00156 17.5636C4.00156 18.2667 4.00156 18.9699 4.00156 19.6725C4.00156 19.9636 4.14896 20.1673 4.41094 20.2813C4.67292 20.3954 4.89792 20.3298 5.09792 20.1511C5.27396 19.9949 5.33333 19.7865 5.33281 19.5542C5.33038 18.0313 5.33038 16.5082 5.33281 14.985C5.33449 14.642 5.28964 14.3003 5.19948 13.9693C4.93906 12.9954 4.87916 12.0199 5.30052 11.0641C5.32517 10.9908 5.33492 10.9132 5.32917 10.836C5.32917 10.0219 5.32917 9.2084 5.32917 8.39486C5.32917 8.14902 5.44271 8.01778 5.66406 7.99902C5.7349 7.9933 5.80729 7.99902 5.87865 7.99902C6.96406 7.99902 7.66198 7.30215 7.66302 6.21725C7.66511 4.85718 7.66511 3.49694 7.66302 2.13652C7.66614 2.05869 7.65807 1.98081 7.63906 1.90527C7.62267 1.83432 7.58128 1.77164 7.52246 1.7287C7.46364 1.68575 7.39132 1.66542 7.31875 1.67142C7.2461 1.6725 7.17604 1.69857 7.12036 1.74524C7.06468 1.79191 7.02677 1.85633 7.01302 1.92767C6.99782 2.00428 6.99257 2.08253 6.9974 2.16048C6.9974 2.94798 6.9974 3.73548 6.9974 4.52298C6.99805 4.63351 6.99003 4.74392 6.97343 4.85319C6.93601 5.05957 6.83379 5.24865 6.68159 5.39298C6.5294 5.53731 6.33516 5.62937 6.12708 5.6558C5.50208 5.72715 5.00312 5.2683 4.99531 4.60475C4.9875 3.96048 4.99531 3.31569 4.99531 2.67142C4.99531 2.45007 5 2.22871 4.99167 2.00788C4.99355 1.92212 4.96198 1.839 4.90366 1.7761C4.84533 1.71321 4.76482 1.67548 4.67917 1.6709C4.51302 1.66152 4.36667 1.79173 4.33594 1.9808C4.32837 2.04543 4.32576 2.11055 4.32813 2.17559C4.32813 2.9959 4.32813 3.81569 4.32813 4.636C4.32552 5.0985 4.07865 5.45788 3.67656 5.60579C3.0224 5.84746 2.33854 5.35527 2.33281 4.62871C2.32552 3.77611 2.33281 2.9235 2.33281 2.0709C2.33281 1.82663 2.20052 1.6683 2.00521 1.6683C1.8099 1.6683 1.66875 1.83236 1.66875 2.06934C1.66875 3.50111 1.6651 4.93392 1.66875 6.36517C1.66923 6.76066 1.81789 7.14161 2.08541 7.43288C2.46771 7.86361 2.95521 8.02142 3.52031 8.00215C3.90417 7.98861 4.00521 8.10007 4.00521 8.48548C4.00416 10.3331 4.00347 12.181 4.00313 14.0292H4.00156ZM17.9953 1.6808V1.911C17.9953 4.7492 17.9953 7.58722 17.9953 10.4251C17.9869 10.7546 18.0366 11.0831 18.1422 11.3954C18.4818 12.3521 18.3297 13.3063 18.0552 14.2516C18.0207 14.3625 18.0019 14.4777 17.9995 14.5938C17.9957 16.2407 17.9948 17.8876 17.9969 19.5344C17.9969 19.5865 17.9969 19.6386 17.9969 19.6907C18.0046 19.8516 18.0693 20.0044 18.1796 20.1219C18.2899 20.2393 18.4384 20.3135 18.5984 20.3313C18.8974 20.3636 19.2198 20.1381 19.3005 19.8251C19.323 19.7169 19.3319 19.6063 19.3271 19.4959C19.3271 17.2831 19.3271 15.0699 19.3271 12.8563C19.3247 12.7912 19.3258 12.726 19.3302 12.661C19.3505 12.4667 19.4604 12.3579 19.6557 12.3324C20.1245 12.2704 20.3328 12.0381 20.3328 11.5683C20.3328 9.17906 20.3318 6.79017 20.3297 4.40163C20.3292 4.1611 20.3026 3.92134 20.2505 3.68653C20.0135 2.62559 19.0302 1.75059 17.9969 1.6808H17.9953Z" fill="#8F9194"/>
    <path d="M10.2839 14.3599C10.1797 14.6157 10.0859 14.8365 10.0021 15.061C9.93177 15.2506 9.80521 15.3381 9.6026 15.336C9.19896 15.3313 8.79531 15.336 8.39167 15.336C8.15208 15.336 7.99531 15.1943 7.99948 14.9954C8.00364 14.7964 8.15573 14.6735 8.38594 14.6719C8.67865 14.6719 8.97188 14.6631 9.26458 14.6719C9.3974 14.6771 9.46093 14.6344 9.50729 14.511C9.66354 14.0974 9.83333 13.6896 9.99375 13.2776C10.0583 13.112 10.1552 12.9886 10.3479 13C10.5406 13.0115 10.6271 13.1391 10.6781 13.3099C10.8986 14.0513 11.1207 14.7919 11.3443 15.5318C11.3568 15.5735 11.3745 15.6136 11.4026 15.6881L12.1276 14.0615C12.2016 13.8954 12.2745 13.7287 12.3479 13.5625C12.4115 13.4183 12.5146 13.3329 12.6792 13.3375C12.8354 13.3417 12.9292 13.4323 12.9875 13.5678C13.2056 14.075 13.4234 14.5825 13.6411 15.0901C13.6661 15.1474 13.6932 15.2037 13.7344 15.2896C13.8385 15.1334 13.9328 15.0042 14.0182 14.8693C14.055 14.8039 14.1094 14.7502 14.1753 14.7143C14.2411 14.6784 14.3157 14.6617 14.3906 14.6662C14.8005 14.6714 15.2104 14.6662 15.6208 14.6662C15.851 14.6662 15.999 14.8006 15.999 14.9964C15.999 15.1922 15.8484 15.3271 15.6208 15.3297C15.3016 15.3334 14.9823 15.323 14.6641 15.3365C14.5741 15.3455 14.4912 15.3894 14.4333 15.4589C14.2693 15.6771 14.1208 15.9084 13.974 16.136C13.8932 16.2599 13.7885 16.336 13.6354 16.3224C13.4823 16.3089 13.3969 16.2105 13.3391 16.0745C13.1203 15.5605 12.8979 15.048 12.662 14.5037C12.6208 14.5891 12.5911 14.648 12.5641 14.7084C12.2682 15.3735 11.9703 16.0375 11.6786 16.7042C11.6052 16.873 11.5089 17.0042 11.3083 16.9901C11.1078 16.9761 11.0323 16.8302 10.9807 16.6547C10.7698 15.9381 10.5521 15.223 10.3365 14.5079C10.3271 14.4761 10.3125 14.4407 10.2839 14.3599Z" fill="#8F9194"/>
    <path d="M17.8359 1.00007H18.1875C18.2283 1.01623 18.2698 1.03031 18.312 1.04225C19.6573 1.361 20.5245 2.18184 20.8995 3.51517C20.9411 3.66413 20.9667 3.81725 21 3.96882V11.8985C20.9797 11.9506 20.9568 12.0027 20.9396 12.0579C20.8094 12.4589 20.5516 12.7485 20.1583 12.8985C20.0203 12.9506 19.9937 13.023 19.9943 13.1537C19.9974 15.0058 19.9974 16.8579 19.9943 18.71C19.9943 19.0412 20.001 19.373 19.9885 19.7042C19.979 19.9789 19.885 20.2439 19.7194 20.4632C19.5538 20.6825 19.3246 20.8454 19.063 20.9298C19.0031 20.9501 18.9458 20.9766 18.8875 21.0001H18.4578C17.5724 20.6839 17.3281 20.3303 17.3281 19.3745V15.8673C17.138 16.1469 16.988 16.3818 16.824 16.6068C15.6135 18.2631 14.0745 19.5626 12.374 20.6839C12.1964 20.8011 12.0031 20.8954 11.8172 21.0001H11.5047C11.399 20.952 11.2962 20.8978 11.1969 20.8376C10.7031 20.5006 10.1984 20.1766 9.72396 19.8136C8.29323 18.7199 7.00938 17.4839 6.05469 15.9376C6.04688 15.9256 6.0276 15.9204 5.99687 15.9011V16.1298C5.99687 17.2881 5.99687 18.4464 5.99687 19.6048C5.99687 20.2761 5.59635 20.7897 4.95521 20.9626C4.92524 20.9731 4.89601 20.9856 4.86771 21.0001H4.4375C3.55208 20.7339 3.32396 20.137 3.32812 19.3537C3.34739 15.8777 3.33646 12.4022 3.33646 8.92611V8.69069C3.31632 8.68071 3.29543 8.67235 3.27396 8.66569C3.24844 8.66205 3.22188 8.66153 3.19636 8.65944C2.35625 8.59122 1.7125 8.19642 1.30312 7.46152C1.16041 7.20527 1.09844 6.90423 1 6.62402V1.82038C1.1276 1.40371 1.39687 1.1235 1.82031 1.00007H2.17188C2.84896 1.21152 3.01927 1.65475 3.00521 2.21673C2.98281 3.00267 2.99844 3.79017 3.00052 4.57663C3.00052 4.8334 3.1349 4.99329 3.33959 4.99329C3.54427 4.99329 3.66511 4.84694 3.66563 4.57663C3.66563 3.80267 3.68229 3.02871 3.66094 2.25527C3.64323 1.63027 3.87344 1.20215 4.47917 1.00111H4.86979C5.47552 1.20528 5.70313 1.63496 5.67761 2.25996C5.65 3.00059 5.67083 3.74329 5.67187 4.48496C5.66741 4.56942 5.67354 4.65411 5.69011 4.73705C5.73125 4.89955 5.84219 4.99746 6.01354 4.99225C6.1849 4.98705 6.29167 4.89173 6.32604 4.7235C6.33683 4.65287 6.34084 4.58136 6.33802 4.50996C6.33802 3.70319 6.34115 2.89538 6.33802 2.08965C6.33802 1.79017 6.40469 1.51152 6.63125 1.31152C6.77708 1.18236 6.96719 1.10319 7.1375 0.999023H7.52812C8.01666 1.16465 8.33594 1.47507 8.33854 2.01673C8.34583 3.46205 8.35469 4.90736 8.33541 6.35215C8.32344 7.23184 7.91094 7.90632 7.15365 8.35892C6.80842 8.55917 6.4173 8.66682 6.01823 8.67142V10.0193C6.08541 9.96049 6.13281 9.91829 6.18125 9.87715C6.82528 9.31593 7.64992 9.00549 8.50416 9.00267C9.48333 8.98861 10.3141 9.36413 11.0672 9.95111C11.2755 10.1141 11.4698 10.2964 11.6594 10.46C11.9766 10.2074 12.274 9.94382 12.5969 9.7183C14.1495 8.63653 16.0469 8.81152 17.2844 9.98496C17.2906 9.99121 17.3073 9.98496 17.3365 9.98861V9.78027C17.3365 7.14381 17.3411 4.50736 17.3313 1.8709C17.3245 1.45788 17.4495 1.16257 17.8359 1.00007ZM5.66823 12.5808C5.69115 13.7219 6.0849 14.7459 6.68646 15.6928C7.92396 17.6344 9.65834 19.0532 11.5693 20.2803C11.6022 20.2951 11.6382 20.3021 11.6743 20.3008C11.7104 20.2996 11.7457 20.29 11.7776 20.273C12.0276 20.1209 12.2724 19.9605 12.512 19.7923C13.9115 18.8131 15.1953 17.7089 16.2182 16.3277C17.0089 15.26 17.5672 14.099 17.6656 12.7438C17.8073 10.8032 16.051 9.28392 14.1552 9.73548C13.2937 9.94069 12.6208 10.4516 12.0292 11.085C11.7375 11.3975 11.5984 11.3975 11.3146 11.0896C10.8651 10.6001 10.3531 10.1954 9.74375 9.92142C7.78542 9.04121 5.61302 10.46 5.66823 12.5808ZM4.00156 14.0292C4.00156 15.2074 4.00156 16.3855 4.00156 17.5636C4.00156 18.2667 4.00156 18.9699 4.00156 19.6725C4.00156 19.9636 4.14896 20.1673 4.41094 20.2813C4.67292 20.3954 4.89792 20.3298 5.09792 20.1511C5.27396 19.9949 5.33333 19.7865 5.33281 19.5542C5.33038 18.0313 5.33038 16.5082 5.33281 14.985C5.33449 14.642 5.28964 14.3003 5.19948 13.9693C4.93906 12.9954 4.87916 12.0199 5.30052 11.0641C5.32517 10.9908 5.33492 10.9132 5.32917 10.836C5.32917 10.0219 5.32917 9.2084 5.32917 8.39486C5.32917 8.14902 5.44271 8.01778 5.66406 7.99902C5.7349 7.9933 5.80729 7.99902 5.87865 7.99902C6.96406 7.99902 7.66198 7.30215 7.66302 6.21725C7.66511 4.85718 7.66511 3.49694 7.66302 2.13652C7.66614 2.05869 7.65807 1.98081 7.63906 1.90527C7.62267 1.83432 7.58128 1.77164 7.52246 1.7287C7.46364 1.68575 7.39132 1.66542 7.31875 1.67142C7.2461 1.6725 7.17604 1.69857 7.12036 1.74524C7.06468 1.79191 7.02677 1.85633 7.01302 1.92767C6.99782 2.00428 6.99257 2.08253 6.9974 2.16048C6.9974 2.94798 6.9974 3.73548 6.9974 4.52298C6.99805 4.63351 6.99003 4.74392 6.97343 4.85319C6.93601 5.05957 6.83379 5.24865 6.68159 5.39298C6.5294 5.53731 6.33516 5.62937 6.12708 5.6558C5.50208 5.72715 5.00312 5.2683 4.99531 4.60475C4.9875 3.96048 4.99531 3.31569 4.99531 2.67142C4.99531 2.45007 5 2.22871 4.99167 2.00788C4.99355 1.92212 4.96198 1.839 4.90366 1.7761C4.84533 1.71321 4.76482 1.67548 4.67917 1.6709C4.51302 1.66152 4.36667 1.79173 4.33594 1.9808C4.32837 2.04543 4.32576 2.11055 4.32813 2.17559C4.32813 2.9959 4.32813 3.81569 4.32813 4.636C4.32552 5.0985 4.07865 5.45788 3.67656 5.60579C3.0224 5.84746 2.33854 5.35527 2.33281 4.62871C2.32552 3.77611 2.33281 2.9235 2.33281 2.0709C2.33281 1.82663 2.20052 1.6683 2.00521 1.6683C1.8099 1.6683 1.66875 1.83236 1.66875 2.06934C1.66875 3.50111 1.6651 4.93392 1.66875 6.36517C1.66923 6.76066 1.81789 7.14161 2.08541 7.43288C2.46771 7.86361 2.95521 8.02142 3.52031 8.00215C3.90417 7.98861 4.00521 8.10007 4.00521 8.48548C4.00416 10.3331 4.00347 12.181 4.00313 14.0292H4.00156ZM17.9953 1.6808V1.911C17.9953 4.7492 17.9953 7.58722 17.9953 10.4251C17.9869 10.7546 18.0366 11.0831 18.1422 11.3954C18.4818 12.3521 18.3297 13.3063 18.0552 14.2516C18.0207 14.3625 18.0019 14.4777 17.9995 14.5938C17.9957 16.2407 17.9948 17.8876 17.9969 19.5344C17.9969 19.5865 17.9969 19.6386 17.9969 19.6907C18.0046 19.8516 18.0693 20.0044 18.1796 20.1219C18.2899 20.2393 18.4384 20.3135 18.5984 20.3313C18.8974 20.3636 19.2198 20.1381 19.3005 19.8251C19.323 19.7169 19.3319 19.6063 19.3271 19.4959C19.3271 17.2831 19.3271 15.0699 19.3271 12.8563C19.3247 12.7912 19.3258 12.726 19.3302 12.661C19.3505 12.4667 19.4604 12.3579 19.6557 12.3324C20.1245 12.2704 20.3328 12.0381 20.3328 11.5683C20.3328 9.17906 20.3318 6.79017 20.3297 4.40163C20.3292 4.1611 20.3026 3.92134 20.2505 3.68653C20.0135 2.62559 19.0302 1.75059 17.9969 1.6808H17.9953Z" stroke="#8F9194" stroke-width="0.3" mask="url(#path-1-outside-1_1310_22857)"/>
    <path d="M10.2839 14.3599C10.1797 14.6157 10.0859 14.8365 10.0021 15.061C9.93177 15.2506 9.80521 15.3381 9.6026 15.336C9.19896 15.3313 8.79531 15.336 8.39167 15.336C8.15208 15.336 7.99531 15.1943 7.99948 14.9954C8.00364 14.7964 8.15573 14.6735 8.38594 14.6719C8.67865 14.6719 8.97188 14.6631 9.26458 14.6719C9.3974 14.6771 9.46093 14.6344 9.50729 14.511C9.66354 14.0974 9.83333 13.6896 9.99375 13.2776C10.0583 13.112 10.1552 12.9886 10.3479 13C10.5406 13.0115 10.6271 13.1391 10.6781 13.3099C10.8986 14.0513 11.1207 14.7919 11.3443 15.5318C11.3568 15.5735 11.3745 15.6136 11.4026 15.6881L12.1276 14.0615C12.2016 13.8954 12.2745 13.7287 12.3479 13.5625C12.4115 13.4183 12.5146 13.3329 12.6792 13.3375C12.8354 13.3417 12.9292 13.4323 12.9875 13.5678C13.2056 14.075 13.4234 14.5825 13.6411 15.0901C13.6661 15.1474 13.6932 15.2037 13.7344 15.2896C13.8385 15.1334 13.9328 15.0042 14.0182 14.8693C14.055 14.8039 14.1094 14.7502 14.1753 14.7143C14.2411 14.6784 14.3157 14.6617 14.3906 14.6662C14.8005 14.6714 15.2104 14.6662 15.6208 14.6662C15.851 14.6662 15.999 14.8006 15.999 14.9964C15.999 15.1922 15.8484 15.3271 15.6208 15.3297C15.3016 15.3334 14.9823 15.323 14.6641 15.3365C14.5741 15.3455 14.4912 15.3894 14.4333 15.4589C14.2693 15.6771 14.1208 15.9084 13.974 16.136C13.8932 16.2599 13.7885 16.336 13.6354 16.3224C13.4823 16.3089 13.3969 16.2105 13.3391 16.0745C13.1203 15.5605 12.8979 15.048 12.662 14.5037C12.6208 14.5891 12.5911 14.648 12.5641 14.7084C12.2682 15.3735 11.9703 16.0375 11.6786 16.7042C11.6052 16.873 11.5089 17.0042 11.3083 16.9901C11.1078 16.9761 11.0323 16.8302 10.9807 16.6547C10.7698 15.9381 10.5521 15.223 10.3365 14.5079C10.3271 14.4761 10.3125 14.4407 10.2839 14.3599Z" stroke="#8F9194" stroke-width="0.3" mask="url(#path-1-outside-1_1310_22857)"/>
</svg>
