<svg width="20" height="22" viewBox="0 0 20 22" fill="none" xmlns="http://www.w3.org/2000/svg">
    <mask id="path-1-outside-1_1310_13243" maskUnits="userSpaceOnUse" x="-0.000488281" y="0" width="20" height="22" fill="black">
        <rect fill="white" x="-0.000488281" width="20" height="22"/>
        <path d="M5.48744 21C5.32311 20.962 5.15725 20.9281 4.99393 20.8849C4.24004 20.6901 3.57022 20.2431 3.08945 19.6141C2.60867 18.985 2.34413 18.2094 2.33727 17.4089C2.32513 15.8401 2.33423 14.2714 2.33372 12.7031V12.4427C2.14613 12.4427 1.97168 12.4427 1.79774 12.4427C1.31283 12.4385 1.00742 12.1266 1.00236 11.6245C0.99882 11.2536 0.998314 10.8823 1.00236 10.5115C1.00792 10.0203 1.31232 9.70781 1.78864 9.70781C6.94623 9.70781 12.1026 9.70781 17.2579 9.70781C17.7352 9.70781 18.0421 10.0203 18.0472 10.5094C18.0507 10.887 18.0512 11.2646 18.0472 11.6422C18.0416 12.1271 17.7307 12.4391 17.2548 12.4432C17.0849 12.4432 16.915 12.4432 16.7173 12.4432V12.6807C16.7173 14.2036 16.6976 15.7271 16.7224 17.2495C16.7543 19.2198 15.3253 20.7656 13.6319 20.9682C13.6084 20.975 13.586 20.9856 13.5656 20.9995L5.48744 21ZM16.1343 12.4552H2.92483C2.92129 12.5161 2.91623 12.5667 2.91623 12.6172C2.91623 14.1991 2.91623 15.7809 2.91623 17.3625C2.91668 17.5373 2.93276 17.7116 2.96426 17.8833C3.24389 19.3828 4.4266 20.387 5.91876 20.3885C8.3199 20.3917 10.7214 20.3917 13.1232 20.3885C13.2937 20.392 13.4643 20.3805 13.6329 20.3542C15.1185 20.088 16.1247 18.8635 16.1313 17.3062C16.1379 15.749 16.1313 14.1953 16.1313 12.6396L16.1343 12.4552ZM3.30709 10.3099C2.82673 10.3099 2.34637 10.3099 1.866 10.3099C1.62582 10.3099 1.58588 10.35 1.58486 10.5885C1.58486 10.9142 1.58486 11.2398 1.58486 11.5651C1.58486 11.7958 1.62734 11.8354 1.85336 11.8354C3.65515 11.8323 5.4566 11.8297 7.25771 11.8276C10.5697 11.8276 13.8817 11.8295 17.1937 11.8333C17.4298 11.8333 17.4652 11.7984 17.4662 11.549C17.4662 11.2495 17.4662 10.95 17.4662 10.6505C17.4662 10.3318 17.4445 10.3094 17.1305 10.3094L3.30709 10.3099Z"/>
        <path d="M18.2307 1C18.2762 1.01979 18.3212 1.04063 18.3668 1.05885C18.7136 1.1974 18.9321 1.45312 18.9862 1.83177C19.0448 2.2401 18.9108 2.58646 18.5685 2.80885C18.0189 3.16667 17.4561 3.50364 16.8999 3.85052C16.2233 4.26719 15.5468 4.6875 14.8672 5.10052C14.8259 5.12149 14.7915 5.15437 14.768 5.19516C14.7446 5.23594 14.7332 5.28286 14.7352 5.33021C14.6548 7.32917 13.0595 8.81979 11.1254 8.68958C10.2001 8.62656 9.42895 8.21146 8.81965 7.49167C8.51626 7.13125 8.60424 6.67969 9.02191 6.42083C10.8665 5.27778 12.7116 4.13507 14.5572 2.99271C15.4977 2.40764 16.4399 1.825 17.3838 1.24479C17.5355 1.15313 17.6958 1.08125 17.8525 1H18.2307ZM13.9241 4.09583C13.8857 4.11406 13.8615 4.12292 13.8402 4.13594C12.3428 5.06406 10.8451 5.99149 9.34704 6.91823C9.20597 7.00573 9.23428 7.06979 9.32681 7.16823C9.9523 7.8349 10.7092 8.14479 11.6103 8.0776C13.4665 7.93958 14.6801 5.8599 13.9241 4.09583ZM14.6826 4.49271C14.7079 4.48575 14.7324 4.47634 14.7559 4.46458C15.9021 3.75625 17.0495 3.04757 18.1984 2.33854L18.2146 2.3276C18.4138 2.18854 18.4674 1.97917 18.3587 1.7901C18.25 1.60104 18.0305 1.55312 17.8267 1.67708C17.3054 1.99479 16.7871 2.31823 16.2678 2.63906L14.4475 3.76198C14.5284 4.01146 14.6027 4.25 14.6826 4.49271Z"/>
        <path d="M8.61486 4.86146C7.60761 4.85365 6.67167 5.0875 5.87628 5.75833C5.18709 6.33958 4.81443 7.11666 4.61874 7.99479C4.6056 8.05156 4.59498 8.10937 4.58031 8.16562C4.52975 8.37395 4.40081 8.46718 4.22636 8.43177C4.05191 8.39635 3.95584 8.2526 4.00994 8.04375C4.11562 7.63698 4.2122 7.22135 4.37552 6.83802C4.9823 5.41979 6.08663 4.63333 7.54087 4.36927C8.03337 4.27969 8.54508 4.29635 9.0482 4.28177C9.26361 4.27552 9.39204 4.4151 9.38597 4.59427C9.3794 4.78229 9.23428 4.89115 9.01028 4.87812C8.91572 4.87292 8.82117 4.86771 8.72661 4.86354C8.69071 4.85989 8.65278 4.86146 8.61486 4.86146Z"/>
        <path d="M6.6934 3.41406C6.78189 3.41406 6.87088 3.40729 6.95836 3.41406C7.0317 3.41753 7.10095 3.44991 7.15177 3.50448C7.20259 3.55906 7.2311 3.63167 7.23141 3.70729C7.23141 3.86927 7.1136 3.99375 6.9437 4.00781C6.69846 4.02812 6.44867 4.02291 6.2095 4.07239C4.98381 4.32656 4.23748 5.1375 3.82386 6.31198C3.74705 6.54576 3.6824 6.7836 3.6302 7.02448C3.57003 7.27239 3.4426 7.38906 3.26209 7.34896C3.08157 7.30885 3.0037 7.15 3.05376 6.90364C3.24439 5.96614 3.60037 5.11823 4.28299 4.44583C4.9555 3.78333 5.77211 3.4651 6.6934 3.41406Z"/>
        <path d="M8.13551 6.41979C7.88269 6.44271 7.61975 6.43698 7.373 6.49583C6.86179 6.61771 6.53312 6.97656 6.33086 7.46042C6.26377 7.64199 6.20621 7.82716 6.15843 8.0151C6.10079 8.21198 5.96578 8.30625 5.79336 8.26667C5.62852 8.22865 5.54508 8.06927 5.58806 7.87083C5.74431 7.14792 6.05275 6.52708 6.69695 6.13542C7.15607 5.85677 7.65768 5.79323 8.17647 5.85521C8.37367 5.87864 8.49199 6.025 8.4743 6.19115C8.47187 6.23157 8.46031 6.27086 8.44056 6.30588C8.42081 6.3409 8.3934 6.37069 8.36051 6.39289C8.32762 6.41509 8.29016 6.42908 8.2511 6.43375C8.21204 6.43842 8.17246 6.43364 8.13551 6.41979Z"/>
        <path d="M9.52907 12.8552C10.2133 12.8568 10.8817 13.0672 11.4499 13.46C12.018 13.8528 12.4603 14.4103 12.7209 15.062C12.9815 15.7137 13.0486 16.4303 12.9138 17.1213C12.7791 17.8123 12.4484 18.4466 11.9637 18.944C11.479 19.4415 10.862 19.7797 10.1906 19.916C9.51931 20.0523 8.82382 19.9806 8.19209 19.7098C7.56037 19.439 7.02076 18.9814 6.6415 18.3948C6.26224 17.8081 6.06034 17.1189 6.06134 16.4141C6.06535 15.4692 6.43239 14.5644 7.08221 13.8975C7.73203 13.2306 8.61176 12.8559 9.52907 12.8552ZM9.53463 19.3719C10.1024 19.3699 10.6569 19.1945 11.1278 18.8678C11.5988 18.5411 11.9651 18.0778 12.1803 17.5366C12.3956 16.9955 12.4501 16.4006 12.337 15.8275C12.224 15.2544 11.9483 14.7287 11.5451 14.3169C11.1418 13.9052 10.629 13.626 10.0716 13.5146C9.51425 13.4031 8.93729 13.4646 8.41379 13.691C7.89029 13.9175 7.44379 14.2989 7.13079 14.7868C6.8178 15.2748 6.65238 15.8475 6.65548 16.4323C6.65673 16.8202 6.73225 17.2039 6.8777 17.5617C7.02314 17.9195 7.23567 18.2442 7.50311 18.5172C7.77054 18.7903 8.08763 19.0063 8.43623 19.1529C8.78482 19.2996 9.15808 19.374 9.53463 19.3719Z"/>
        <path d="M10.3917 15.5245C11.1926 15.6083 11.5142 15.8609 11.5208 16.4016C11.5244 16.7036 11.4197 16.9745 11.1669 17.1146C10.9383 17.2401 10.6648 17.2786 10.3806 17.3646C10.3897 17.6724 10.3806 18.0464 10.0534 18.2708C9.88589 18.3804 9.69501 18.4464 9.49722 18.463C9.36307 18.4787 9.22748 18.4515 9.10888 18.3851C8.99027 18.3186 8.89441 18.2162 8.83431 18.0917C8.72004 17.8578 8.68262 17.5833 8.60576 17.2969C8.31097 17.3094 7.95398 17.301 7.73504 16.9786C7.62503 16.807 7.55717 16.6104 7.53733 16.4057C7.51965 16.2645 7.54499 16.1211 7.60984 15.9953C7.6747 15.8696 7.77587 15.7676 7.89937 15.7036C8.1254 15.5844 8.39288 15.5474 8.66897 15.4677C8.6543 15.1583 8.68312 14.8115 8.97943 14.5615C9.14039 14.4211 9.34669 14.3482 9.55738 14.3573C10.0701 14.3771 10.3088 14.7073 10.3917 15.5245ZM8.11629 16.3979C8.11022 16.5604 8.22299 16.6786 8.39743 16.687C8.57188 16.6953 8.75139 16.687 8.92786 16.6911C9.15894 16.6974 9.25753 16.7995 9.26562 17.0406C9.27068 17.1901 9.26562 17.3396 9.26562 17.4896C9.26562 17.7422 9.35209 17.8677 9.51845 17.8708C9.68481 17.874 9.77987 17.7448 9.78189 17.4984C9.78189 17.349 9.77886 17.199 9.78189 17.0495C9.78847 16.7979 9.88758 16.6969 10.1308 16.6911C10.3138 16.6865 10.4979 16.6953 10.6804 16.6839C10.8321 16.6745 10.9221 16.576 10.9333 16.4177C10.9408 16.2719 10.825 16.1573 10.6637 16.1536C10.4933 16.1474 10.3224 16.1536 10.152 16.1536C9.89212 16.1495 9.78897 16.0422 9.78391 15.7698C9.78391 15.6005 9.78695 15.4312 9.78391 15.2625C9.77835 15.0776 9.67571 14.9651 9.52098 14.974C9.35361 14.9833 9.27271 15.087 9.26816 15.2542C9.26361 15.4214 9.26816 15.5922 9.26816 15.7615C9.26361 16.0464 9.16298 16.1505 8.88993 16.1536C8.71953 16.1536 8.54862 16.1536 8.37822 16.1536C8.2154 16.1562 8.13956 16.2604 8.11427 16.3979H8.11629Z"/>
    </mask>
    <path d="M5.48744 21C5.32311 20.962 5.15725 20.9281 4.99393 20.8849C4.24004 20.6901 3.57022 20.2431 3.08945 19.6141C2.60867 18.985 2.34413 18.2094 2.33727 17.4089C2.32513 15.8401 2.33423 14.2714 2.33372 12.7031V12.4427C2.14613 12.4427 1.97168 12.4427 1.79774 12.4427C1.31283 12.4385 1.00742 12.1266 1.00236 11.6245C0.99882 11.2536 0.998314 10.8823 1.00236 10.5115C1.00792 10.0203 1.31232 9.70781 1.78864 9.70781C6.94623 9.70781 12.1026 9.70781 17.2579 9.70781C17.7352 9.70781 18.0421 10.0203 18.0472 10.5094C18.0507 10.887 18.0512 11.2646 18.0472 11.6422C18.0416 12.1271 17.7307 12.4391 17.2548 12.4432C17.0849 12.4432 16.915 12.4432 16.7173 12.4432V12.6807C16.7173 14.2036 16.6976 15.7271 16.7224 17.2495C16.7543 19.2198 15.3253 20.7656 13.6319 20.9682C13.6084 20.975 13.586 20.9856 13.5656 20.9995L5.48744 21ZM16.1343 12.4552H2.92483C2.92129 12.5161 2.91623 12.5667 2.91623 12.6172C2.91623 14.1991 2.91623 15.7809 2.91623 17.3625C2.91668 17.5373 2.93276 17.7116 2.96426 17.8833C3.24389 19.3828 4.4266 20.387 5.91876 20.3885C8.3199 20.3917 10.7214 20.3917 13.1232 20.3885C13.2937 20.392 13.4643 20.3805 13.6329 20.3542C15.1185 20.088 16.1247 18.8635 16.1313 17.3062C16.1379 15.749 16.1313 14.1953 16.1313 12.6396L16.1343 12.4552ZM3.30709 10.3099C2.82673 10.3099 2.34637 10.3099 1.866 10.3099C1.62582 10.3099 1.58588 10.35 1.58486 10.5885C1.58486 10.9142 1.58486 11.2398 1.58486 11.5651C1.58486 11.7958 1.62734 11.8354 1.85336 11.8354C3.65515 11.8323 5.4566 11.8297 7.25771 11.8276C10.5697 11.8276 13.8817 11.8295 17.1937 11.8333C17.4298 11.8333 17.4652 11.7984 17.4662 11.549C17.4662 11.2495 17.4662 10.95 17.4662 10.6505C17.4662 10.3318 17.4445 10.3094 17.1305 10.3094L3.30709 10.3099Z" fill="#8F9194"/>
    <path d="M18.2307 1C18.2762 1.01979 18.3212 1.04063 18.3668 1.05885C18.7136 1.1974 18.9321 1.45312 18.9862 1.83177C19.0448 2.2401 18.9108 2.58646 18.5685 2.80885C18.0189 3.16667 17.4561 3.50364 16.8999 3.85052C16.2233 4.26719 15.5468 4.6875 14.8672 5.10052C14.8259 5.12149 14.7915 5.15437 14.768 5.19516C14.7446 5.23594 14.7332 5.28286 14.7352 5.33021C14.6548 7.32917 13.0595 8.81979 11.1254 8.68958C10.2001 8.62656 9.42895 8.21146 8.81965 7.49167C8.51626 7.13125 8.60424 6.67969 9.02191 6.42083C10.8665 5.27778 12.7116 4.13507 14.5572 2.99271C15.4977 2.40764 16.4399 1.825 17.3838 1.24479C17.5355 1.15313 17.6958 1.08125 17.8525 1H18.2307ZM13.9241 4.09583C13.8857 4.11406 13.8615 4.12292 13.8402 4.13594C12.3428 5.06406 10.8451 5.99149 9.34704 6.91823C9.20597 7.00573 9.23428 7.06979 9.32681 7.16823C9.9523 7.8349 10.7092 8.14479 11.6103 8.0776C13.4665 7.93958 14.6801 5.8599 13.9241 4.09583ZM14.6826 4.49271C14.7079 4.48575 14.7324 4.47634 14.7559 4.46458C15.9021 3.75625 17.0495 3.04757 18.1984 2.33854L18.2146 2.3276C18.4138 2.18854 18.4674 1.97917 18.3587 1.7901C18.25 1.60104 18.0305 1.55312 17.8267 1.67708C17.3054 1.99479 16.7871 2.31823 16.2678 2.63906L14.4475 3.76198C14.5284 4.01146 14.6027 4.25 14.6826 4.49271Z" fill="#8F9194"/>
    <path d="M8.61486 4.86146C7.60761 4.85365 6.67167 5.0875 5.87628 5.75833C5.18709 6.33958 4.81443 7.11666 4.61874 7.99479C4.6056 8.05156 4.59498 8.10937 4.58031 8.16562C4.52975 8.37395 4.40081 8.46718 4.22636 8.43177C4.05191 8.39635 3.95584 8.2526 4.00994 8.04375C4.11562 7.63698 4.2122 7.22135 4.37552 6.83802C4.9823 5.41979 6.08663 4.63333 7.54087 4.36927C8.03337 4.27969 8.54508 4.29635 9.0482 4.28177C9.26361 4.27552 9.39204 4.4151 9.38597 4.59427C9.3794 4.78229 9.23428 4.89115 9.01028 4.87812C8.91572 4.87292 8.82117 4.86771 8.72661 4.86354C8.69071 4.85989 8.65278 4.86146 8.61486 4.86146Z" fill="#8F9194"/>
    <path d="M6.6934 3.41406C6.78189 3.41406 6.87088 3.40729 6.95836 3.41406C7.0317 3.41753 7.10095 3.44991 7.15177 3.50448C7.20259 3.55906 7.2311 3.63167 7.23141 3.70729C7.23141 3.86927 7.1136 3.99375 6.9437 4.00781C6.69846 4.02812 6.44867 4.02291 6.2095 4.07239C4.98381 4.32656 4.23748 5.1375 3.82386 6.31198C3.74705 6.54576 3.6824 6.7836 3.6302 7.02448C3.57003 7.27239 3.4426 7.38906 3.26209 7.34896C3.08157 7.30885 3.0037 7.15 3.05376 6.90364C3.24439 5.96614 3.60037 5.11823 4.28299 4.44583C4.9555 3.78333 5.77211 3.4651 6.6934 3.41406Z" fill="#8F9194"/>
    <path d="M8.13551 6.41979C7.88269 6.44271 7.61975 6.43698 7.373 6.49583C6.86179 6.61771 6.53312 6.97656 6.33086 7.46042C6.26377 7.64199 6.20621 7.82716 6.15843 8.0151C6.10079 8.21198 5.96578 8.30625 5.79336 8.26667C5.62852 8.22865 5.54508 8.06927 5.58806 7.87083C5.74431 7.14792 6.05275 6.52708 6.69695 6.13542C7.15607 5.85677 7.65768 5.79323 8.17647 5.85521C8.37367 5.87864 8.49199 6.025 8.4743 6.19115C8.47187 6.23157 8.46031 6.27086 8.44056 6.30588C8.42081 6.3409 8.3934 6.37069 8.36051 6.39289C8.32762 6.41509 8.29016 6.42908 8.2511 6.43375C8.21204 6.43842 8.17246 6.43364 8.13551 6.41979Z" fill="#8F9194"/>
    <path d="M9.52907 12.8552C10.2133 12.8568 10.8817 13.0672 11.4499 13.46C12.018 13.8528 12.4603 14.4103 12.7209 15.062C12.9815 15.7137 13.0486 16.4303 12.9138 17.1213C12.7791 17.8123 12.4484 18.4466 11.9637 18.944C11.479 19.4415 10.862 19.7797 10.1906 19.916C9.51931 20.0523 8.82382 19.9806 8.19209 19.7098C7.56037 19.439 7.02076 18.9814 6.6415 18.3948C6.26224 17.8081 6.06034 17.1189 6.06134 16.4141C6.06535 15.4692 6.43239 14.5644 7.08221 13.8975C7.73203 13.2306 8.61176 12.8559 9.52907 12.8552ZM9.53463 19.3719C10.1024 19.3699 10.6569 19.1945 11.1278 18.8678C11.5988 18.5411 11.9651 18.0778 12.1803 17.5366C12.3956 16.9955 12.4501 16.4006 12.337 15.8275C12.224 15.2544 11.9483 14.7287 11.5451 14.3169C11.1418 13.9052 10.629 13.626 10.0716 13.5146C9.51425 13.4031 8.93729 13.4646 8.41379 13.691C7.89029 13.9175 7.44379 14.2989 7.13079 14.7868C6.8178 15.2748 6.65238 15.8475 6.65548 16.4323C6.65673 16.8202 6.73225 17.2039 6.8777 17.5617C7.02314 17.9195 7.23567 18.2442 7.50311 18.5172C7.77054 18.7903 8.08763 19.0063 8.43623 19.1529C8.78482 19.2996 9.15808 19.374 9.53463 19.3719Z" fill="#8F9194"/>
    <path d="M10.3917 15.5245C11.1926 15.6083 11.5142 15.8609 11.5208 16.4016C11.5244 16.7036 11.4197 16.9745 11.1669 17.1146C10.9383 17.2401 10.6648 17.2786 10.3806 17.3646C10.3897 17.6724 10.3806 18.0464 10.0534 18.2708C9.88589 18.3804 9.69501 18.4464 9.49722 18.463C9.36307 18.4787 9.22748 18.4515 9.10888 18.3851C8.99027 18.3186 8.89441 18.2162 8.83431 18.0917C8.72004 17.8578 8.68262 17.5833 8.60576 17.2969C8.31097 17.3094 7.95398 17.301 7.73504 16.9786C7.62503 16.807 7.55717 16.6104 7.53733 16.4057C7.51965 16.2645 7.54499 16.1211 7.60984 15.9953C7.6747 15.8696 7.77587 15.7676 7.89937 15.7036C8.1254 15.5844 8.39288 15.5474 8.66897 15.4677C8.6543 15.1583 8.68312 14.8115 8.97943 14.5615C9.14039 14.4211 9.34669 14.3482 9.55738 14.3573C10.0701 14.3771 10.3088 14.7073 10.3917 15.5245ZM8.11629 16.3979C8.11022 16.5604 8.22299 16.6786 8.39743 16.687C8.57188 16.6953 8.75139 16.687 8.92786 16.6911C9.15894 16.6974 9.25753 16.7995 9.26562 17.0406C9.27068 17.1901 9.26562 17.3396 9.26562 17.4896C9.26562 17.7422 9.35209 17.8677 9.51845 17.8708C9.68481 17.874 9.77987 17.7448 9.78189 17.4984C9.78189 17.349 9.77886 17.199 9.78189 17.0495C9.78847 16.7979 9.88758 16.6969 10.1308 16.6911C10.3138 16.6865 10.4979 16.6953 10.6804 16.6839C10.8321 16.6745 10.9221 16.576 10.9333 16.4177C10.9408 16.2719 10.825 16.1573 10.6637 16.1536C10.4933 16.1474 10.3224 16.1536 10.152 16.1536C9.89212 16.1495 9.78897 16.0422 9.78391 15.7698C9.78391 15.6005 9.78695 15.4312 9.78391 15.2625C9.77835 15.0776 9.67571 14.9651 9.52098 14.974C9.35361 14.9833 9.27271 15.087 9.26816 15.2542C9.26361 15.4214 9.26816 15.5922 9.26816 15.7615C9.26361 16.0464 9.16298 16.1505 8.88993 16.1536C8.71953 16.1536 8.54862 16.1536 8.37822 16.1536C8.2154 16.1562 8.13956 16.2604 8.11427 16.3979H8.11629Z" fill="#8F9194"/>
    <path d="M5.48744 21C5.32311 20.962 5.15725 20.9281 4.99393 20.8849C4.24004 20.6901 3.57022 20.2431 3.08945 19.6141C2.60867 18.985 2.34413 18.2094 2.33727 17.4089C2.32513 15.8401 2.33423 14.2714 2.33372 12.7031V12.4427C2.14613 12.4427 1.97168 12.4427 1.79774 12.4427C1.31283 12.4385 1.00742 12.1266 1.00236 11.6245C0.99882 11.2536 0.998314 10.8823 1.00236 10.5115C1.00792 10.0203 1.31232 9.70781 1.78864 9.70781C6.94623 9.70781 12.1026 9.70781 17.2579 9.70781C17.7352 9.70781 18.0421 10.0203 18.0472 10.5094C18.0507 10.887 18.0512 11.2646 18.0472 11.6422C18.0416 12.1271 17.7307 12.4391 17.2548 12.4432C17.0849 12.4432 16.915 12.4432 16.7173 12.4432V12.6807C16.7173 14.2036 16.6976 15.7271 16.7224 17.2495C16.7543 19.2198 15.3253 20.7656 13.6319 20.9682C13.6084 20.975 13.586 20.9856 13.5656 20.9995L5.48744 21ZM16.1343 12.4552H2.92483C2.92129 12.5161 2.91623 12.5667 2.91623 12.6172C2.91623 14.1991 2.91623 15.7809 2.91623 17.3625C2.91668 17.5373 2.93276 17.7116 2.96426 17.8833C3.24389 19.3828 4.4266 20.387 5.91876 20.3885C8.3199 20.3917 10.7214 20.3917 13.1232 20.3885C13.2937 20.392 13.4643 20.3805 13.6329 20.3542C15.1185 20.088 16.1247 18.8635 16.1313 17.3062C16.1379 15.749 16.1313 14.1953 16.1313 12.6396L16.1343 12.4552ZM3.30709 10.3099C2.82673 10.3099 2.34637 10.3099 1.866 10.3099C1.62582 10.3099 1.58588 10.35 1.58486 10.5885C1.58486 10.9142 1.58486 11.2398 1.58486 11.5651C1.58486 11.7958 1.62734 11.8354 1.85336 11.8354C3.65515 11.8323 5.4566 11.8297 7.25771 11.8276C10.5697 11.8276 13.8817 11.8295 17.1937 11.8333C17.4298 11.8333 17.4652 11.7984 17.4662 11.549C17.4662 11.2495 17.4662 10.95 17.4662 10.6505C17.4662 10.3318 17.4445 10.3094 17.1305 10.3094L3.30709 10.3099Z" stroke="#8F9194" stroke-width="0.2" mask="url(#path-1-outside-1_1310_13243)"/>
    <path d="M18.2307 1C18.2762 1.01979 18.3212 1.04063 18.3668 1.05885C18.7136 1.1974 18.9321 1.45312 18.9862 1.83177C19.0448 2.2401 18.9108 2.58646 18.5685 2.80885C18.0189 3.16667 17.4561 3.50364 16.8999 3.85052C16.2233 4.26719 15.5468 4.6875 14.8672 5.10052C14.8259 5.12149 14.7915 5.15437 14.768 5.19516C14.7446 5.23594 14.7332 5.28286 14.7352 5.33021C14.6548 7.32917 13.0595 8.81979 11.1254 8.68958C10.2001 8.62656 9.42895 8.21146 8.81965 7.49167C8.51626 7.13125 8.60424 6.67969 9.02191 6.42083C10.8665 5.27778 12.7116 4.13507 14.5572 2.99271C15.4977 2.40764 16.4399 1.825 17.3838 1.24479C17.5355 1.15313 17.6958 1.08125 17.8525 1H18.2307ZM13.9241 4.09583C13.8857 4.11406 13.8615 4.12292 13.8402 4.13594C12.3428 5.06406 10.8451 5.99149 9.34704 6.91823C9.20597 7.00573 9.23428 7.06979 9.32681 7.16823C9.9523 7.8349 10.7092 8.14479 11.6103 8.0776C13.4665 7.93958 14.6801 5.8599 13.9241 4.09583ZM14.6826 4.49271C14.7079 4.48575 14.7324 4.47634 14.7559 4.46458C15.9021 3.75625 17.0495 3.04757 18.1984 2.33854L18.2146 2.3276C18.4138 2.18854 18.4674 1.97917 18.3587 1.7901C18.25 1.60104 18.0305 1.55312 17.8267 1.67708C17.3054 1.99479 16.7871 2.31823 16.2678 2.63906L14.4475 3.76198C14.5284 4.01146 14.6027 4.25 14.6826 4.49271Z" stroke="#8F9194" stroke-width="0.2" mask="url(#path-1-outside-1_1310_13243)"/>
    <path d="M8.61486 4.86146C7.60761 4.85365 6.67167 5.0875 5.87628 5.75833C5.18709 6.33958 4.81443 7.11666 4.61874 7.99479C4.6056 8.05156 4.59498 8.10937 4.58031 8.16562C4.52975 8.37395 4.40081 8.46718 4.22636 8.43177C4.05191 8.39635 3.95584 8.2526 4.00994 8.04375C4.11562 7.63698 4.2122 7.22135 4.37552 6.83802C4.9823 5.41979 6.08663 4.63333 7.54087 4.36927C8.03337 4.27969 8.54508 4.29635 9.0482 4.28177C9.26361 4.27552 9.39204 4.4151 9.38597 4.59427C9.3794 4.78229 9.23428 4.89115 9.01028 4.87812C8.91572 4.87292 8.82117 4.86771 8.72661 4.86354C8.69071 4.85989 8.65278 4.86146 8.61486 4.86146Z" stroke="#8F9194" stroke-width="0.2" mask="url(#path-1-outside-1_1310_13243)"/>
    <path d="M6.6934 3.41406C6.78189 3.41406 6.87088 3.40729 6.95836 3.41406C7.0317 3.41753 7.10095 3.44991 7.15177 3.50448C7.20259 3.55906 7.2311 3.63167 7.23141 3.70729C7.23141 3.86927 7.1136 3.99375 6.9437 4.00781C6.69846 4.02812 6.44867 4.02291 6.2095 4.07239C4.98381 4.32656 4.23748 5.1375 3.82386 6.31198C3.74705 6.54576 3.6824 6.7836 3.6302 7.02448C3.57003 7.27239 3.4426 7.38906 3.26209 7.34896C3.08157 7.30885 3.0037 7.15 3.05376 6.90364C3.24439 5.96614 3.60037 5.11823 4.28299 4.44583C4.9555 3.78333 5.77211 3.4651 6.6934 3.41406Z" stroke="#8F9194" stroke-width="0.2" mask="url(#path-1-outside-1_1310_13243)"/>
    <path d="M8.13551 6.41979C7.88269 6.44271 7.61975 6.43698 7.373 6.49583C6.86179 6.61771 6.53312 6.97656 6.33086 7.46042C6.26377 7.64199 6.20621 7.82716 6.15843 8.0151C6.10079 8.21198 5.96578 8.30625 5.79336 8.26667C5.62852 8.22865 5.54508 8.06927 5.58806 7.87083C5.74431 7.14792 6.05275 6.52708 6.69695 6.13542C7.15607 5.85677 7.65768 5.79323 8.17647 5.85521C8.37367 5.87864 8.49199 6.025 8.4743 6.19115C8.47187 6.23157 8.46031 6.27086 8.44056 6.30588C8.42081 6.3409 8.3934 6.37069 8.36051 6.39289C8.32762 6.41509 8.29016 6.42908 8.2511 6.43375C8.21204 6.43842 8.17246 6.43364 8.13551 6.41979Z" stroke="#8F9194" stroke-width="0.2" mask="url(#path-1-outside-1_1310_13243)"/>
    <path d="M9.52907 12.8552C10.2133 12.8568 10.8817 13.0672 11.4499 13.46C12.018 13.8528 12.4603 14.4103 12.7209 15.062C12.9815 15.7137 13.0486 16.4303 12.9138 17.1213C12.7791 17.8123 12.4484 18.4466 11.9637 18.944C11.479 19.4415 10.862 19.7797 10.1906 19.916C9.51931 20.0523 8.82382 19.9806 8.19209 19.7098C7.56037 19.439 7.02076 18.9814 6.6415 18.3948C6.26224 17.8081 6.06034 17.1189 6.06134 16.4141C6.06535 15.4692 6.43239 14.5644 7.08221 13.8975C7.73203 13.2306 8.61176 12.8559 9.52907 12.8552ZM9.53463 19.3719C10.1024 19.3699 10.6569 19.1945 11.1278 18.8678C11.5988 18.5411 11.9651 18.0778 12.1803 17.5366C12.3956 16.9955 12.4501 16.4006 12.337 15.8275C12.224 15.2544 11.9483 14.7287 11.5451 14.3169C11.1418 13.9052 10.629 13.626 10.0716 13.5146C9.51425 13.4031 8.93729 13.4646 8.41379 13.691C7.89029 13.9175 7.44379 14.2989 7.13079 14.7868C6.8178 15.2748 6.65238 15.8475 6.65548 16.4323C6.65673 16.8202 6.73225 17.2039 6.8777 17.5617C7.02314 17.9195 7.23567 18.2442 7.50311 18.5172C7.77054 18.7903 8.08763 19.0063 8.43623 19.1529C8.78482 19.2996 9.15808 19.374 9.53463 19.3719Z" stroke="#8F9194" stroke-width="0.2" mask="url(#path-1-outside-1_1310_13243)"/>
    <path d="M10.3917 15.5245C11.1926 15.6083 11.5142 15.8609 11.5208 16.4016C11.5244 16.7036 11.4197 16.9745 11.1669 17.1146C10.9383 17.2401 10.6648 17.2786 10.3806 17.3646C10.3897 17.6724 10.3806 18.0464 10.0534 18.2708C9.88589 18.3804 9.69501 18.4464 9.49722 18.463C9.36307 18.4787 9.22748 18.4515 9.10888 18.3851C8.99027 18.3186 8.89441 18.2162 8.83431 18.0917C8.72004 17.8578 8.68262 17.5833 8.60576 17.2969C8.31097 17.3094 7.95398 17.301 7.73504 16.9786C7.62503 16.807 7.55717 16.6104 7.53733 16.4057C7.51965 16.2645 7.54499 16.1211 7.60984 15.9953C7.6747 15.8696 7.77587 15.7676 7.89937 15.7036C8.1254 15.5844 8.39288 15.5474 8.66897 15.4677C8.6543 15.1583 8.68312 14.8115 8.97943 14.5615C9.14039 14.4211 9.34669 14.3482 9.55738 14.3573C10.0701 14.3771 10.3088 14.7073 10.3917 15.5245ZM8.11629 16.3979C8.11022 16.5604 8.22299 16.6786 8.39743 16.687C8.57188 16.6953 8.75139 16.687 8.92786 16.6911C9.15894 16.6974 9.25753 16.7995 9.26562 17.0406C9.27068 17.1901 9.26562 17.3396 9.26562 17.4896C9.26562 17.7422 9.35209 17.8677 9.51845 17.8708C9.68481 17.874 9.77987 17.7448 9.78189 17.4984C9.78189 17.349 9.77886 17.199 9.78189 17.0495C9.78847 16.7979 9.88758 16.6969 10.1308 16.6911C10.3138 16.6865 10.4979 16.6953 10.6804 16.6839C10.8321 16.6745 10.9221 16.576 10.9333 16.4177C10.9408 16.2719 10.825 16.1573 10.6637 16.1536C10.4933 16.1474 10.3224 16.1536 10.152 16.1536C9.89212 16.1495 9.78897 16.0422 9.78391 15.7698C9.78391 15.6005 9.78695 15.4312 9.78391 15.2625C9.77835 15.0776 9.67571 14.9651 9.52098 14.974C9.35361 14.9833 9.27271 15.087 9.26816 15.2542C9.26361 15.4214 9.26816 15.5922 9.26816 15.7615C9.26361 16.0464 9.16298 16.1505 8.88993 16.1536C8.71953 16.1536 8.54862 16.1536 8.37822 16.1536C8.2154 16.1562 8.13956 16.2604 8.11427 16.3979H8.11629Z" stroke="#8F9194" stroke-width="0.2" mask="url(#path-1-outside-1_1310_13243)"/>
</svg>
